<?xml version="1.0" encoding="utf-8"?>
<!-- Generator: Adobe Illustrator 19.2.0, SVG Export Plug-In . SVG Version: 6.00 Build 0)  -->
<svg version="1.1" id="Layer_1" xmlns="http://www.w3.org/2000/svg" xmlns:xlink="http://www.w3.org/1999/xlink" x="0px" y="0px"
	 viewBox="0 0 619.9 122" style="enable-background:new 0 0 619.9 122;" xml:space="preserve">
<style type="text/css">
	.st0{fill:#FFFFFF;}
</style>
<g>
	<polygon class="st0" points="191.4,24.9 176.4,1.5 160.6,1.5 160.6,5.3 164.9,7 164.9,55.4 176.3,55.4 176.3,21.5 190.5,42.8 
		192.1,42.8 206.5,21.3 206.5,55.4 217.9,55.4 217.9,1.5 206.4,1.5 	"/>
	<polygon class="st0" points="231.4,55.4 242.9,55.4 242.9,1.5 227.1,1.5 227.1,5.3 231.4,7 	"/>
	<polygon class="st0" points="256.2,55.4 267.5,55.4 267.5,21.2 294.1,55.4 303.4,55.4 303.4,1.5 292.1,1.5 292.1,34.8 266.4,1.5 
		251.8,1.5 251.8,5.3 256.2,7 	"/>
	<path class="st0" d="M365.6,28.4c0-15.6-12-26.9-28.6-26.9h-24.7v3.7l4.3,1.7v48.4h20.4C353.6,55.4,365.6,44.1,365.6,28.4z
		 M337.1,44.8h-8.9V12.2h8.9c9.8,0,16.6,6.7,16.6,16.4C353.7,38.3,347,44.8,337.1,44.8z"/>
	<path class="st0" d="M445.3,1.5h-25.9v3.7l4.4,1.7v48.4h11.5V38.9h9c13.2,0,21.8-7.4,21.8-18.9C466.1,8.8,457.9,1.5,445.3,1.5z
		 M444.5,28.3h-9.3V12.2h9.3c3.7,0,9.9,1,9.9,8C454.4,25.1,450.6,28.3,444.5,28.3z"/>
	<path class="st0" d="M487.2,1.5l-23.7,53.9h11.9l5.3-12.4h22.7l5.2,12.4h12.2L497.2,1.5H487.2z M485,32.6l7-16.3l7,16.3H485z"/>
	<polygon class="st0" points="590.5,44.9 590.5,33.5 616.3,33.5 616.3,23 590.5,23 590.5,12.1 619.6,12.1 619.6,1.5 574.6,1.5 
		574.6,5.3 579,7 579,55.4 619.9,55.4 619.9,44.9 	"/>
	<path class="st0" d="M270.3,84.6c0-10.8-7.8-17.5-20.3-17.5h-28.5v3.7l4.3,1.7V121h11.5v-18h9.5l12.6,18h13.7l-14.3-20.1
		C266.1,98.3,270.3,92.3,270.3,84.6z M249.3,92.5h-12V77.7h11.9c4.3,0,9.4,1.3,9.4,7.4C258.7,89.7,255.1,92.5,249.3,92.5z"/>
	<path class="st0" d="M412.9,39.6c0-10.7-8.4-14.2-17.5-16.4c-9.6-2.3-11.3-3.9-11.3-7.1c0-3,2.9-5.1,7.2-5.1
		c4.4,0,8.7,1.7,13.2,5.2l1,0.7l6.2-8.8l-0.9-0.7c-5.7-4.6-12-6.8-19.4-6.8c-11.1,0-18.8,6.7-18.8,16.3c0,10.3,6.6,13.9,18.1,16.7
		c9.2,2.1,10.7,3.8,10.7,6.8c0,3.3-3,5.5-7.9,5.5c-5.7,0-10.3-2-15.5-6.5l-0.9-0.8l-7,8.3l0.9,0.8c6.3,5.7,14,8.6,22.3,8.6
		C405.3,56.4,412.9,49.8,412.9,39.6z"/>
	<path class="st0" d="M562,39.2c-4.2,4-8,6.5-13.9,6.5c-9,0-16-7.6-16-17.6c0-9.9,7.1-17.4,16-17.4c4.9,0,9.1,1.9,13.6,6.1l0.9,0.9
		l7.4-8.4l-0.8-0.8c-4.3-4.2-10.2-8.5-21-8.5c-15.8,0-27.8,12.2-27.8,28.3c0,16,11.8,28.1,27.4,28.1c8.8,0,15.3-2.9,21.8-9.7
		l0.8-0.9l-7.5-7.6L562,39.2z"/>
	<path class="st0" d="M194.3,100.6h9.1v7.6c-3.2,2.2-8.1,3.3-12.1,3.3c-9.8,0-16.8-7.4-16.8-17.8c0-9.8,7.1-17.5,16-17.5
		c6.2,0,9.9,2.1,13.9,5.4l0.9,0.8l7.4-8.7l-0.9-0.8c-6.2-5.3-12.3-7.4-20.9-7.4c-15.8,0-28.2,12.5-28.2,28.4
		c0,16.6,11.7,28.2,28.4,28.2c10.5,0,18.1-4.6,22.6-8.4l0.4-0.4V90.5h-19.8V100.6z"/>
	<path class="st0" d="M305.1,65.6c-15.8,0-28.2,12.4-28.2,28.3c0,16,12.1,28.1,28,28.1c15.8,0,28.2-12.4,28.2-28.3
		C333.1,77.7,321.1,65.6,305.1,65.6z M305.1,111.4c-9.3,0-16.6-7.7-16.6-17.7c0-9.9,7.2-17.4,16.4-17.4c9.3,0,16.6,7.5,16.6,17.6
		C321.5,103.8,314.3,111.4,305.1,111.4z"/>
	<path class="st0" d="M375.9,98c0,8.5-4.2,13.4-11.7,13.4c-7.6,0-11.8-4.9-11.8-13.7V67h-11.5v31c0,15.2,8.4,24,23.1,24
		c14.8,0,23.3-8.9,23.3-24.4V67h-11.5V98z"/>
	<path class="st0" d="M420.9,67.1L395.1,67v3.8l4.4,1.7V121h11.5v-16.5h9c13.2,0,21.8-7.4,21.8-18.9
		C441.7,74.3,433.5,67.1,420.9,67.1z M420.2,93.8h-9.3V77.8h9.3c3.7,0,9.9,1,9.9,8C430.1,90.7,426.2,93.8,420.2,93.8z"/>
	<polygon class="st0" points="31.4,8.6 31.4,86.2 41.3,90.3 51.2,86.2 51.2,8.6 41.3,10.2 	"/>
	<polygon class="st0" points="0,3.6 0,73.4 0,88.7 19.9,97.9 19.9,81.5 19.9,6.8 19.9,3 0,0.1 	"/>
	<polygon class="st0" points="62.7,6.8 62.7,81.5 62.7,97.9 82.6,88.7 82.6,73.4 82.6,3.6 82.6,0.1 62.7,3 	"/>
</g>
</svg>
