<?xml version="1.0" encoding="utf-8"?>
<svg version="1.1" id="Logo_RVN" xmlns="http://www.w3.org/2000/svg" xmlns:xlink="http://www.w3.org/1999/xlink" x="0px" y="0px"
	 viewBox="0 0 340.2 79.3" style="enable-background:new 0 0 340.2 79.3;" xml:space="preserve">
<style type="text/css">
	.st0{fill:#009EE2;}
	.st1{fill:#1D1D1B;}
</style>
<g>
	<g>
		<path class="st0" d="M0,23.2"/>
		<g>
			<path class="st0" d="M51.4,37.6c-6.2-3.4-13.8-1.1-17.4,1.1c-3.9,2.3-6.3,2.3-8.1,2.4h0C24,41,21.7,41,17.8,38.7
				c-3.6-2.2-11.2-4.4-17.4-1.1V23.3c6.2-3.4,13.8-1.1,17.4,1.1c3.9,2.3,6.3,2.3,8.1,2.4h0c1.9-0.1,4.2-0.1,8.1-2.4
				c3.6-2.2,11.2-4.4,17.4-1.1V37.6z"/>
			<path class="st0" d="M51.4,56.3C45.2,53,37.7,55.3,34,57.4c-3.9,2.3-6.3,2.3-8.1,2.4h0c-1.9-0.1-4.2-0.1-8.1-2.4
				C14.2,55.3,6.6,53,0.4,56.3V42c6.2-3.4,13.8-1.1,17.4,1.1c3.9,2.3,6.3,2.3,8.1,2.4h0c1.9-0.1,4.2-0.1,8.1-2.4
				c3.6-2.2,11.2-4.4,17.4-1.1V56.3z"/>
			<path class="st0" d="M51.4,75c-5.4-2.9-13.8-0.5-17.4,1.7c-3.9,2.3-6.3,2.3-8.1,2.4h0C24,79,21.7,79,17.8,76.7
				c-3.6-2.2-12-4.6-17.4-1.7V60.7c6.2-3.4,13.8-1.1,17.4,1.1c3.9,2.3,6.3,2.3,8.1,2.4h0c1.9-0.1,4.2-0.1,8.1-2.4
				c3.6-2.2,11.2-4.4,17.4-1.1V75z"/>
			<path class="st0" d="M29,4.7c1.7,0.4,3.4,0.6,5.1,1C35.6,5.3,37.3,4,38.8,5c1.3,0.7-0.5,2.3,1.3,2.6c2.6,0.4,4.1-2.3,6.2-3.4
				c1.7-0.9,3.4-1.9,5.2-2.5l-0.1,0.4c-0.9,5.2-0.8,11,0.1,16.2c-1.4,0.1-2.5-0.6-3.7-1.4c-1.8-1-3.4-2.4-5.1-3.6
				c-1.3-0.6-2.5,0.3-3.5,0.9c-0.3,1.6,0.3,2.7-0.1,4.5c0,0-0.2,1-0.6,0.7c-0.4-0.3-5.1-3.3-5.1-3.3c-1.1,0.3-2.2,0.4-3.3,0.8
				c0.6,1.3,1.2,2.6,1,4c0,0.2-0.2,0.1-0.2,0.1c-2.2-1.1-4.3-2.5-6.5-3.7c-2.9-0.2-6.5,0-9.6-0.5c-0.1,0.9-0.1,1.9-0.5,2.7
				c-0.3,0.4-0.8,0.7-1.3,0.6c-1.1-1.3-1.5-3.1-2.9-4c-3.2-0.5-6.3-1.2-9-2.9c-0.7-0.5-0.9-1.4-0.7-2.2c0.1-0.3,0.5-0.5,0.8-0.4
				c0.4,0.6,0.5,1.6,1.4,1.8c0.9,0.2,2.2,0.4,2.9,0.2C6,12,5.4,11.1,5.2,10.5c-1-1.6-2.8-1.1-4.3-1.1C0.3,9.2,0.1,8.6,0.4,8.2
				c5.4-3,11.8-3.8,18.2-4h2.1c1.2-1.4,2-2.5,3.2-3.9C25.8,1.7,27.4,3.3,29,4.7z"/>
		</g>
	</g>
	<g>
		<path class="st1" d="M95.1,31.4h-4c-1.3-4-2.3-6.7-2.9-8c-0.8-1.6-1.7-2.7-2.7-3.2c-0.8-0.4-2.2-0.6-4.2-0.6c-1.2,0-2.2,0-3.2,0
			c0,4.5,0.1,8.4,0.3,11.7h-3.9c0.2-4.3,0.3-9.1,0.3-14.3c0-4.9-0.1-9.2-0.3-13h3c0.6,0,1.4,0,2.4-0.1c1,0,2.1-0.1,3.3-0.1
			c6.1,0,9.2,2.1,9.2,6.3c0,3.5-1.7,6-5.2,7.4v0.2c1.5,0.5,2.8,1.5,3.7,3.2C91.7,22.5,93.1,26,95.1,31.4z M88.7,11.7
			c0-3.3-2.3-5-6.8-5c-1.6,0-3,0.1-4,0.3c0.1,2.4,0.1,5.7,0.1,9.9c0.8,0,1.6,0,2.4,0C86,17,88.7,15.2,88.7,11.7z"/>
		<path class="st1" d="M115.6,19.1c0,0.6,0,1.4-0.1,2.4l-14.4,0.3c0.1,2,0.9,3.7,2.4,5.1c1.4,1.4,3.3,2.1,5.7,2.1
			c2.1,0,4.1-0.3,6-0.8l-0.4,3c-1.4,0.5-3.3,0.8-5.9,0.8c-3.6,0-6.4-1-8.3-3c-1.9-2-2.9-4.4-2.9-7.3c0-3,0.9-5.7,2.6-7.9
			c1.7-2.2,4.1-3.3,7-3.3c2.7,0,4.7,0.8,6.2,2.4C114.9,14.6,115.6,16.6,115.6,19.1z M112.1,19.1c0-3.9-1.6-5.9-4.9-5.9
			c-3.4,0-5.3,2-5.9,6.1L112.1,19.1z"/>
		<path class="st1" d="M141,8.9l-0.3,2.9c-2.6,0-4,0.4-4.3,1.3v0.2c0.9,1.1,1.3,2.3,1.3,3.7c0,2.2-0.7,4-2.1,5.4
			c-1.4,1.4-3.6,2.1-6.6,2.1c-1.3,0-2.4-0.1-3.2-0.4c-0.7,0.5-1,1.1-1,1.8c0,0.9,0.4,1.5,1.2,1.8c1,0.4,3.2,0.6,6.5,0.6
			c5.3,0,8,1.8,8,5.3c0,2.5-1,4.6-3.1,6.2c-2.1,1.6-4.7,2.5-8,2.5c-3.4,0-5.8-0.6-7.2-1.8c-1.4-1.2-2.1-2.7-2.1-4.4
			c0-1.6,0.4-2.8,1.1-3.8c0.7-1,1.6-1.5,2.6-1.8v-0.2c-1.1-0.5-1.7-1.6-1.7-3.1c0-1.4,0.7-2.6,2.1-3.6v-0.2c-0.7-0.4-1.4-1-2.1-1.8
			c-0.7-0.9-1-1.9-1-3.2c0-2.2,0.7-4,2.2-5.4c1.5-1.4,3.6-2.1,6.4-2.1c2.3,0,4.1,0.4,5.4,1.2h0.2c0.4-2.4,1.6-3.5,3.5-3.5
			C139.7,8.5,140.5,8.6,141,8.9z M137.3,35c0-1.3-0.5-2.2-1.4-2.8c-1-0.5-2.8-0.8-5.4-0.8c-1.8,0-3.4-0.1-4.9-0.3
			c-1.7,0.8-2.6,2-2.6,3.6c0,3.4,2.2,5.1,6.7,5.1c2.3,0,4.2-0.5,5.5-1.4C136.6,37.6,137.3,36.4,137.3,35z M134.4,17.8
			c0-1.5-0.5-2.7-1.5-3.5c-1-0.8-2.2-1.2-3.7-1.2c-1.4,0-2.6,0.4-3.5,1.2c-1,0.8-1.4,1.9-1.4,3.4c0,1.5,0.5,2.7,1.5,3.5
			c1,0.8,2.2,1.2,3.7,1.2c1.4,0,2.6-0.4,3.5-1.2C133.9,20.3,134.4,19.2,134.4,17.8z"/>
		<path class="st1" d="M150,31.4h-3.8c0.2-2.8,0.3-6,0.3-9.6c0-4-0.2-7.4-0.7-10.2l4.2-0.6c-0.2,2.9-0.3,6.5-0.3,10.7
			C149.7,25.2,149.8,28.4,150,31.4z M150.9,5.2c0,0.7-0.2,1.3-0.7,1.9c-0.5,0.5-1.1,0.8-1.9,0.8c-0.7,0-1.3-0.2-1.7-0.7
			c-0.4-0.5-0.6-1-0.6-1.6c0-0.7,0.2-1.3,0.7-1.8c0.5-0.5,1.1-0.8,2-0.8c0.7,0,1.2,0.2,1.6,0.7C150.7,4.1,150.9,4.6,150.9,5.2z"/>
		<path class="st1" d="M174.7,20.8c0,3.6-1,6.4-3.1,8.4c-2.1,2-4.5,3-7.3,3c-2.6,0-4.8-0.9-6.7-2.7c-1.9-1.8-2.8-4.3-2.8-7.5
			c0-3.6,1-6.4,3.1-8.4c2.1-2,4.5-3,7.3-3c2.6,0,4.8,0.9,6.7,2.7S174.7,17.6,174.7,20.8z M171.1,21.6c0-2.2-0.5-4.1-1.6-5.8
			c-1.1-1.7-2.7-2.5-4.7-2.5c-2,0-3.6,0.8-4.6,2.4c-1.1,1.6-1.6,3.5-1.6,5.6c0,2.2,0.5,4.1,1.6,5.8c1.1,1.7,2.7,2.5,4.7,2.5
			c2,0,3.6-0.8,4.6-2.4C170.5,25.6,171.1,23.7,171.1,21.6z"/>
		<path class="st1" d="M197.3,31.4h-3.8c0.3-3.7,0.5-7.7,0.5-12c0-2.2-0.4-3.6-1.3-4.4c-0.9-0.8-2.1-1.2-3.7-1.2
			c-2,0-3.8,0.7-5.5,2.2c0,4.8,0,9.9,0.1,15.5h-3.8c0.2-4.8,0.4-8.2,0.4-10.3c0-3.3-0.3-6.4-0.9-9.5l3.7-0.5l0.4,2.6h0.2
			c2.1-1.9,4.3-2.8,6.6-2.8c2.3,0,4.1,0.5,5.4,1.5c1.3,1,1.9,2.9,1.9,5.5c0,0.3,0,0.8,0,1.6c0,0.8,0,1.3,0,1.6
			C197.2,23.3,197.2,26.8,197.3,31.4z"/>
		<path class="st1" d="M94.1,47.9c0,1.2-1.8,5.7-5.3,13.6c-3.5,7.9-5.3,12.5-5.3,13.7h-2.7c0-1.1-1.7-5.6-5-13.6
			c-3.3-8-5-12.5-5-13.7h4c0,1.1,1.3,5,3.8,11.6c2.5,6.7,3.8,10.5,3.8,11.5h0.2c0-1.1,1.3-4.9,3.9-11.4c2.6-6.5,3.9-10.4,3.9-11.7
			H94.1z"/>
		<path class="st1" d="M112.8,75.2l-3.3,0.1c-0.2-0.7-0.3-1.3-0.3-1.9H109c-1.7,1.6-4.1,2.3-7,2.3c-1.6,0-3-0.5-4.2-1.4
			c-1.2-0.9-1.7-2.3-1.7-4c0-2.2,0.9-3.9,2.7-5.2c1.8-1.3,5.2-2,10.1-2.1c0-0.3,0.1-0.7,0.1-1.2c0-1.7-0.5-2.9-1.4-3.4
			c-0.9-0.6-2.3-0.9-4.2-0.9c-2.2,0-4.4,0.3-6.5,0.8l0.4-2.9c2.1-0.6,4.5-0.9,7.2-0.9c2.5,0,4.4,0.5,5.8,1.5c1.4,1,2,2.8,2,5.3
			c0,0.7,0,1.8-0.1,3.6c-0.1,1.7-0.1,2.9-0.1,3.4C112.2,70.9,112.4,73.2,112.8,75.2z M103,49c0,0.6-0.2,1.2-0.6,1.7
			c-0.4,0.5-1,0.7-1.8,0.7c-0.6,0-1.1-0.2-1.5-0.6c-0.3-0.4-0.5-0.9-0.5-1.5c0-0.6,0.2-1.2,0.6-1.6c0.4-0.5,1-0.7,1.8-0.7
			c0.6,0,1.1,0.2,1.5,0.6C102.8,47.9,103,48.4,103,49z M109.1,71.1c-0.1-2.1-0.1-4-0.1-5.7c-2.6,0-4.6,0.2-6,0.6
			c-2.3,0.7-3.4,2-3.4,4c0,1.9,1.3,2.9,4,2.9C105.9,72.8,107.7,72.3,109.1,71.1z M110.9,49c0,0.6-0.2,1.2-0.6,1.7
			c-0.4,0.5-1,0.7-1.8,0.7c-0.6,0-1.1-0.2-1.5-0.6c-0.3-0.4-0.5-0.9-0.5-1.5c0-0.6,0.2-1.2,0.6-1.6c0.4-0.5,1-0.7,1.8-0.7
			c0.6,0,1.1,0.2,1.5,0.6C110.7,47.9,110.9,48.4,110.9,49z"/>
		<path class="st1" d="M131.4,69.5c0,4.1-2.6,6.1-7.8,6.1c-2.3,0-4.5-0.2-6.5-0.7l0.6-3.1c1.8,0.7,3.8,1,5.9,1c3,0,4.6-0.9,4.6-2.6
			c0-0.8-0.3-1.5-1-2c-0.7-0.5-1.8-1.1-3.4-1.7c-2-0.8-3.4-1.5-4.3-2.3c-1.3-1.1-2-2.4-2-3.9c0-1.6,0.6-3,1.8-4.1
			c1.2-1.1,3-1.7,5.5-1.7c2.4,0,4.3,0.2,5.8,0.6l-0.7,3c-1.5-0.6-3.3-0.9-5.2-0.9c-2.7,0-4,0.8-4,2.3c0,0.8,0.3,1.4,0.9,1.9
			c0.6,0.5,1.8,1.1,3.5,1.8c1.9,0.7,3.3,1.5,4.2,2.2C130.8,66.7,131.4,68,131.4,69.5z"/>
		<path class="st1" d="M147.6,72.3l-0.3,2.7c-1.1,0.4-2.1,0.6-3.1,0.6c-2.5,0-4.2-0.6-5.2-1.9c-0.9-1.3-1.4-3.6-1.4-6.9
			c0-2.1,0-4.9,0-8.4c-0.8,0-1.9,0-3.5,0.1l0.1-3c1.3,0.1,2.5,0.1,3.6,0.1c0-0.8,0.1-2.8,0.2-6l3.3-0.3c-0.2,2.9-0.4,5-0.4,6.3
			c1.4,0,3.4-0.1,6-0.2l-0.1,3.1c-2.5-0.1-4.5-0.1-6.1-0.1c0,2.1,0,4.5,0,7.1c0,2.9,0.3,4.8,0.9,5.7c0.6,0.9,1.7,1.4,3.4,1.4
			C145.7,72.7,146.5,72.6,147.6,72.3z"/>
		<path class="st1" d="M168.7,62.9c0,0.6,0,1.4-0.1,2.4l-14.4,0.3c0.1,2,0.9,3.7,2.4,5.1c1.4,1.4,3.3,2.1,5.7,2.1
			c2.1,0,4.1-0.3,6-0.8l-0.4,3c-1.4,0.5-3.3,0.8-5.9,0.8c-3.6,0-6.4-1-8.3-3c-1.9-2-2.9-4.4-2.9-7.3c0-3,0.9-5.7,2.6-7.9
			c1.7-2.2,4.1-3.3,7-3.3c2.7,0,4.7,0.8,6.2,2.4C168,58.3,168.7,60.4,168.7,62.9z M165.2,62.9c0-3.9-1.6-5.9-4.9-5.9
			c-3.4,0-5.3,2-5.9,6.1L165.2,62.9z"/>
		<path class="st1" d="M186.2,55.3l-0.9,3.3c-1.1-0.4-2.1-0.6-3-0.6c-2.6,0-4.3,1.3-5.1,3.8c0,6.4,0,10.9,0.1,13.5h-3.7
			c0.2-4.4,0.3-7.9,0.3-10.3c0-3.3-0.3-6.5-1-9.5l3.7-0.5c0.3,1.5,0.4,2.6,0.4,3.1h0.2c1.5-2.2,3.3-3.3,5.3-3.3
			C183.5,54.6,184.7,54.8,186.2,55.3z"/>
		<path class="st1" d="M207.4,75.2h-3.8c0.3-3.7,0.5-7.7,0.5-12c0-2.2-0.4-3.6-1.3-4.4c-0.9-0.8-2.1-1.2-3.7-1.2
			c-2,0-3.8,0.7-5.5,2.2c0,4.8,0,9.9,0.1,15.5h-3.8c0.2-4.8,0.4-8.2,0.4-10.3c0-3.3-0.3-6.4-0.9-9.5l3.7-0.5l0.4,2.6h0.2
			c2.1-1.9,4.3-2.8,6.6-2.8c2.3,0,4.1,0.5,5.4,1.5c1.3,1,1.9,2.9,1.9,5.5c0,0.3,0,0.8,0,1.6c0,0.8,0,1.3,0,1.6
			C207.3,67.1,207.3,70.6,207.4,75.2z"/>
		<path class="st1" d="M231.2,64.6c0,3.6-1,6.4-3.1,8.4c-2.1,2-4.5,3-7.3,3c-2.6,0-4.8-0.9-6.7-2.7c-1.9-1.8-2.8-4.3-2.8-7.5
			c0-3.6,1-6.4,3.1-8.4c2.1-2,4.5-3,7.3-3c2.6,0,4.8,0.9,6.7,2.7S231.2,61.4,231.2,64.6z M227.5,65.4c0-2.2-0.5-4.1-1.6-5.8
			c-1.1-1.7-2.7-2.5-4.7-2.5c-2,0-3.6,0.8-4.6,2.4c-1.1,1.6-1.6,3.5-1.6,5.6c0,2.2,0.5,4.1,1.6,5.8c1.1,1.7,2.7,2.5,4.7,2.5
			c2,0,3.6-0.8,4.6-2.4C227,69.3,227.5,67.5,227.5,65.4z"/>
		<path class="st1" d="M248.7,55.3l-0.9,3.3c-1.1-0.4-2.1-0.6-3-0.6c-2.6,0-4.3,1.3-5.1,3.8c0,6.4,0,10.9,0.1,13.5H236
			c0.2-4.4,0.3-7.9,0.3-10.3c0-3.3-0.3-6.5-1-9.5l3.7-0.5c0.3,1.5,0.4,2.6,0.4,3.1h0.2c1.5-2.2,3.3-3.3,5.3-3.3
			C245.9,54.6,247.2,54.8,248.7,55.3z"/>
		<path class="st1" d="M264.8,55.3l-0.9,3.3c-1.1-0.4-2.1-0.6-3-0.6c-2.6,0-4.3,1.3-5.1,3.8c0,6.4,0,10.9,0.1,13.5h-3.7
			c0.2-4.4,0.3-7.9,0.3-10.3c0-3.3-0.3-6.5-1-9.5l3.7-0.5c0.3,1.5,0.4,2.6,0.4,3.1h0.2c1.5-2.2,3.3-3.3,5.3-3.3
			C262,54.6,263.3,54.8,264.8,55.3z"/>
		<path class="st1" d="M271.4,75.2h-4c0.3-4.6,0.4-9.8,0.4-15.6c0-5.6-0.2-10.3-0.6-13.9l4.3-0.2c-0.3,3.8-0.4,8.5-0.4,14.1
			C271,65.3,271.1,70.5,271.4,75.2z"/>
		<path class="st1" d="M292.9,75.2l-3.3,0.1c-0.2-0.7-0.3-1.3-0.3-1.9h-0.2c-1.7,1.6-4.1,2.3-7,2.3c-1.6,0-3-0.5-4.2-1.4
			c-1.2-0.9-1.7-2.3-1.7-4c0-2.2,0.9-3.9,2.7-5.2c1.8-1.3,5.2-2,10.1-2.1c0-0.3,0.1-0.7,0.1-1.2c0-1.7-0.5-2.9-1.4-3.4
			c-0.9-0.6-2.3-0.9-4.2-0.9c-2.2,0-4.4,0.3-6.5,0.8l0.4-2.9c2.1-0.6,4.5-0.9,7.2-0.9c2.5,0,4.4,0.5,5.8,1.5c1.4,1,2,2.8,2,5.3
			c0,0.7,0,1.8-0.1,3.6c-0.1,1.7-0.1,2.9-0.1,3.4C292.3,70.9,292.5,73.2,292.9,75.2z M289.2,71.1c-0.1-2.1-0.1-4-0.1-5.7
			c-2.6,0-4.6,0.2-6,0.6c-2.3,0.7-3.4,2-3.4,4c0,1.9,1.3,2.9,4,2.9C286,72.8,287.8,72.3,289.2,71.1z"/>
		<path class="st1" d="M316,75.2h-3.8c0.3-3.7,0.5-7.7,0.5-12c0-2.2-0.4-3.6-1.3-4.4c-0.9-0.8-2.1-1.2-3.7-1.2c-2,0-3.8,0.7-5.5,2.2
			c0,4.8,0,9.9,0.1,15.5h-3.8c0.2-4.8,0.4-8.2,0.4-10.3c0-3.3-0.3-6.4-0.9-9.5l3.7-0.5l0.4,2.6h0.2c2.1-1.9,4.3-2.8,6.6-2.8
			c2.3,0,4.1,0.5,5.4,1.5c1.3,1,1.9,2.9,1.9,5.5c0,0.3,0,0.8,0,1.6c0,0.8,0,1.3,0,1.6C315.9,67.1,315.9,70.6,316,75.2z"/>
		<path class="st1" d="M339.6,75.2l-3.1,0.1c-0.1-0.6-0.2-1.2-0.2-1.9H336c-1.5,1.6-3.6,2.4-6.5,2.4c-2.7,0-4.8-1-6.3-2.9
			c-1.6-1.9-2.4-4.3-2.4-7c0-3.1,0.9-5.8,2.6-8c1.7-2.2,4.2-3.4,7.4-3.4c2.3,0,3.9,0.5,4.9,1.4h0.2c0-3.5-0.1-6.9-0.3-10.2l4-0.1
			c-0.3,3.6-0.4,8.2-0.4,13.9C339.1,65.4,339.3,70.6,339.6,75.2z M336.2,71c0-4.3-0.1-8.5-0.4-12.6c-1.1-0.9-2.5-1.4-4.2-1.4
			c-2.4,0-4.1,0.8-5.3,2.4c-1.2,1.6-1.8,3.5-1.8,5.9c0,2.1,0.6,3.9,1.7,5.4c1.1,1.5,2.7,2.2,4.6,2.2C333.3,72.9,335.1,72.3,336.2,71
			z"/>
	</g>
</g>
</svg>
