<?xml version="1.0" encoding="utf-8"?>
<!-- Generator: Adobe Illustrator 24.2.1, SVG Export Plug-In . SVG Version: 6.00 Build 0)  -->
<svg version="1.1" id="Layer_1" xmlns="http://www.w3.org/2000/svg" xmlns:xlink="http://www.w3.org/1999/xlink" x="0px" y="0px"
	 viewBox="0 0 103.2 94.4" enable-background="new 0 0 103.2 94.4" xml:space="preserve">
<g>
	<ellipse opacity="0.5" fill="#E4EBF7" cx="29.3" cy="76.7" rx="12.9" ry="5.1"/>
	<polygon opacity="0.5" fill="#E4EBF7" points="48.6,42.9 3.4,64.7 56,91 101.2,69.2 	"/>
	<polygon fill="#CDE2F4" points="0.8,61.2 0.8,63.3 53.4,89.6 87.4,73 87.4,70.9 	"/>
	<polygon fill="#E4EBF7" points="86.5,71.4 33.7,45 33.7,3 86.5,29.3 	"/>
	<polygon fill="#D9E9F7" points="86.5,29.3 33.7,3 34.7,2.5 87.4,28.8 	"/>
	<polygon fill="#CDE2F4" points="86.5,71.4 86.5,29.3 87.4,28.8 87.4,70.9 	"/>
	<polygon fill="#FFFFFF" points="35.7,11 84.4,35.4 84.4,68.4 35.7,44.1 	"/>
	<polygon fill="#E4EBF7" points="57.9,25.2 58.5,25.5 58.5,54.2 57.9,53.9 	"/>
	<polygon fill="#E4EBF7" points="35.7,27.2 84.4,51.5 84.4,52.3 35.7,27.9 	"/>
	<g>

			<ellipse transform="matrix(0.7071 -0.7071 0.7071 0.7071 3.6746 49.6288)" fill="#7F8790" cx="61.7" cy="20.4" rx="1.6" ry="2.1"/>

			<ellipse transform="matrix(0.7071 -0.7071 0.7071 0.7071 3.5823 49.6024)" fill="#5F6A73" cx="61.7" cy="20.5" rx="1.1" ry="1.5"/>

			<ellipse transform="matrix(0.7071 -0.7071 0.7071 0.7071 3.8281 46.6649)" fill="#5F6A73" cx="58.2" cy="18.7" rx="0.5" ry="0.7"/>
		<ellipse transform="matrix(0.7071 -0.7071 0.7071 0.7071 3.845 49.2175)" fill="#FFFFFF" cx="61.3" cy="20" rx="0.4" ry="0.6"/>
	</g>
	<polygon fill="#8AACDA" points="33.8,45.1 0.8,61.2 53.4,87.5 86.5,71.4 	"/>
	<polygon fill="#7391B7" points="31.1,61.6 19.6,67.1 37.8,76.2 49.3,70.7 	"/>
	<g>
		<polygon fill="#CDE2F4" points="26.5,55.7 28.4,54.7 30.9,56 28.9,56.9 		"/>
		<polygon fill="#CDE2F4" points="29.8,57.4 31.8,56.5 34.3,57.7 32.3,58.6 		"/>
		<polygon fill="#CDE2F4" points="33.2,59.1 35.2,58.2 37.6,59.4 35.7,60.3 		"/>
		<polygon fill="#CDE2F4" points="36.6,60.8 38.5,59.9 51.1,66.2 49.2,67.2 		"/>
		<polygon fill="#CDE2F4" points="50.1,67.6 52,66.7 54.5,67.9 52.5,68.9 		"/>
		<polygon fill="#CDE2F4" points="56.8,71 56.6,70.9 53.4,69.3 55.4,68.4 58.8,70.1 61.7,68.7 64.1,69.9 61.2,71.3 61.2,71.3
			59.3,72.3 		"/>
		<polygon fill="#CDE2F4" points="60.2,72.7 62.1,71.8 64.6,73 62.7,74 		"/>
		<polygon fill="#CDE2F4" points="29.4,54.3 31.3,53.3 37.2,56.3 35.2,57.2 		"/>
		<polygon fill="#CDE2F4" points="36.1,57.7 38.1,56.7 40.5,58 38.6,58.9 		"/>
		<polygon fill="#CDE2F4" points="39.5,59.4 41.4,58.4 43.9,59.7 41.9,60.6 		"/>
		<polygon fill="#CDE2F4" points="42.8,61.1 44.8,60.1 47.3,61.4 45.3,62.3 		"/>
		<polygon fill="#CDE2F4" points="46.2,62.8 48.2,61.8 50.7,63.1 48.7,64 		"/>
		<polygon fill="#CDE2F4" points="49.6,64.5 51.5,63.5 54,64.8 52.1,65.7 		"/>
		<polygon fill="#CDE2F4" points="53,66.2 54.9,65.3 57.4,66.5 55.4,67.4 		"/>
		<polygon fill="#CDE2F4" points="56.3,67.9 58.3,67 60.8,68.2 58.8,69.1 		"/>
		<polygon fill="#CDE2F4" points="63.1,71.3 65,70.4 67.5,71.6 65.6,72.5 		"/>
		<polygon fill="#CDE2F4" points="32.2,52.9 34.2,51.9 36.7,53.1 34.7,54.1 		"/>
		<polygon fill="#CDE2F4" points="35.6,54.6 37.6,53.6 40.1,54.8 38.1,55.8 		"/>
		<polygon fill="#CDE2F4" points="39,56.3 41,55.3 43.4,56.5 41.5,57.5 		"/>
		<polygon fill="#CDE2F4" points="42.4,58 44.3,57 46.8,58.2 44.8,59.2 		"/>
		<polygon fill="#CDE2F4" points="45.7,59.7 47.7,58.7 50.2,59.9 48.2,60.9 		"/>
		<polygon fill="#CDE2F4" points="49.1,61.4 51.1,60.4 53.6,61.7 51.6,62.6 		"/>
		<polygon fill="#CDE2F4" points="52.5,63.1 54.4,62.1 56.9,63.4 55,64.3 		"/>
		<polygon fill="#CDE2F4" points="55.9,64.8 57.8,63.8 60.3,65.1 58.3,66 		"/>
		<polygon fill="#CDE2F4" points="59.2,66.5 61.2,65.5 67,68.5 65.1,69.4 		"/>
		<polygon fill="#CDE2F4" points="66,69.9 67.9,68.9 70.4,70.2 68.5,71.1 		"/>
		<polygon fill="#CDE2F4" points="35.1,51.4 37.1,50.5 39.6,51.7 37.6,52.7 		"/>
		<polygon fill="#CDE2F4" points="38.5,53.1 40.5,52.2 43,53.4 41,54.4 		"/>
		<polygon fill="#CDE2F4" points="41.9,54.8 43.9,53.9 46.3,55.1 44.4,56.1 		"/>
		<polygon fill="#CDE2F4" points="45.3,56.5 47.2,55.6 49.7,56.8 47.7,57.8 		"/>
		<polygon fill="#CDE2F4" points="48.6,58.2 50.6,57.3 53.1,58.5 51.1,59.5 		"/>
		<polygon fill="#CDE2F4" points="52,60 54,59 56.5,60.2 54.5,61.2 		"/>
		<polygon fill="#CDE2F4" points="55.4,61.7 57.3,60.7 59.8,61.9 57.9,62.9 		"/>
		<polygon fill="#CDE2F4" points="58.8,63.4 60.7,62.4 63.2,63.6 61.2,64.6 		"/>
		<polygon fill="#CDE2F4" points="62.1,65.1 64.1,64.1 66.6,65.3 64.6,66.3 		"/>
		<polygon fill="#CDE2F4" points="65.5,66.8 67.5,65.8 69.9,67 68,68 		"/>
		<polygon fill="#CDE2F4" points="68.9,68.5 70.8,67.5 73.3,68.7 71.4,69.7 		"/>
	</g>
	<g>
		<g>
			<path fill="#E4EBF7" d="M26,75c-0.6,0.1-1.7,0-1.7-1.6c0-1.6,3.6-3.3,3.9-3.2s1.9,0.2,0.9,1.3c-1,1.1-1.8,1.1-2.1,1.9
				C26.9,74.2,26.8,74.9,26,75z"/>
			<path fill="#666D73" d="M26,74.3c0.7-0.1,1.2-1.1,1.9-1.6c2.2-1.7,1.4-2,1.5-2c0.2,0.2,0.3,0.5-0.2,1c-1,1.1-1.2,1.1-1.7,1.8
				C27,74,26.8,74.9,26,75c-0.6,0.1-1.7,0-1.7-1.6c0-0.1,0-0.2,0-0.3C24.6,74.3,25.5,74.4,26,74.3z"/>
			<path fill="#CFAC8D" d="M27.8,72.1c0,0-0.3-2.9,0-5.7s-3.7-1-3.7-1s-1,5.1,0.1,8.2C24.4,74.2,27.2,74.1,27.8,72.1z"/>
			<path fill="#B48E6C" d="M21.5,63.6c0,0,2.8-2.9,4.3-2.2c2.5,1.1,0.9,4.1,0.8,4.8c-0.3,2.1-0.5,5.3,0.2,7.3
				c-1,0.6-2.4,0.5-2.5,0.1c-0.5-1.3-0.5-3.3-0.4-5c0.1-1.1-3.2-1.6-3.1-2.3C20.8,65.3,21.5,63.6,21.5,63.6z"/>
		</g>
		<g>
			<path fill="#666D73" d="M15.8,81.8c0.1,0,0.2,0,0.2-0.1c0.1-0.1,0-0.3-0.1-0.3l-2.5-1.3C13.2,80,13,79.8,13,79.5
				c0-0.3,0.1-0.5,0.4-0.6l6.7-3.4c0.1,0,0.1-0.1,0.1-0.2V61.6c0-0.1,0-0.2-0.1-0.2c-0.1,0-0.2,0-0.2,0l-6.3,3.1
				c-0.1,0.1-0.2,0.2-0.1,0.3c0.1,0.1,0.2,0.2,0.3,0.1l6-3v13.1l-6.6,3.3c-0.4,0.2-0.6,0.6-0.6,1s0.2,0.8,0.6,1l2.5,1.3
				C15.8,81.8,15.8,81.8,15.8,81.8z"/>
		</g>
		<g>
			<path fill="#8AACDA" d="M11.6,71.1v-1l18.1-0.4V70c0,0.3-0.2,0.5-0.4,0.7L20,75.3L11.6,71.1z"/>
		</g>
		<g>
			<g>
				<path fill="#D9E9F7" d="M11.6,70.6L21,66c0.7-0.4,1.6-0.4,2.3,0l6.2,3.1c0.5,0.2,0.5,0.9,0,1.1l-9.2,4.6L11.6,70.6z"/>
			</g>
		</g>
		<path fill="#E4EBF7" d="M36.3,73.4c0,0.3-0.2,1.2-1.2,1.3c-1,0.1-2.3,0.2-2.3,0.2v0.4c0,0-1.8,0.7-2.2-0.4c-0.4-1.1-0.2-1.3,0-1.6
			c0.6-0.6,4-1.2,4.7-1.1C35.8,72.5,36.2,72.9,36.3,73.4z"/>
		<path fill="#666D73" d="M30.5,74.5c0.4,1.1,2.2,0.4,2.2,0.4v-0.4c0,0,1.3-0.1,2.3-0.2c0.7-0.1,1.1-0.6,1.2-1c0,0.1,0,0.1,0,0.2
			c0,0.3-0.2,1.2-1.2,1.3c-1,0.1-2.3,0.2-2.3,0.2v0.4c0,0-1.8,0.7-2.2-0.4c-0.3-0.8-0.2-1.1,0-1.3C30.6,73.8,30.4,74.1,30.5,74.5z"
			/>
		<path fill="#CFAC8D" d="M18.5,70.9C18.5,70.9,18.5,70.9,18.5,70.9c0.2,0.2,0.6,1.7,2.3,1.8c2.4,0.2,4.2-2,5.1-2.6
			c1-0.6,3.7-1.6,3.7-1.6l1,0.5v1l-0.4,0.2c0.8,2.4-0.5,3.1,0.3,4.5c0.4,1.1,1.7-1,2.6-1.4c0.8-0.3-0.1-2.2-0.1-4
			c0-1.1-0.1-1.9-0.2-3c0-0.5-0.1-0.9-0.2-1.4c-0.1-0.2-0.1-0.5-0.3-0.6c-0.1-0.1-0.2-0.2-0.4-0.2c-0.3,0-0.6-0.1-0.9-0.1
			c-1-0.2-8,1.8-10.3,3.6C20.1,67.5,18.5,70.6,18.5,70.9z"/>
		<path fill="#B48E6C" d="M21.2,67.5c0.2,0.2,0,2.7,1.6,2.7c2,0,2.6-1,3.5-1.5c1.5-0.9,4.2-1.5,4.2-1.5l0.6,1.7
			c0.8,2.4-0.8,3.3,0,4.6c0.3,0.9,2.2-0.4,1.9-0.3c-0.9,0.4-2.2,2.5-2.6,1.4c-0.8-1.4,0.4-3.1-0.6-4.7v-0.4c0,0,0-0.4-0.5-0.7
			c0,0-2.4,0.6-3.4,1.2c-0.9,0.5-2.8,2.8-5.1,2.6c-1.6-0.1-2-1.6-2.3-1.8c0,0,0,0,0,0C18.5,70.6,21.2,67.5,21.2,67.5z"/>
		<g>
			<path fill="#FDCDA9" d="M15.8,55.8c0,0,0.5-0.8,0-1.6c-0.5-0.8,4-4,4.5-2.6c0.5,1.3,0.3,3.7-0.3,4c-0.5,0.3-0.8-0.3-1.1,0
				c-0.3,0.3-0.3,1.1-0.3,1.6C18.7,57.6,15.8,55.8,15.8,55.8z"/>
			<g>
				<g>
					<path fill="#D7A580" d="M17.9,55.1c0.4-0.3,0.8-0.1,1.1-0.4c0.3-0.3,0.4,0.9,1,0.6c0.3-0.1,0.1,0.2,0.1,0.2
						c-0.5,0.3-0.8-0.3-1.1,0c-0.3,0.3-0.3,1.1-0.3,1.6c0,0.3-1.9,0.3-2.8-0.1c-0.6-0.3-0.1-1.2-0.1-1.2s0.3-0.4,0.2-1.2
						C16.5,55.3,17.5,55.3,17.9,55.1z"/>
				</g>
			</g>
			<path fill="#754C29" d="M16.3,55c-0.5-0.3-2.4-1.6-0.8-3.7c1.6-2.1,4.8-1.6,4.8-1.6L20,50.2h0.8l-0.5,0.5l0.5,0.3
				c0,0-2.6,2.5-2.1,3c-0.3,0-0.4-0.7-0.6-0.7c-0.6,0.1-0.6,0.6-0.6,0.9c0,0.4,1,0.6,0,1C17.2,55.5,16.9,55.3,16.3,55z"/>
		</g>
		<g>
			<path fill="#FDCDA9" d="M24.7,62.7c-0.5,0.3-2.4,0.8-2.7,0.4c-0.2-0.4-1-1-0.5-1.1c0.9-0.2,1.1-0.8,2.3-0.9
				c0.5,0,1.4,0.5,1.3,0.6s-1.1-0.4-1.4,0.5c-0.1,0.3,0.5,0.1,1,0.1C25.3,62.3,24.7,62.7,24.7,62.7z"/>
			<path fill="#447ABE" d="M16.5,57c-0.3-0.4-1.7-1.4-3,0.3c-1.9,2.4,2.1,7.4,2.6,7.7c0.5,0.3,6.6-1,6.3-1.8c0-0.1-0.4-1.3-0.7-1.4
				c-2-0.5-7,0.4-6.5,0C15.8,61.3,16.5,57,16.5,57z"/>
			<g>
				<g>
					<g>
						<path fill="#2E66B1" d="M16.1,64.2c0.5,0.3,4.9-0.7,6.1-1.5c0.1,0.2,0.2,0.5,0.2,0.5c0.2,0.8-5.8,2.1-6.3,1.8
							c-0.4-0.2-2.5-2.9-2.2-5.2C14,61.8,15.7,64,16.1,64.2z"/>
					</g>
				</g>
			</g>
		</g>
		<path fill="#447ABE" d="M15.3,57.2c-0.8,0.2-3.6-0.4-1,5.3c1.1,2.4,2.7,2.3,2,6c-0.7,3.6,4.1,2.4,4.6,2.3c1.9-0.3,0-1.6,3-3.2
			c0,0-1.4-9.2-5.2-10.5C17.2,56.5,15.3,57.2,15.3,57.2z"/>
		<g>
			<g>
				<g>
					<path fill="#2E66B1" d="M19.6,71.1c-3-0.1-2-4-2.5-7c1.9,0.5,1.2-1.5,1.6-2.4c0.1-0.2,0.1-0.1,0-0.3c-0.8-1.4-0.7-3.2-1.8-4.3
						c-0.3-0.3,0.3-0.2,0.3-0.2s0-0.4,1.4,0.1c0.9,0.3,2.2,1.5,2.7,2.3c1.8,2.5,0.7,5.6,3.8,7.4C22.7,67.6,22.6,71.2,19.6,71.1z"/>
				</g>
			</g>
		</g>
		<path fill="#FFFEF9" d="M15.3,56.4c0-0.2,0.4-0.6,0.4-0.6c-0.1,0.6,0.4,0.9,1.9,0.9c0.4,0,1-0.3,1.3-0.2c0.2,0,0.2,0.4,0.5,0.8
			c-0.4,0.1-0.7,0.2-1.2,0.2C16.5,57.5,15.3,57.1,15.3,56.4z"/>
		<g>
			<path fill="#666D73" d="M20,83.5c0.6,0,1.2-0.1,1.8-0.4l6.7-3.4c0.1,0,0.1-0.1,0.1-0.2V65.8c0-0.1,0-0.2-0.1-0.2
				c-0.1,0-0.2,0-0.2,0L22,68.8c-0.1,0.1-0.2,0.2-0.1,0.3c0.1,0.1,0.2,0.2,0.3,0.1l6-3v13.1l-6.6,3.3c-1,0.5-2.2,0.5-3.1,0l-2.5-1.3
				c-0.1-0.1-0.3,0-0.3,0.1c-0.1,0.1,0,0.3,0.1,0.3l2.5,1.3C18.8,83.3,19.4,83.5,20,83.5z"/>
		</g>
		<g>
			<path fill="#FDCDA9" d="M27.1,65.4c0.2,0,0.8-0.3,1.6-0.5c0.4-0.1,1.2-0.1,1.4-0.3c0,0,0.2-0.2,0.1-0.2c-0.1-0.1-0.6-0.1-0.9-0.2
				s0.6-0.2,0.9-0.2c0.2-0.1,0-0.6-0.3-0.8C29.5,63,29.1,62.8,28,63c-0.7,0.1-1.1,1-1.4,1.4C26.2,64.9,26.6,65.3,27.1,65.4z
				 M29.3,63.6l0.6,0.1l-0.5,0L29.3,63.6z"/>
			<path fill="#447ABE" d="M19.2,58.7c-2.3,0.6,1.1,9.9,2.5,10.1c1.6,0.3,4.9-2.6,5.6-3.1c0.6-0.4-0.3-1.8-0.8-1.5
				c-1.8,1.1-2.5,1.4-3.2,1.5C22.6,63.4,21.5,57.7,19.2,58.7z"/>
			<path fill="#2E66B1" d="M22.5,67.6c1.6,0.3,4.3-2.2,5-2.7c0.1,0.3,0.1,0.6-0.1,0.8c-0.7,0.5-4,3.3-5.6,3.1
				c-1.7-0.2-2.7-6.1-2-8.5C19.5,62.9,21.4,67.4,22.5,67.6z"/>
		</g>
		<g>
			<polygon fill="#8AACDA" points="10.4,59.9 10.4,59.9 20,75.3 20.5,74.7 19.2,63.9 11,59.8 			"/>
		</g>
		<g>
			<polygon fill="#C7DFF4" points="10.4,59.9 11.6,71.1 20,75.3 18.7,64.1 			"/>
		</g>
	</g>
	<g>
		<path fill="#D7A580" d="M49.4,30.2c-0.1-0.1-0.8-0.7-1.1-1.4c-0.2-0.6-0.1-1.3,0.1-2.6c0.5-3-3.3-2.1-3.3-2.1s0.5,1.9,0.1,3
			c-0.1,0.2-1,0.2-1.4,0.3c-1.8,0.5,1.8,2.8,2.6,3S49.4,30.2,49.4,30.2z"/>
		<path fill="#4178BC" d="M49.1,29.5c0,0-2.1,1.2-4.4-2.3c-0.2-0.3-2.7,0.7-3.2,1.5l9.7,4.9C51.2,33.5,50.7,30.7,49.1,29.5z"/>
		<path fill="#FDCDA8" d="M45.2,25.1c0.3,1.4,1.6,2.4,2.6,2.2s1.4-1.4,1.2-2.9c-0.8-5.5-3.2-2.7-4.3-2.4
			C43.7,22.2,44.9,23.7,45.2,25.1z"/>
		<path opacity="0.5" fill="#DBA986" d="M46.8,21c0.9-0.1,1.8,0.4,2.2,3.4c0.2,1.4-0.1,2.6-1.2,2.9c-0.3,0.1-0.6,0-1-0.1
			C46.9,25.3,46.5,22.6,46.8,21z"/>
		<path fill="#754C29" d="M50.1,30.4c0.1,0.2-2.5-0.9-1.8-3.4c0.7-0.8,1.1-1.8,0.1-4.5c-0.6,0.3-1.3,0.3-1.3,0.3s0.9-0.1,1.1-0.6
			c-0.6,0.3-0.8,0.3-1.3,0.3s-1.1-0.4-1.4-0.3c-0.4,0.2-1,0.8-0.1,3.3c0.7,1.4-0.3,1.8-1.8,1.8c-0.3,0,0.6-1.4,0.6-2.6
			c0-1.2-1-6.4,1.5-6.3c2.6,0.2,4.3,4,4,6.7C49.3,27.8,49.8,29.8,50.1,30.4z"/>
	</g>
	<g>
		<path fill="#A9734C" d="M66.9,37.7c0.6-0.6,1.3-0.6,2.6-0.6s-1.3-1.9-0.6-2.6s2.6-2.6,3.2-1.9c0.6,0.6,3.5,3.4,2.6,4.5
			C72.1,40.3,76,41,76,42.3c0,1.3-4.5-0.6-4.5-0.6L66.9,37.7z"/>
		<path fill="#61A4D9" d="M64.7,40c0,0,1.5-3.1,3.3-3.1c0,0,0.5,1.8,3.2,3.5c2.7,1.7,4.7,1.2,4.7,1.2c0.8,1,1.6,4.1,1.6,4.8L64.7,40
			z"/>
		<path fill="#C6875A" d="M74.4,35.7c0,1.6-2,3.2-3.1,1.3c-1.4-2.4-1.4-0.9-1.4-2.6s0.8-1.7,2.2-1.7S74.4,34.1,74.4,35.7z"/>
		<path fill="#25150A" d="M69.3,30.9c1.5-0.8,2.3,0,3.8,1.3c2.2,1,3.2,4.3,2.5,6.4c-1.1,3.3-2.9,0.9-2.9-0.4c0-0.7,0.4-0.4,0.8-0.7
			c0.4-0.4,0.3-1.4,0.1-2.5c-0.1-0.8-0.8-1.4-1.4-1.4c-0.5,0-0.9,0.3-1.3,0.6c-0.5,0.5-1,1-0.6,1.4c0.6,0.6,0.6,2.2-0.1,2.5
			C68.9,38.7,66.1,32.5,69.3,30.9z"/>
		<path fill="#528AB6" d="M66.9,41.1c0,0,0.9-0.4,0.9-0.8s0,1.3,0,1.3L66.9,41.1z"/>
		<path fill="#528AB6" d="M73.8,44.5c0,0,0.8-0.1,0.8-0.6c0-0.6,0.3,1.2,0.3,1.2L73.8,44.5z"/>
	</g>
	<g>
		<path fill="#DBA986" d="M72.7,57.4c-0.1-0.4,0.1-2.3,0.1-2.3l-3.1-0.9c0,0,0.4,1.8-0.1,2.5s2.4,1.4,2.4,1.4L72.7,57.4z"/>
		<path fill="#FDCDA9" d="M71.2,56.2c-0.3-0.1-1.9-1.2-2-4.1c-0.1-2.9-0.2-3.4,0.5-3.6c0.7-0.2,3.4,1.2,3.5,2.1
			C73.3,51.5,73.6,57,71.2,56.2z"/>
		<path opacity="0.5" fill="#DBA986" d="M73.2,52.4c-0.1,0-1.8-0.7-1.8-0.4c-0.1,0.3,0.2,1.5-0.1,1.8s-0.1,1.6-0.1,2.3
			c0,0.1,1.7,0.7,2-2.4C73.5,50.7,73.2,52.4,73.2,52.4z"/>
		<path fill="#754C29" d="M70,47.9C69,48,69,49,69.1,50c0,0.4-0.1,0.8-0.1,1c0,0.2,0.2,2.1,0.4,2s0.2-0.4,0.2-0.4s-0.4-1.5-0.3-1.8
			c0.1-0.2-0.1-2.1,0.8-1.9c0.9,0.2,0.9,0.9,1.2,1c0.4,0.1,1.5,0.3,1.8,0.9c0.2,0.7-0.1,2.8-0.1,3.1s0.3,0.4,0.4,0.3
			c0.4-0.5,0.2-1.5,0.2-1.8c0-0.3,0.2-1.5-0.1-2.2C73.1,49.7,71.9,47.6,70,47.9z"/>
		<path fill="#DBA986" d="M73.6,53.2c0.4,0.1,0.3,1.4-0.2,1.8C72.9,55.5,73,53.1,73.6,53.2z"/>
		<path fill="#FDCDA9" d="M69,50.8c0.4,0,0.6,1.2,0.3,1.8C68.9,53.1,68.4,50.8,69,50.8z"/>
		<path fill="#2E66B1" d="M75.6,62.1c-0.1-0.9-0.8-4.3-2.8-5.4c-0.6-0.4-1.4,1.6-2,1.3c-0.5-0.3-0.8-2.9-1.3-3.1
			c-2-0.6-4.1,1.2-4.4,2.1L75.6,62.1z"/>
		<path fill="#FFFFFF" d="M70.6,59.2c0.8-0.7,2.6-1.8,2.6-3.1l-2.2,1.2l-1.7-2.9c0,0-0.1,3,1,4.6L70.6,59.2z"/>
	</g>
	<g>
		<path fill="#A7BCC8" d="M41.9,39.2c-0.2,0.3-0.6,0.4-1,0.3l-0.2,1.1c1.1,0.5,2.1,0.3,2.4-0.7L41.9,39.2z"/>
		<path fill="#A7BCC8" d="M40.4,39.2c-0.4-0.4-0.6-0.9-0.7-1.3l-1.2-0.7c-0.1,1.1,0.5,2.4,1.6,3.2L40.4,39.2z"/>
		<path fill="#A7BCC8" d="M41.4,37.4c0.4,0.4,0.6,0.9,0.7,1.3l1.2,0.7c0.1-1.1-0.5-2.4-1.6-3.2L41.4,37.4z"/>
		<path fill="#A7BCC8" d="M39.8,37.3c0.2-0.3,0.6-0.4,1-0.3l0.2-1.1c-1.1-0.5-2.1-0.3-2.4,0.7L39.8,37.3z"/>
	</g>
	<polygon fill="#A7BCC8" points="44.6,39.4 44.6,39 55.6,44.6 55.6,44.9 	"/>
	<polygon fill="#A7BCC8" points="44.6,41.4 44.6,41.1 50.1,43.8 50.1,44.2 	"/>
</g>
</svg>
