<?xml version="1.0" encoding="utf-8"?>
<!-- Generator: Adobe Illustrator 24.3.0, SVG Export Plug-In . SVG Version: 6.00 Build 0)  -->
<svg version="1.1" id="Layer_1" xmlns="http://www.w3.org/2000/svg" xmlns:xlink="http://www.w3.org/1999/xlink" x="0px" y="0px"
	 viewBox="0 0 615.05 521.95" style="enable-background:new 0 0 615.05 521.95;" xml:space="preserve">
<style type="text/css">
	.st0{opacity:0.4;fill:#D9E9F7;}
	.st1{opacity:0.1;fill:#EEBB2E;}
	.st2{fill:#E4EBF7;}
	.st3{fill:#FFFFFF;}
	.st4{fill:#D9E9F7;}
	.st5{fill:#C7DFF4;}
	.st6{fill:#94B8E2;}
	.st7{fill:#86AAD9;}
	.st8{fill:#7498CF;}
	.st9{fill:#F47853;}
	.st10{fill:#EF3824;}
	.st11{fill:#BF2C1B;}
	.st12{fill:#FED96C;}
	.st13{fill:#FBAC3E;}
	.st14{fill:#EE9624;}
	.st15{opacity:0.5;fill:#FED96C;}
	.st16{opacity:0.5;fill:#FBAC3E;}
	.st17{opacity:0.5;fill:#EE9624;}
	.st18{fill:#76C9B3;}
	.st19{fill:#57BE8E;}
	.st20{fill:#469E76;}
	.st21{opacity:0.4;fill:#76C9B3;}
	.st22{opacity:0.4;fill:#57BE8E;}
	.st23{opacity:0.4;fill:#469E76;}
	.st24{opacity:0.5;fill:#94B8E2;}
	.st25{opacity:0.5;fill:#86AAD9;}
	.st26{opacity:0.5;fill:#7498CF;}
	.st27{fill:#EF5093;}
	.st28{fill:#E11E6A;}
	.st29{fill:#B5185F;}
	.st30{opacity:0.5;fill:#EF5093;}
	.st31{opacity:0.5;fill:#E11E6A;}
	.st32{opacity:0.5;fill:#B5185F;}
	.st33{opacity:0.5;fill:#F47853;}
	.st34{opacity:0.5;fill:#EF3824;}
	.st35{opacity:0.5;fill:#BF2C1B;}
	.st36{fill:none;stroke:#A7BCC8;stroke-width:0.7483;stroke-miterlimit:10;}
	.st37{fill:#6DA2C6;}
	.st38{fill:#D6B42C;}
	.st39{fill:#FDD332;}
	.st40{fill:#80BEE8;}
	.st41{fill:#A7BCC8;}
	.st42{fill:#D7A580;}
	.st43{fill:#4178BC;}
	.st44{fill:#FDCDA8;}
	.st45{opacity:0.5;fill:#DBA986;}
	.st46{fill:#754C29;}
	.st47{fill:#8AACDA;}
	.st48{fill:none;stroke:#57BE8E;stroke-linecap:round;stroke-linejoin:round;stroke-miterlimit:10;}
	.st49{fill:none;stroke:#EF3824;stroke-linecap:round;stroke-linejoin:round;stroke-miterlimit:10;}
	.st50{fill:url(#SVGID_1_);}
	.st51{fill:#D57E29;}
	.st52{fill:#EEBB2E;}
	.st53{fill:none;stroke:#D57E29;stroke-width:1.0303;stroke-miterlimit:10;}
	.st54{fill:#7D8781;}
	.st55{fill:url(#SVGID_2_);}
	.st56{fill:#21000A;}
	.st57{fill:#6A943E;}
	.st58{fill:#315126;}
	.st59{fill:#4E6B30;}
	.st60{fill:none;stroke:#D57E29;stroke-width:1.0303;stroke-linecap:round;stroke-linejoin:round;stroke-miterlimit:10;}
	.st61{fill:none;stroke:#D9E9F7;stroke-width:1.0303;stroke-linecap:round;stroke-linejoin:round;stroke-miterlimit:10;}
	.st62{opacity:0.35;fill:#5F6A73;}
	.st63{fill:none;stroke:#D57E29;stroke-width:1.0303;stroke-linecap:round;stroke-linejoin:round;}
	.st64{fill:none;stroke:#D57E29;stroke-width:1.0303;stroke-linecap:round;stroke-linejoin:round;stroke-dasharray:3.6838,5.5257;}
	.st65{fill:#EFF8FD;}
	
		.st66{fill:none;stroke:#D57E29;stroke-width:1.0303;stroke-linecap:round;stroke-linejoin:round;stroke-miterlimit:10;stroke-dasharray:4.2481,6.3721;}
	.st67{fill:none;stroke:#A8BDCC;stroke-width:1.0303;stroke-linecap:round;stroke-linejoin:round;stroke-miterlimit:10;}
	.st68{fill:#5F6A73;}
	.st69{fill:url(#SVGID_3_);}
	.st70{fill:#FBEDD1;}
	.st71{fill:#323D45;}
	.st72{fill:#4D535A;}
	.st73{fill:#CFAC8D;}
	.st74{fill:#B48E6C;}
	.st75{fill:#FDCDA9;}
	.st76{fill:#447ABE;}
	.st77{fill:#A7BFCF;}
	.st78{fill:#4966B0;}
	.st79{fill:#88ABDA;}
	.st80{fill:#E4EEF9;}
	.st81{fill:#CDE2F4;}
	.st82{fill:#8F7256;}
	.st83{fill:url(#SVGID_4_);}
	.st84{fill:#71787F;}
	.st85{fill:url(#SVGID_5_);}
	.st86{fill:#A2ABB2;}
	.st87{fill:#67658F;}
	.st88{fill:#545378;}
	.st89{fill:#484264;}
</style>
<polygon class="st0" points="468.94,165.68 370.57,115.46 370.57,23.42 468.94,73.64 "/>
<polygon class="st1" points="239.41,38.51 143.95,86.85 143.95,195.95 239.41,147.61 "/>
<g>
	<g>
		<polygon class="st2" points="181.91,197.2 314.48,130.92 314.48,43.37 181.91,109.66 		"/>
		<polygon class="st3" points="310.48,128.45 310.48,49.85 185.91,112.13 185.91,190.73 		"/>
		<polygon class="st4" points="181.91,109.66 314.48,43.37 311.98,42.12 179.41,108.41 		"/>
		<polygon class="st5" points="181.91,197.2 181.91,109.66 179.41,108.41 179.41,195.95 		"/>
	</g>
	<g>
		<polygon class="st6" points="294.88,119.24 299.58,121.59 304.28,119.24 299.58,116.89 		"/>
		<polygon class="st7" points="299.58,121.59 299.58,127.46 304.28,125.11 304.28,119.24 		"/>
		<polygon class="st8" points="294.88,125.11 299.58,127.46 299.58,121.59 294.88,119.24 		"/>
		<polygon class="st9" points="283.13,107.49 287.83,109.84 292.53,107.49 287.83,105.14 		"/>
		<polygon class="st10" points="287.83,109.84 287.83,133.34 292.53,130.99 292.53,107.49 		"/>
		<polygon class="st11" points="283.13,130.99 287.83,133.34 287.83,109.84 283.13,107.49 		"/>
		<polygon class="st12" points="271.38,113.36 276.08,115.71 280.78,113.36 276.08,111.01 		"/>
		<polygon class="st13" points="276.08,115.71 276.08,139.21 280.78,136.86 280.78,113.36 		"/>
		<polygon class="st14" points="271.38,136.86 276.08,139.21 276.08,115.71 271.38,113.36 		"/>
		<polygon class="st15" points="271.38,105.14 276.08,107.49 280.78,105.14 276.08,102.79 		"/>
		<polygon class="st16" points="276.08,107.49 276.08,115.71 280.78,113.36 280.78,105.14 		"/>
		<polygon class="st17" points="271.38,113.36 276.08,115.71 276.08,107.49 271.38,105.14 		"/>
		<polygon class="st15" points="271.38,98.09 276.08,100.44 280.78,98.09 276.08,95.74 		"/>
		<polygon class="st16" points="276.08,100.44 276.08,105.14 280.78,102.79 280.78,98.09 		"/>
		<polygon class="st17" points="271.38,102.79 276.08,105.14 276.08,100.44 271.38,98.09 		"/>
		<polygon class="st15" points="271.38,93.39 276.08,95.74 280.78,93.39 276.08,91.04 		"/>
		<polygon class="st16" points="276.08,95.74 276.08,98.09 280.78,95.74 280.78,93.39 		"/>
		<polygon class="st17" points="271.38,95.74 276.08,98.09 276.08,95.74 271.38,93.39 		"/>
		<polygon class="st18" points="259.63,126.29 264.33,128.64 269.03,126.29 264.33,123.94 		"/>
		<polygon class="st19" points="264.33,128.64 264.33,145.09 269.03,142.74 269.03,126.29 		"/>
		<polygon class="st20" points="259.63,142.74 264.33,145.09 264.33,128.64 259.63,126.29 		"/>
		<polygon class="st21" points="259.63,118.06 264.33,120.41 269.03,118.06 264.33,115.71 		"/>
		<polygon class="st22" points="264.33,120.41 264.33,128.64 269.03,126.29 269.03,118.06 		"/>
		<polygon class="st23" points="259.63,126.29 264.33,128.64 264.33,120.41 259.63,118.06 		"/>
		<polygon class="st21" points="259.63,112.19 264.33,114.54 269.03,112.19 264.33,109.84 		"/>
		<polygon class="st22" points="264.33,114.54 264.33,118.06 269.03,115.71 269.03,112.19 		"/>
		<polygon class="st23" points="259.63,115.71 264.33,118.06 264.33,114.54 259.63,112.19 		"/>
		<polygon class="st24" points="294.88,111.01 299.58,113.36 304.28,111.01 299.58,108.66 		"/>
		<polygon class="st25" points="299.58,113.36 299.58,121.59 304.28,119.24 304.28,111.01 		"/>
		<polygon class="st26" points="294.88,119.24 299.58,121.59 299.58,113.36 294.88,111.01 		"/>
		<polygon class="st24" points="294.88,106.31 299.58,108.66 304.28,106.31 299.58,103.96 		"/>
		<polygon class="st25" points="299.58,108.66 299.58,111.01 304.28,108.66 304.28,106.31 		"/>
		<polygon class="st26" points="294.88,108.66 299.58,111.01 299.58,108.66 294.88,106.31 		"/>
		<polygon class="st27" points="247.88,139.21 252.58,141.57 257.28,139.21 252.58,136.86 		"/>
		<polygon class="st28" points="252.58,141.57 252.58,150.97 257.28,148.62 257.28,139.21 		"/>
		<polygon class="st29" points="247.88,148.62 252.58,150.97 252.58,141.57 247.88,139.21 		"/>
		<polygon class="st30" points="247.88,134.51 252.58,136.86 257.28,134.51 252.58,132.16 		"/>
		<polygon class="st31" points="252.58,136.86 252.58,141.57 257.28,139.21 257.28,134.51 		"/>
		<polygon class="st32" points="247.88,139.21 252.58,141.57 252.58,136.86 247.88,134.51 		"/>
		<polygon class="st30" points="247.88,129.81 252.58,132.16 257.28,129.81 252.58,127.46 		"/>
		<polygon class="st31" points="252.58,132.16 252.58,134.51 257.28,132.16 257.28,129.81 		"/>
		<polygon class="st32" points="247.88,132.16 252.58,134.51 252.58,132.16 247.88,129.81 		"/>
		<polygon class="st33" points="283.13,102.79 287.83,105.14 292.53,102.79 287.83,100.44 		"/>
		<polygon class="st34" points="287.83,105.14 287.83,109.84 292.53,107.49 292.53,102.79 		"/>
		<polygon class="st35" points="283.13,107.49 287.83,109.84 287.83,105.14 283.13,102.79 		"/>
		<polygon class="st33" points="283.13,98.09 287.83,100.44 292.53,98.09 287.83,95.74 		"/>
		<polygon class="st34" points="287.83,100.44 287.83,102.79 292.53,100.44 292.53,98.09 		"/>
		<polygon class="st35" points="283.13,100.44 287.83,102.79 287.83,100.44 283.13,98.09 		"/>
	</g>
	
		<ellipse transform="matrix(0.7071 -0.7071 0.7071 0.7071 34.4261 231.9737)" class="st36" cx="297.23" cy="74.43" rx="3.59" ry="2.55"/>
	<g>
		<path class="st20" d="M229.49,118.19c-1.26-2.28-5.93,2.67-5.93,2.67l-6.6-3.35l-2.17-9.92c9.37-4.73,24.85,0.08,27.8,9.39
			L229.49,118.19z"/>
		<path class="st37" d="M212.29,120.46c-3.42,3.12-5.64,7.68-5.74,11.74l-5.76,8.64l-4.4-2.23c-0.89-9.6,4.82-21.26,13.74-28.08
			l4.4,2.23L212.29,120.46z"/>
		<path class="st10" d="M207.55,136.77c1.64,2.97,5.08,3.95,8.87,2.53l2.17,9.92c-9.37,4.73-18.18,2.22-21.2-6.04L207.55,136.77z"/>
		<path class="st38" d="M221.09,136.34c3.42-3.12,5.64-7.68,5.74-11.74l10.16-6.41c0.05,0.58,2.2,1.12,2.2,1.12l-13.74,28.08
			c0,0-1.93-1.33-2.2-1.12L221.09,136.34z"/>
		<path class="st39" d="M223.29,137.46c3.42-3.12,5.64-7.68,5.74-11.74l10.16-6.41c0.89,9.6-4.82,21.26-13.74,28.08L223.29,137.46z"
			/>
		<path class="st40" d="M216.69,122.69c-3.42,3.12-5.64,7.68-5.74,11.74l-10.16,6.41c-0.89-9.6,4.82-21.26,13.74-28.08
			L216.69,122.69z"/>
		<path class="st19" d="M232.43,123.39c-1.64-2.97-5.08-3.95-8.87-2.53l-2.17-9.92c9.37-4.73,18.18-2.22,21.2,6.04L232.43,123.39z"
			/>
	</g>
	<polygon class="st41" points="237.08,150.7 237.08,149.79 209.49,163.67 209.49,164.59 	"/>
	<polygon class="st41" points="237.08,155.79 237.08,154.87 223.29,161.81 223.29,162.73 	"/>
	<polygon class="st41" points="297.58,77.12 296.88,77.47 296.88,102.79 297.58,102.44 	"/>
</g>
<g>
	<g>
		<polygon class="st2" points="427.97,189.27 345.23,147.35 345.23,94.02 427.97,135.94 		"/>
		<polygon class="st3" points="349.23,144.88 349.23,100.49 423.97,138.41 423.97,182.79 		"/>
		<polygon class="st4" points="427.97,135.94 345.23,94.02 347.73,92.77 430.47,134.69 		"/>
		<polygon class="st5" points="427.97,189.27 427.97,135.94 430.47,134.69 430.47,188.01 		"/>
	</g>
	<g>
		<path class="st42" d="M411.61,162.93c-0.18-0.22-1.84-1.66-2.51-3.41c-0.56-1.47-0.2-2.95,0.29-6.12
			c1.07-6.97-7.68-4.85-7.68-4.85s1.2,4.51,0.33,6.99c-0.21,0.59-2.38,0.4-3.36,0.67c-4.13,1.12,4.34,6.64,6.24,6.97
			C406.8,163.5,411.61,162.93,411.61,162.93z"/>
		<path class="st43" d="M410.81,161.24c0,0-5,2.92-10.26-5.48c-0.49-0.78-6.33,1.62-7.64,3.47l22.93,11.5
			C415.84,170.73,414.66,164.2,410.81,161.24z"/>
		<path class="st44" d="M401.73,150.94c0.75,3.32,3.78,5.65,6.22,5.1c2.43-0.55,3.22-3.39,2.72-6.75c-1.94-12.97-7.6-6.3-10.03-5.75
			C398.2,144.08,400.98,147.62,401.73,150.94z"/>
		<path class="st45" d="M405.44,141.38c2.1-0.35,4.19,0.98,5.23,7.9c0.5,3.37-0.28,6.2-2.72,6.75c-0.72,0.16-1.5,0.07-2.25-0.23
			C405.66,151.53,404.81,144.97,405.44,141.38z"/>
		<path class="st46" d="M413.21,163.5c0.22,0.56-5.87-2.19-4.17-7.9c1.66-1.97,2.65-4.31,0.22-10.68c-1.4,0.82-3,0.7-3,0.7
			s2.01-0.33,2.55-1.32c-1.48,0.66-1.89,0.78-3.04,0.66c-1.15-0.12-2.51-1.03-3.41-0.66c-0.9,0.37-2.25,2-0.22,7.88
			c1.75,3.41-0.66,4.24-4.2,4.24c-0.82,0,1.38-3.25,1.33-6.04c-0.04-2.79-2.47-15.16,3.58-14.79c6.04,0.37,10.23,9.49,9.41,15.66
			C411.44,157.42,412.63,162.05,413.21,163.5z"/>
	</g>
	<polygon class="st41" points="359.89,124.19 359.89,123.41 387.48,137.29 387.48,138.07 	"/>
	<polygon class="st41" points="359.89,129.27 359.89,128.49 387.48,142.37 387.48,143.16 	"/>
	<polygon class="st41" points="373.68,141.3 373.68,140.52 387.48,147.46 387.48,148.24 	"/>
</g>
<g>
	<g>
		<polygon class="st2" points="427.97,123.41 345.23,81.49 345.23,28.16 427.97,70.08 		"/>
		<polygon class="st3" points="349.23,79.02 349.23,34.63 423.97,72.55 423.97,116.93 		"/>
		<polygon class="st4" points="427.97,70.08 345.23,28.16 347.73,26.91 430.47,68.83 		"/>
		<polygon class="st5" points="427.97,123.41 427.97,70.08 430.47,68.83 430.47,122.15 		"/>
	</g>
	<polygon class="st41" points="389.34,64.97 389.34,64.19 416.93,78.07 416.93,78.85 	"/>
	<polygon class="st41" points="403.14,77 403.14,76.21 416.93,83.16 416.93,83.94 	"/>
	<polygon class="st5" points="398.92,98.95 409.59,104.31 417.07,100.57 406.4,95.21 	"/>
	<polygon class="st5" points="383.69,91.13 394.35,96.49 401.83,92.75 391.17,87.39 	"/>
	<polygon class="st5" points="368.45,83.31 379.12,88.67 386.6,84.93 375.93,79.57 	"/>
	<polygon class="st5" points="353.22,75.49 363.89,80.85 371.37,77.11 360.7,71.75 	"/>
	<g>
		<polygon class="st47" points="401.97,98.78 409.45,102.52 416.93,98.78 409.45,95.04 		"/>
		<polygon class="st2" points="401.97,92.56 401.97,98.78 409.45,95.04 409.45,88.82 		"/>
		<polygon class="st5" points="409.45,95.04 416.93,98.78 416.93,92.56 409.45,88.82 		"/>
		<polygon class="st3" points="410.89,94.27 415.49,96.57 415.49,93.31 410.89,91.01 		"/>
	</g>
	<g>
		<polygon class="st47" points="386.74,90.96 394.22,94.7 401.7,90.96 394.22,87.22 		"/>
		<polygon class="st2" points="386.74,84.74 386.74,90.96 394.22,87.22 394.22,81 		"/>
		<polygon class="st5" points="394.22,87.22 401.7,90.96 401.7,84.74 394.22,81 		"/>
		<polygon class="st3" points="395.66,86.45 400.25,88.75 400.25,85.49 395.66,83.19 		"/>
	</g>
	<g>
		<polygon class="st47" points="371.5,83.14 378.98,86.88 386.46,83.14 378.98,79.4 		"/>
		<polygon class="st2" points="371.5,76.92 371.5,83.14 378.98,79.4 378.98,73.18 		"/>
		<polygon class="st5" points="378.98,79.4 386.46,83.14 386.46,76.92 378.98,73.18 		"/>
		<polygon class="st3" points="380.43,78.63 385.02,80.93 385.02,77.67 380.43,75.37 		"/>
	</g>
	<g>
		<polygon class="st47" points="356.27,75.32 363.75,79.06 371.23,75.32 363.75,71.58 		"/>
		<polygon class="st2" points="356.27,69.09 356.27,75.32 363.75,71.58 363.75,65.35 		"/>
		<polygon class="st5" points="363.75,71.58 371.23,75.32 371.23,69.09 363.75,65.35 		"/>
		<polygon class="st3" points="365.19,70.81 369.79,73.11 369.79,69.85 365.19,67.55 		"/>
	</g>
	<polyline class="st48" points="401.7,84.74 394.22,81 386.74,84.74 	"/>
	<polyline class="st49" points="371.23,69.09 363.75,65.35 356.27,69.09 	"/>
</g>
<linearGradient id="SVGID_1_" gradientUnits="userSpaceOnUse" x1="134.1612" y1="379.6474" x2="245.0364" y2="379.6474">
	<stop  offset="0" style="stop-color:#E9EDF6"/>
	<stop  offset="0.9949" style="stop-color:#C3DEF1"/>
	<stop  offset="1" style="stop-color:#C3DEF1"/>
</linearGradient>
<polygon class="st50" points="245.04,392.07 214.45,407.37 134.16,367.22 164.75,351.93 "/>
<path class="st4" d="M565.52,363.74L363.37,464.81c-20.34,10.17-44.28,10.17-64.62,0L96.6,363.74
	c-9.98-4.99-15.01-14.61-15.01-24.23v-45.88h498.94v45.88C580.53,349.12,575.5,358.74,565.52,363.74z"/>
<path class="st51" d="M565.52,348.44L363.37,449.52c-20.34,10.17-44.28,10.17-64.62,0L96.6,348.44
	c-9.98-4.99-15.01-14.61-15.01-24.23v-30.59h498.94v30.59C580.53,333.83,575.5,343.45,565.52,348.44z"/>
<path class="st52" d="M565.52,325.5L363.37,426.58c-20.34,10.17-44.28,10.17-64.62,0L96.6,325.5c-9.98-4.99-15.01-14.61-15.01-24.23
	v-7.65h498.94v7.65C580.53,310.89,575.5,320.51,565.52,325.5z"/>
<path class="st3" d="M565.52,317.86L363.37,418.93c-20.34,10.17-44.28,10.17-64.62,0L96.6,317.86
	c-9.98-4.99-15.01-14.61-15.01-24.23c0-9.62,5.03-19.24,15.01-24.23l202.14-101.07c20.34-10.17,44.28-10.17,64.62,0l202.14,101.07
	c9.98,4.99,15.01,14.61,15.01,24.23C580.53,303.24,575.5,312.86,565.52,317.86z"/>
<path class="st53" d="M331.06,417.4c-9.76,0-19.54-2.31-28.27-6.67L100.64,309.66c-6.28-3.14-10.02-9.18-10.02-16.16
	c0-6.98,3.75-13.02,10.02-16.16l202.14-101.07c8.73-4.37,18.51-6.67,28.27-6.67s19.54,2.31,28.27,6.67l202.14,101.07
	c6.28,3.14,10.02,9.18,10.02,16.16s-3.75,13.02-10.02,16.16L359.33,410.73C350.6,415.09,340.82,417.4,331.06,417.4z"/>
<polygon class="st3" points="246.95,391.12 214.45,407.37 134.16,367.22 166.66,350.97 "/>
<polygon class="st5" points="214.45,407.37 214.45,418.84 199.16,426.48 199.16,437.95 183.86,445.6 183.86,457.07 168.57,464.72 
	168.57,476.19 245.04,437.95 245.04,392.07 "/>
<polygon class="st3" points="214.45,418.84 199.16,426.48 118.87,386.34 134.16,378.69 "/>
<polygon class="st4" points="214.45,407.37 214.45,418.84 134.16,378.69 134.16,367.22 "/>
<polygon class="st3" points="199.16,437.95 183.86,445.6 103.57,405.45 118.87,397.81 "/>
<polygon class="st4" points="199.16,426.48 199.16,437.95 118.87,397.81 118.87,386.34 "/>
<polygon class="st3" points="183.86,457.07 168.57,464.72 88.28,424.57 103.57,416.92 "/>
<polygon class="st4" points="183.86,445.6 183.86,457.07 103.57,416.92 103.57,405.45 "/>
<polygon class="st4" points="168.57,464.72 168.57,476.19 88.28,436.04 88.28,424.57 "/>
<g>
	<path class="st54" d="M116.22,264.36c-0.91,0-1.8,0.04-2.69,0.13c-0.89,0.09-1.75,0.22-2.59,0.39c-0.84,0.17-1.63,0.39-2.39,0.64
		c-0.75,0.25-1.45,0.54-2.09,0.86c-0.64,0.32-1.21,0.67-1.72,1.05c-0.5,0.38-0.93,0.77-1.28,1.19c-0.35,0.42-0.61,0.85-0.79,1.29
		c-0.18,0.44-0.27,0.89-0.27,1.35c0,0.45,0.09,0.9,0.27,1.35c0.18,0.44,0.44,0.88,0.79,1.29c0.35,0.42,0.77,0.82,1.28,1.19
		c0.5,0.38,1.08,0.73,1.72,1.05c0.64,0.32,1.34,0.61,2.09,0.86c0.75,0.25,1.55,0.46,2.39,0.64c0.84,0.17,1.7,0.3,2.59,0.39
		c0.89,0.09,1.79,0.13,2.69,0.13c0.91,0,1.8-0.04,2.69-0.13c0.89-0.09,1.75-0.22,2.59-0.39c0.84-0.17,1.63-0.39,2.39-0.64
		c0.75-0.25,1.45-0.54,2.09-0.86c0.64-0.32,1.21-0.67,1.72-1.05s0.93-0.77,1.28-1.19c0.35-0.42,0.61-0.85,0.79-1.29
		s0.27-0.89,0.27-1.35c0-0.45-0.09-0.9-0.27-1.35c-0.18-0.44-0.44-0.88-0.79-1.29c-0.35-0.42-0.77-0.82-1.28-1.19
		c-0.5-0.38-1.08-0.73-1.72-1.05s-1.34-0.61-2.09-0.86c-0.75-0.25-1.55-0.46-2.39-0.64c-0.84-0.17-1.7-0.3-2.59-0.39
		C118.02,264.41,117.12,264.36,116.22,264.36z"/>
	
		<linearGradient id="SVGID_2_" gradientUnits="userSpaceOnUse" x1="-7908.8481" y1="1780.4258" x2="-7933.2974" y2="1780.0999" gradientTransform="matrix(-1 0 0 -1 -7805.9668 2064.4973)">
		<stop  offset="0" style="stop-color:#E9EDF6"/>
		<stop  offset="0.9949" style="stop-color:#C3DEF1"/>
		<stop  offset="1" style="stop-color:#C3DEF1"/>
	</linearGradient>
	<path class="st55" d="M130.02,271.26c0-3.81-6.18-6.9-13.8-6.9c-7.62,0-13.8,3.09-13.8,6.9l4.06,28.01c0,2.69,4.36,4.87,9.74,4.87
		c5.38,0,9.74-2.18,9.74-4.87L130.02,271.26z"/>
	<path class="st3" d="M106.54,266.34c-0.56,0.87-0.88,1.81-0.88,2.8l4.06,32.58c0,0.45,0.1,0.88,0.26,1.29
		c-2.14-0.89-3.51-2.24-3.51-3.74l-4.06-28.01C102.42,269.34,104,267.6,106.54,266.34z"/>
	<path class="st56" d="M116.22,265.98c-0.8,0-1.59,0.04-2.38,0.12c-0.78,0.08-1.55,0.19-2.28,0.35c-0.74,0.15-1.44,0.34-2.11,0.56
		c-0.66,0.22-1.28,0.47-1.85,0.76c-0.57,0.28-1.07,0.59-1.51,0.92c-0.44,0.33-0.82,0.68-1.13,1.05c-0.31,0.37-0.54,0.75-0.69,1.14
		c-0.16,0.39-0.23,0.79-0.23,1.19c0,0.4,0.08,0.8,0.23,1.19c0.16,0.39,0.39,0.77,0.69,1.14c0.31,0.37,0.68,0.72,1.13,1.05
		s0.95,0.64,1.51,0.92c0.57,0.28,1.18,0.54,1.85,0.76c0.66,0.22,1.37,0.41,2.11,0.56c0.74,0.15,1.5,0.27,2.28,0.35
		c0.78,0.08,1.58,0.12,2.38,0.12c0.8,0,1.59-0.04,2.38-0.12c0.78-0.08,1.55-0.19,2.28-0.35c0.74-0.15,1.44-0.34,2.11-0.56
		c0.66-0.22,1.28-0.47,1.85-0.76c0.57-0.28,1.07-0.59,1.51-0.92c0.44-0.33,0.82-0.68,1.13-1.05c0.31-0.37,0.54-0.75,0.69-1.14
		c0.16-0.39,0.23-0.79,0.23-1.19c0-0.4-0.08-0.8-0.23-1.19c-0.16-0.39-0.39-0.77-0.69-1.14c-0.31-0.37-0.68-0.72-1.13-1.05
		c-0.44-0.33-0.95-0.64-1.51-0.92c-0.57-0.28-1.18-0.53-1.85-0.76c-0.66-0.22-1.37-0.41-2.11-0.56c-0.74-0.15-1.5-0.27-2.28-0.35
		C117.81,266.02,117.02,265.98,116.22,265.98z"/>
	<path class="st57" d="M123.52,228.64c-8.12,10.55-3.25,12.99-6.49,29.22c4.06-12.18,10.55-18.67,15.42-23.14
		c2.81-2.57,12.18-11.77,14.61-21.51C143.48,213.22,125.85,225.62,123.52,228.64z"/>
	<path class="st58" d="M112.16,221.34c1.62,4.87,4.06,6.49,4.87,19.48c4.06-12.17,3.95-14.73,5.68-21.1
		c2.44-8.93,0.81-31.66-11.36-30.04C108.02,189.68,110.95,217.72,112.16,221.34z"/>
	<path class="st58" d="M115.4,271.67h2.44c0,0-1.62-25.98-1.62-33.28c0-7.3-0.81-6.49-0.81,0V271.67z"/>
	<path class="st57" d="M115.4,265.72l1.67,0.26c0,0,2.04-20.26,2.92-25.9c0.88-5.65,0.23-5.11-0.56-0.09L115.4,265.72z"/>
	<path class="st59" d="M108.91,235.14c1.62,4.87,5.68-1.62,6.49,11.36c4.06-12.17,1.51-10.67,3.25-17.05
		c2.43-8.93-10.55-27.6-22.73-25.98C91.05,211.6,107.7,231.52,108.91,235.14z"/>
</g>
<line class="st60" x1="392.71" y1="372" x2="414.69" y2="382.99"/>
<line class="st60" x1="231.6" y1="212.21" x2="261.98" y2="227.12"/>
<line class="st60" x1="273.58" y1="190.76" x2="304.88" y2="206.41"/>
<line class="st60" x1="386.02" y1="375.35" x2="401.31" y2="382.99"/>
<line class="st60" x1="379.33" y1="378.69" x2="389.84" y2="383.95"/>
<line class="st60" x1="287.09" y1="394.94" x2="293.78" y2="391.6"/>
<line class="st60" x1="261.29" y1="389.68" x2="268.93" y2="385.86"/>
<line class="st60" x1="275.62" y1="407.37" x2="300" y2="394.94"/>
<line class="st61" x1="328.19" y1="372.48" x2="342.53" y2="365.31"/>
<line class="st61" x1="333.93" y1="375.82" x2="348.27" y2="368.66"/>
<line class="st61" x1="339.66" y1="379.17" x2="354" y2="372"/>
<line class="st53" x1="292.35" y1="405.45" x2="306.69" y2="398.29"/>
<path class="st51" d="M301.75,388.73l-7.24,3.62c-0.25,0.13-0.55,0.13-0.81,0l-1.8-0.9c-0.67-0.33-0.67-1.28,0-1.62l6.03-3.02
	L301.75,388.73z"/>
<path class="st51" d="M308.44,392.07l-7.24,3.62c-0.25,0.13-0.55,0.13-0.81,0l-1.8-0.9c-0.67-0.33-0.67-1.28,0-1.62l6.03-3.02
	L308.44,392.07z"/>
<path class="st51" d="M315.13,395.42l-7.24,3.62c-0.25,0.13-0.55,0.13-0.81,0l-1.8-0.9c-0.67-0.33-0.67-1.28,0-1.62l6.03-3.02
	L315.13,395.42z"/>
<path class="st51" d="M386.98,370.67l7.24,3.62c0.25,0.13,0.55,0.13,0.81,0l1.8-0.9c0.67-0.33,0.67-1.28,0-1.62l-6.03-3.01
	L386.98,370.67z"/>
<path class="st51" d="M380.29,374.02l7.24,3.62c0.25,0.13,0.55,0.13,0.81,0l1.8-0.9c0.67-0.33,0.67-1.28,0-1.62l-6.03-3.01
	L380.29,374.02z"/>
<path class="st51" d="M373.59,377.36l7.24,3.62c0.25,0.13,0.55,0.13,0.81,0l1.8-0.9c0.67-0.33,0.67-1.28,0-1.62l-6.03-3.01
	L373.59,377.36z"/>
<line class="st60" x1="268.93" y1="385.86" x2="287.09" y2="394.94"/>
<ellipse class="st61" cx="183.86" cy="301.75" rx="21.03" ry="10.51"/>
<ellipse class="st4" cx="368.34" cy="358.14" rx="3.82" ry="1.91"/>
<ellipse class="st4" cx="382.67" cy="370.09" rx="3.82" ry="1.91"/>
<polygon class="st62" points="267.02,448.94 245.04,437.95 245.04,392.07 "/>
<ellipse class="st51" cx="184.34" cy="300.31" rx="13.86" ry="6.69"/>
<polygon class="st52" points="123.65,331.38 123.65,361.96 121.74,361.01 121.74,330.42 "/>
<polygon class="st52" points="392.23,404.5 392.23,435.09 390.32,436.04 390.32,405.45 "/>
<polygon class="st52" points="407.53,396.85 407.53,427.44 405.61,428.39 405.61,397.81 "/>
<polygon class="st52" points="422.82,389.21 422.82,419.79 420.91,420.75 420.91,390.16 "/>
<line class="st53" x1="370.25" y1="393.51" x2="392.23" y2="404.5"/>
<line class="st53" x1="390.32" y1="388.73" x2="407.53" y2="396.85"/>
<line class="st53" x1="412.31" y1="383.95" x2="422.82" y2="389.21"/>
<line class="st60" x1="392.23" y1="450.38" x2="432.38" y2="470.45"/>
<line class="st60" x1="407.53" y1="442.73" x2="447.67" y2="462.8"/>
<line class="st60" x1="422.82" y1="435.09" x2="462.96" y2="455.16"/>
<line class="st60" x1="500.24" y1="436.52" x2="540.39" y2="456.59"/>
<line class="st60" x1="53.87" y1="370.09" x2="94.02" y2="390.16"/>
<g>
	<g>
		<line class="st63" x1="543.25" y1="458.02" x2="545.15" y2="458.97"/>
		<line class="st64" x1="550.09" y1="461.45" x2="572.34" y2="472.57"/>
		<line class="st63" x1="574.81" y1="473.8" x2="576.71" y2="474.75"/>
	</g>
</g>
<g>
	<g>
		<line class="st63" x1="570.49" y1="386.34" x2="572.39" y2="387.29"/>
		<line class="st64" x1="577.34" y1="389.76" x2="599.58" y2="400.88"/>
		<line class="st63" x1="602.05" y1="402.12" x2="603.95" y2="403.07"/>
	</g>
</g>
<g>
	<g>
		<line class="st63" x1="16.6" y1="351.45" x2="18.5" y2="352.4"/>
		<line class="st64" x1="23.44" y1="354.87" x2="45.68" y2="365.99"/>
		<line class="st63" x1="48.15" y1="367.23" x2="50.05" y2="368.18"/>
	</g>
</g>
<polygon class="st65" points="257.46,377.26 224.01,393.98 159.01,361.49 192.47,344.76 "/>
<line class="st60" x1="392.23" y1="404.5" x2="392.23" y2="450.38"/>
<polygon class="st52" points="545.64,328.03 545.64,358.62 543.73,359.58 543.73,328.99 "/>
<line class="st60" x1="545.64" y1="373.91" x2="567.15" y2="384.43"/>
<line class="st60" x1="545.64" y1="328.03" x2="545.64" y2="373.91"/>
<line class="st60" x1="407.53" y1="396.85" x2="407.53" y2="442.73"/>
<line class="st60" x1="422.82" y1="389.21" x2="422.82" y2="435.09"/>
<line class="st60" x1="121.74" y1="330.42" x2="189.6" y2="296.49"/>
<line class="st60" x1="432.38" y1="470.45" x2="500.24" y2="436.52"/>
<line class="st60" x1="72.99" y1="400.68" x2="121.74" y2="376.3"/>
<line class="st66" x1="21.37" y1="426.48" x2="70.12" y2="402.11"/>
<line class="st60" x1="362.6" y1="484.79" x2="411.35" y2="460.41"/>
<line class="st60" x1="370.25" y1="393.51" x2="389.84" y2="383.95"/>
<line class="st60" x1="390.32" y1="388.73" x2="401.31" y2="382.99"/>
<line class="st67" x1="343.66" y1="360.57" x2="353.52" y2="355.75"/>
<line class="st66" x1="310.99" y1="510.59" x2="359.73" y2="486.22"/>
<line class="st60" x1="121.74" y1="330.42" x2="121.74" y2="376.3"/>
<polygon class="st52" points="277.53,408.32 277.53,438.91 275.62,437.95 275.62,407.37 "/>
<line class="st60" x1="226.88" y1="477.62" x2="275.62" y2="453.25"/>
<line class="st66" x1="175.26" y1="503.43" x2="224.01" y2="479.05"/>
<line class="st60" x1="275.62" y1="407.37" x2="275.62" y2="453.25"/>
<line class="st60" x1="535.84" y1="322.48" x2="545.64" y2="327.56"/>
<g>
	<line class="st61" x1="247.45" y1="309.12" x2="275.17" y2="295.26"/>
	<line class="st61" x1="343.03" y1="254.16" x2="356.8" y2="247.28"/>
	<line class="st61" x1="367.41" y1="281.88" x2="399.9" y2="265.63"/>
	<line class="st61" x1="361.67" y1="264.68" x2="381.74" y2="254.64"/>
	<line class="st61" x1="363.58" y1="270.41" x2="378.88" y2="262.77"/>
	<line class="st61" x1="383.65" y1="280.45" x2="398.95" y2="272.8"/>
	<line class="st61" x1="259.4" y1="316.29" x2="277.56" y2="307.21"/>
	<line class="st61" x1="292.37" y1="326.81" x2="312.45" y2="316.77"/>
	<line class="st61" x1="350.68" y1="326.81" x2="350.68" y2="331.11"/>
	<line class="st61" x1="282.82" y1="324.89" x2="302.89" y2="314.86"/>
	<line class="st61" x1="355.46" y1="322.5" x2="355.46" y2="326.81"/>
	<line class="st61" x1="337.3" y1="320.11" x2="350.68" y2="326.81"/>
	<line class="st61" x1="343.99" y1="316.77" x2="355.46" y2="322.5"/>
	<line class="st61" x1="350.68" y1="313.42" x2="369.8" y2="322.98"/>
	<line class="st61" x1="290.64" y1="250.01" x2="309.76" y2="259.57"/>
	<line class="st61" x1="274.69" y1="255.12" x2="293.81" y2="264.68"/>
	<line class="st61" x1="261.31" y1="261.81" x2="280.43" y2="271.37"/>
	<line class="st61" x1="252.52" y1="271.02" x2="271.64" y2="280.57"/>
	<line class="st61" x1="241.24" y1="271.85" x2="260.35" y2="281.4"/>
	<line class="st61" x1="262.74" y1="255.6" x2="281.86" y2="265.15"/>
	<line class="st61" x1="357.37" y1="310.08" x2="385.09" y2="323.94"/>
	<line class="st61" x1="364.06" y1="306.73" x2="390.82" y2="320.11"/>
	<line class="st61" x1="384.13" y1="296.7" x2="398.93" y2="304.09"/>
	<path class="st52" d="M385.71,295.91l-50.8,25.4c-8.72,4.36-18.99,4.36-27.72,0l-50.8-25.4c-6.05-3.02-6.05-11.65,0-14.67
		l50.8-25.4c8.72-4.36,18.99-4.36,27.72,0l50.8,25.4C391.75,284.26,391.75,292.89,385.71,295.91z"/>
	<path class="st68" d="M259.88,297.65l-7.24,3.62c-0.25,0.13-0.55,0.13-0.81,0l-1.8-0.9c-0.67-0.33-0.67-1.28,0-1.62l6.03-3.02
		L259.88,297.65z"/>
	<path class="st68" d="M266.57,301l-7.24,3.62c-0.25,0.13-0.55,0.13-0.81,0l-1.8-0.9c-0.67-0.33-0.67-1.28,0-1.62l6.03-3.02
		L266.57,301z"/>
	<path class="st68" d="M273.26,304.34l-7.24,3.62c-0.25,0.13-0.55,0.13-0.81,0l-1.8-0.9c-0.67-0.33-0.67-1.28,0-1.62l6.03-3.02
		L273.26,304.34z"/>
	<path class="st68" d="M279.95,307.69l-7.24,3.62c-0.25,0.13-0.55,0.13-0.81,0l-1.8-0.9c-0.67-0.33-0.67-1.28,0-1.62l6.03-3.02
		L279.95,307.69z"/>
	<path class="st68" d="M286.64,311.03l-7.24,3.62c-0.25,0.13-0.55,0.13-0.81,0l-1.8-0.9c-0.67-0.33-0.67-1.28,0-1.62l6.03-3.02
		L286.64,311.03z"/>
	<path class="st68" d="M293.33,314.38l-7.24,3.62c-0.25,0.13-0.55,0.13-0.81,0l-1.8-0.9c-0.67-0.33-0.67-1.28,0-1.62l6.03-3.02
		L293.33,314.38z"/>
	<path class="st68" d="M300.02,317.72l-7.24,3.62c-0.25,0.13-0.55,0.13-0.81,0l-1.8-0.9c-0.67-0.33-0.67-1.28,0-1.62l6.03-3.02
		L300.02,317.72z"/>
	<path class="st68" d="M306.71,321.07l-7.24,3.62c-0.25,0.13-0.55,0.13-0.81,0l-1.8-0.9c-0.67-0.33-0.67-1.28,0-1.62l6.03-3.02
		L306.71,321.07z"/>
	<path class="st68" d="M345.24,254.97l-6.03,3.02l-3.82-1.91l7.24-3.62c0.25-0.13,0.55-0.13,0.81,0l1.8,0.9
		C345.91,253.69,345.91,254.64,345.24,254.97z"/>
	<path class="st68" d="M351.93,258.32l-6.03,3.02l-3.82-1.91l7.24-3.62c0.25-0.13,0.55-0.13,0.81,0l1.8,0.9
		C352.6,257.03,352.6,257.98,351.93,258.32z"/>
	<path class="st68" d="M358.62,261.66l-6.03,3.02l-3.82-1.91l7.24-3.62c0.25-0.13,0.55-0.13,0.81,0l1.8,0.9
		C359.29,260.38,359.29,261.33,358.62,261.66z"/>
	<path class="st68" d="M365.31,265.01l-6.03,3.02l-3.82-1.91l7.24-3.62c0.25-0.13,0.55-0.13,0.81,0l1.8,0.9
		C365.98,263.72,365.98,264.67,365.31,265.01z"/>
	<path class="st68" d="M372,268.35l-6.03,3.02l-3.82-1.91l7.24-3.62c0.25-0.13,0.55-0.13,0.81,0l1.8,0.9
		C372.67,267.07,372.67,268.02,372,268.35z"/>
	<path class="st68" d="M378.69,271.7l-6.03,3.02l-3.82-1.91l7.24-3.62c0.25-0.13,0.55-0.13,0.81,0l1.8,0.9
		C379.36,270.41,379.36,271.36,378.69,271.7z"/>
	<path class="st68" d="M382.22,297.65l7.24,3.62c0.25,0.13,0.55,0.13,0.81,0l1.8-0.9c0.67-0.33,0.67-1.28,0-1.62l-6.03-3.01
		L382.22,297.65z"/>
	<path class="st68" d="M375.53,301l7.24,3.62c0.25,0.13,0.55,0.13,0.81,0l1.8-0.9c0.67-0.33,0.67-1.28,0-1.62l-6.03-3.01L375.53,301
		z"/>
	<path class="st68" d="M368.84,304.34l7.24,3.62c0.25,0.13,0.55,0.13,0.81,0l1.8-0.9c0.67-0.33,0.67-1.28,0-1.62l-6.03-3.01
		L368.84,304.34z"/>
	<path class="st68" d="M362.15,307.69l7.24,3.62c0.25,0.13,0.55,0.13,0.81,0l1.8-0.9c0.67-0.33,0.67-1.28,0-1.62l-6.03-3.01
		L362.15,307.69z"/>
	<path class="st68" d="M355.46,311.03l7.24,3.62c0.25,0.13,0.55,0.13,0.81,0l1.8-0.9c0.67-0.33,0.67-1.28,0-1.62l-6.03-3.01
		L355.46,311.03z"/>
	<path class="st68" d="M348.77,314.38l7.24,3.62c0.25,0.13,0.55,0.13,0.81,0l1.8-0.9c0.67-0.33,0.67-1.28,0-1.62l-6.03-3.01
		L348.77,314.38z"/>
	<path class="st68" d="M342.08,317.72l7.24,3.62c0.25,0.13,0.55,0.13,0.81,0l1.8-0.9c0.67-0.33,0.67-1.28,0-1.62l-6.03-3.01
		L342.08,317.72z"/>
	<path class="st68" d="M335.39,321.07l7.24,3.62c0.25,0.13,0.55,0.13,0.81,0l1.8-0.9c0.67-0.33,0.67-1.28,0-1.62l-6.03-3.01
		L335.39,321.07z"/>
	<path class="st68" d="M296.86,254.97l6.03,3.02l3.82-1.91l-7.24-3.62c-0.25-0.13-0.55-0.13-0.81,0l-1.8,0.9
		C296.19,253.69,296.19,254.64,296.86,254.97z"/>
	<path class="st68" d="M290.17,258.32l6.03,3.02l3.82-1.91l-7.24-3.62c-0.25-0.13-0.55-0.13-0.81,0l-1.8,0.9
		C289.5,257.03,289.5,257.98,290.17,258.32z"/>
	<path class="st68" d="M283.48,261.66l6.03,3.02l3.82-1.91l-7.24-3.62c-0.25-0.13-0.55-0.13-0.81,0l-1.8,0.9
		C282.81,260.38,282.81,261.33,283.48,261.66z"/>
	<path class="st68" d="M276.78,265.01l6.03,3.02l3.82-1.91l-7.24-3.62c-0.25-0.13-0.55-0.13-0.81,0l-1.8,0.9
		C276.12,263.72,276.12,264.67,276.78,265.01z"/>
	<path class="st68" d="M270.09,268.35l6.03,3.02l3.82-1.91l-7.24-3.62c-0.25-0.13-0.55-0.13-0.81,0l-1.8,0.9
		C269.43,267.07,269.43,268.02,270.09,268.35z"/>
	<path class="st68" d="M263.4,271.7l6.03,3.02l3.82-1.91l-7.24-3.62c-0.25-0.13-0.55-0.13-0.81,0l-1.8,0.9
		C262.74,270.41,262.74,271.36,263.4,271.7z"/>
	<path class="st68" d="M256.71,275.04l6.03,3.02l3.82-1.91l-7.24-3.62c-0.25-0.13-0.55-0.13-0.81,0l-1.8,0.9
		C256.05,273.76,256.05,274.71,256.71,275.04z"/>
	<path class="st68" d="M250.02,278.39l6.03,3.02l3.82-1.91l-7.24-3.62c-0.25-0.13-0.55-0.13-0.81,0l-1.8,0.9
		C249.36,277.11,249.36,278.06,250.02,278.39z"/>
	<path class="st52" d="M385.71,294.64l-50.8,25.4c-8.72,4.36-18.99,4.36-27.72,0l-50.8-25.4c-6.05-3.02-6.05-11.65,0-14.67
		l50.8-25.4c8.72-4.36,18.99-4.36,27.72,0l50.8,25.4C391.75,282.99,391.75,291.62,385.71,294.64z"/>
	<linearGradient id="SVGID_3_" gradientUnits="userSpaceOnUse" x1="253.3013" y1="281.5825" x2="427.8394" y2="284.3885">
		<stop  offset="0" style="stop-color:#DAAB26"/>
		<stop  offset="0.6386" style="stop-color:#D57E29"/>
	</linearGradient>
	<path class="st69" d="M385.71,290.01l-50.8,25.4c-8.72,4.36-18.99,4.36-27.72,0l-50.8-25.4c-6.05-3.02-6.05-11.65,0-14.67
		l50.8-25.4c8.72-4.36,18.99-4.36,27.72,0l50.8,25.4C391.75,278.36,391.75,286.99,385.71,290.01z"/>
	<g>
		<path class="st70" d="M344.4,263.33c6.33,0.01,11.34,2.61,11.39,5.93c0.05,3.11-5,5.61-11.5,5.7c-1.41,0.02-2.62,0.02-3.68,0.02
			c-4.08,0-7.44,0.65-9.7,1.73c-4.15,1.97-4.48,3.51-5.21,8.02c-0.49,3.07-5.56,5.38-11.77,5.37c-6.54-0.01-11.88-2.67-11.9-5.92
			c-0.02-3.04,4.52-5.51,10.8-5.86c10.9-0.62,12.46-0.68,16.05-2.66c2.07-1.14,3.41-2.18,3.61-4.34c0.05-0.51,0.1-1.13,0.2-1.89
			c0.48-3.79,4.47-5.95,11.22-6.08C344.08,263.34,344.24,263.33,344.4,263.33L344.4,263.33z"/>
		<path class="st70" d="M283.29,290.05c-6.33-0.01-11.34-2.61-11.4-5.93c-0.05-3.11,5-5.61,11.51-5.7c1.41-0.02,2.62-0.02,3.68-0.02
			c4.08,0,7.44-0.65,9.7-1.73c4.15-1.97,4.48-3.51,5.21-8.02c0.49-3.07,5.56-5.38,11.77-5.37c6.54,0.01,11.88,2.67,11.9,5.92
			c0.02,3.04-4.52,5.51-10.8,5.86c-10.9,0.62-12.46,0.68-16.05,2.66c-2.07,1.14-3.41,2.18-3.61,4.34c-0.05,0.51-0.1,1.13-0.2,1.89
			c-0.48,3.79-4.46,5.95-11.22,6.08C283.62,290.05,283.45,290.05,283.29,290.05z"/>
		<path class="st70" d="M313.52,305.09c-6.33-0.01-11.34-2.61-11.4-5.93c-0.05-3.11,5-5.61,11.5-5.7c1.41-0.02,2.62-0.02,3.68-0.02
			c4.08,0,7.44-0.65,9.7-1.73c4.15-1.97,4.48-3.51,5.21-8.02c0.49-3.07,5.56-5.38,11.78-5.37c6.54,0.01,11.88,2.67,11.9,5.92
			c0.02,3.04-4.52,5.51-10.8,5.86c-10.9,0.62-12.46,0.68-16.05,2.66c-2.07,1.14-3.41,2.18-3.61,4.34c-0.05,0.51-0.1,1.13-0.2,1.89
			c-0.48,3.79-4.47,5.95-11.22,6.08C313.84,305.09,313.68,305.1,313.52,305.09z"/>
	</g>
</g>
<path class="st52" d="M352.77,391.49l-19.66,9.83c-4,2-8.7,2.01-12.71,0.02l-33.49-16.58c-3.85-1.91-3.86-7.4-0.02-9.32l19.66-9.83
	c4-2,8.7-2.01,12.71-0.02l33.49,16.58C356.6,384.08,356.61,389.57,352.77,391.49z"/>
<path class="st52" d="M395.78,369.99l-19.66,9.83c-4,2-8.7,2.01-12.71,0.02l-33.49-16.58c-3.85-1.91-3.86-7.4-0.02-9.32l19.66-9.83
	c4-2,8.7-2.01,12.71-0.02l33.49,16.58C399.61,362.58,399.63,368.07,395.78,369.99z"/>
<path class="st52" d="M352.77,390.29l-19.66,9.83c-4,2-8.7,2.01-12.71,0.02l-33.49-16.58c-3.85-1.91-3.86-7.4-0.02-9.32l19.66-9.83
	c4-2,8.7-2.01,12.71-0.02l33.49,16.58C356.6,382.88,356.61,388.37,352.77,390.29z"/>
<path class="st52" d="M395.78,368.79l-19.66,9.83c-4,2-8.7,2.01-12.71,0.02l-33.49-16.58c-3.85-1.91-3.86-7.4-0.02-9.32l19.66-9.83
	c4-2,8.7-2.01,12.71-0.02l33.49,16.58C399.61,361.38,399.63,366.87,395.78,368.79z"/>
<path class="st3" d="M352.77,388.39l-19.66,9.83c-4,2-8.7,2.01-12.71,0.02l-33.49-16.58c-3.85-1.91-3.86-7.4-0.02-9.32l19.66-9.83
	c4-2,8.7-2.01,12.71-0.02l33.49,16.58C356.6,380.98,356.61,386.47,352.77,388.39z"/>
<path class="st3" d="M395.78,366.89l-19.66,9.83c-4,2-8.7,2.01-12.71,0.02l-33.49-16.58c-3.85-1.91-3.86-7.4-0.02-9.32l19.66-9.83
	c4-2,8.7-2.01,12.71-0.02l33.49,16.58C399.61,359.47,399.63,364.96,395.78,366.89z"/>
<g>
	<g>
		<g>
			<path class="st5" d="M375.36,352.16c-2.87-1.34-7.61-1.17-10.58,0.38s-3.05,3.89-0.18,5.23c2.87,1.34,7.61,1.17,10.58-0.38
				S378.23,353.5,375.36,352.16"/>
			<path class="st5" d="M370.42,360.62c-3.19,0.26-6.46-0.15-8.86-1.27c-2.4-1.12-3.41-2.7-3.06-4.29
				c-4.24-0.14-8.73,0.69-12.05,2.42c-2.82,1.47,0.71,4.51,5.64,6.81s11.28,3.87,14.1,2.4C369.52,364.96,370.93,362.7,370.42,360.62
				"/>
		</g>
	</g>
</g>
<g>
	<g>
		<path class="st5" d="M315.26,381.81l4.66,0.13l1.97,6.81l-20.79-10.11l13.83,0.87L315.26,381.81 M302.58,376.96l11.18-5.6
			l0.91,6.33L302.58,376.96 M325.29,387.99l-1.66-5.95l12.83,0.35L325.29,387.99 M319.03,379.92l-0.98-7.29l15.77,7.67
			L319.03,379.92 M340.15,380.89l-23.42-11.38c-1.12-0.55-2.99-0.51-4.17,0.08l-15.19,7.61c-1.18,0.59-1.23,1.51-0.1,2.06
			l23.42,11.38c1.12,0.55,2.99,0.51,4.17-0.08l15.19-7.61C341.23,382.36,341.27,381.44,340.15,380.89"/>
	</g>
</g>
<g>
	<g>
		<path class="st71" d="M334.22,217.32c-0.52,4.12-10.33,5.39-8.25,7.73c4.12,4.64,10.83-1.03,10.83-1.03l0.51,1.03l3.61-2.58
			l-0.52-6.7L334.22,217.32z"/>
		<path class="st71" d="M356.62,220.78l-5.81,2.62c0.22,4.15-9.21,7.13-6.75,9.07c4.88,3.84,10.47-2.93,10.47-2.93l0.69,0.92
			l3.1-3.18L356.62,220.78z"/>
	</g>
	<path class="st72" d="M334.22,217.32c-0.52,4.12-10.33,5.39-8.25,7.73c0.36,0.4,0.73,0.72,1.12,0.98c1-2.5,11.92-2.46,13.48-7.34
		l0.06,0l-0.22-2.92L334.22,217.32z M356.62,220.78l-5.81,2.62c0.08,1.43-0.99,2.72-2.33,3.88l-0.02,0.2l-0.5,0.23
		c-2.46,2-5.41,3.57-3.9,4.76c0.07,0.05,0.14,0.1,0.2,0.15c1.36-2.48,11.96-3.4,13.27-8.35L356.62,220.78z"/>
	<path class="st73" d="M349.74,226c0,0,2.25-18.87-4.54-34.03c-7.11-15.85,4.7,1.05,8.88-1.05c4.18-2.09,7.15,33.5,2.97,35.6
		C353.92,228.09,349.74,226,349.74,226z"/>
	<path class="st73" d="M333.64,217.68c0,0,3.36-13.43,0.23-27.34c-0.42-1.84,2.92-4.08,7.15-5.8c4.23-1.72,3.88,32.57-0.35,34.29
		C337.5,220.12,333.64,217.68,333.64,217.68z"/>
	<path class="st74" d="M354.08,190.92c-3.56,1.78-12.64-10.18-10.88-4.01c2.55,2.04,5.99,4.96,7.88,4.01
		c4.18-2.09,7.15,33.5,2.97,35.6c-0.41,0.21-0.84,0.35-1.28,0.44c1.33,0.23,2.91,0.25,4.28-0.44
		C361.24,224.43,358.26,188.83,354.08,190.92z M342.2,191.97c-3.74-8.34-2.24-7.61,0.62-5.36c-0.46-1.55-1.06-2.37-1.8-2.07
		c-0.6,0.24-1.17,0.5-1.72,0.76c2.81,5.02,2.11,32.01-1.63,33.53c-0.2,0.08-0.41,0.15-0.62,0.2c1.14,0.24,2.43,0.28,3.62-0.2
		c2.43-0.99,3.57-12.72,3.31-22.21C343.47,195.05,342.88,193.49,342.2,191.97z"/>
	<path class="st5" d="M323.2,130.71c0.52-1.55,2.58-3.09,3.61-1.55c1.03,1.55,5.67,10.83,5.67,10.83s4.64-13.92,8.25-12.89
		c3.61,1.03-2.53,21.48-8.76,22.17C327.33,149.78,323.2,130.71,323.2,130.71z"/>
	<path class="st75" d="M324.23,122.97c0,0-1.03-5.16,0-5.16c1.03,0,2.06,6.19,2.06,6.19s2.06-2.06,2.06-0.52
		c0,1.55-1.23,7.06-3.44,7.76c-1.55,0.49-4.81-4.15-4.29-5.7C321.14,124,322.17,122.46,324.23,122.97z"/>
	<path class="st4" d="M339.82,127.04c0,0,8.52-5.53,18.44,4.18c5.48,5.36-5.16,10.83-0.52,33.51c4.64,22.68,3.61,26.29,3.61,26.29
		s-8.25,10.83-30.42,0C335.06,170.4,332.5,131.79,339.82,127.04z"/>
	<path class="st5" d="M357.73,131.6c1.84,1.8,2.39,3.07,1.78,5.55c-1.2,4.89-4.85,12.36-1.77,27.41c0.89,4.35,4.25,26.35,3.61,26.47
		c-0.67,0.13-4.98,4.81-11.62,4.78c-2.24-0.01,7.47-12.17,3.46-37.98C351.32,145.82,349.66,132.61,357.73,131.6z"/>
	<path class="st5" d="M339.19,149.27c0,0,13.92-12.89,11.86-21.65c-1.01-4.29-7.73-2.06-7.73-2.06S336.61,140.5,339.19,149.27z"/>
	<path class="st3" d="M339.68,146.89c0,0,12.89-12.07,10.85-20.82c-0.45-1.91-7.93-0.22-7.93-0.22S337.21,138.12,339.68,146.89z"/>
	<path class="st4" d="M353.1,134.83c0.06-0.51,3.61-6.7,7.22-1.55c3.61,5.15,3.61,13.92,4.12,19.59c0.52,5.67-4.12,18.56-4.12,18.56
		s-3.61,0-4.64-2.06c-1.03-2.06,3.09-11.86,1.55-15.98C355.68,149.27,352.59,138.96,353.1,134.83z"/>
	<path class="st75" d="M352.59,174.01h2.06c0,0-2.06,5.67-1.03,5.67c1.03,0,4.64,0.52,5.15-2.06c0.52-2.58,2.06-5.15,1.03-7.22
		C358.77,168.34,355.17,169.37,352.59,174.01z"/>
	<path class="st76" d="M344.3,130.52l0.6,2.81l-1.67,1.15c0,0,1.18,3.93-3.22,11.31c-1.01-6.97,2.45-11.3,2.45-11.3l-0.38-2.24
		L344.3,130.52z"/>
	<path class="st77" d="M339.41,151.34c0.11,0,0.21,0.07,0.29,0.22c0.08,0.15,0.12,0.33,0.12,0.54c0,0.21-0.04,0.39-0.12,0.54
		c-0.08,0.15-0.18,0.22-0.29,0.22c-0.11,0-0.21-0.07-0.29-0.22c-0.08-0.15-0.12-0.33-0.12-0.54c0-0.21,0.04-0.39,0.12-0.54
		C339.2,151.41,339.3,151.34,339.41,151.34z"/>
	<path class="st77" d="M339.41,159.54c0.11,0,0.21,0.07,0.29,0.22c0.08,0.15,0.12,0.33,0.12,0.54c0,0.21-0.04,0.39-0.12,0.54
		c-0.08,0.15-0.18,0.22-0.29,0.22c-0.11,0-0.21-0.07-0.29-0.22c-0.08-0.15-0.12-0.33-0.12-0.54c0-0.21,0.04-0.39,0.12-0.54
		C339.2,159.61,339.3,159.54,339.41,159.54z"/>
	<path class="st77" d="M339.82,167.86c0.11,0,0.21,0.07,0.29,0.22c0.08,0.15,0.12,0.33,0.12,0.54c0,0.21-0.04,0.39-0.12,0.54
		c-0.08,0.15-0.18,0.22-0.29,0.22c-0.11,0-0.21-0.07-0.29-0.22c-0.08-0.15-0.12-0.33-0.12-0.54c0-0.21,0.04-0.39,0.12-0.54
		C339.61,167.93,339.71,167.86,339.82,167.86z"/>
	<path class="st77" d="M339.84,178.96c0.11,0,0.21,0.07,0.29,0.22c0.08,0.15,0.12,0.33,0.12,0.54s-0.04,0.39-0.12,0.54
		c-0.08,0.15-0.18,0.22-0.29,0.22c-0.11,0-0.21-0.07-0.29-0.22c-0.08-0.15-0.12-0.33-0.12-0.54s0.04-0.39,0.12-0.54
		C339.63,179.03,339.73,178.96,339.84,178.96z"/>
	<g>
		<path class="st42" d="M349.47,127.32c0.63-3.02-0.07-3-0.06-4.57c0.02-2.03,0.73-3.6-0.07-4.45c-0.42-0.44-6.92,5.56-11.75,7.13
			c0,0,5.7,1.05,5.7,3.95C343.28,131.23,349.11,129.07,349.47,127.32z"/>
		<path class="st75" d="M338.12,109.83c-0.91,1.28-3.97,14.13-1.28,15.32s7.29,1.82,13.04-5.11c5.74-6.93-4.92-9.57-4.92-9.57
			L338.12,109.83z"/>
		<path class="st46" d="M337.21,105.55c2.83,2.01,6.93-0.27,11.3,1.46c4.38,1.73,5.64,4.74,5.56,7.29
			c-0.18,5.83-3.88,5.28-4.35,10.01c-1.1-0.71,0.43-3.59-0.3-5.48s-2.34,1.55-3.78,1.12c-0.59-0.18-1.09-4.02-0.05-6.47
			c-1.6-1.73-7.93-4.01-8.57-0.38C335.3,110.83,337.21,105.55,337.21,105.55z"/>
	</g>
</g>
<g>
	<path class="st78" d="M288.19,190.64l-11.56-6.02c-2-1-4.36-1-6.36,0l-23.01,10.91c-0.69,0.35-1.04,1.02-1.04,1.68v13.97
		c0,0.67,0.35,1.34,1.04,1.68l11.66,5.83c2,1,4.36,1,6.36,0l22.91-10.72c0.69-0.35,1.04-1.02,1.04-1.68l0,0v-13.97
		C289.23,191.65,288.89,190.99,288.19,190.64z"/>
	<path class="st79" d="M262.1,199.06c-1.09,0,9.17-14.95,8.17-14.44l-23.01,10.91c-0.69,0.35-1.04,1.02-1.04,1.68v13.97
		c0,0.67,0.35,1.34,1.04,1.68l11.66,5.83c1,0.5,2.09,0.75,3.18,0.75V199.06z"/>
	<path class="st5" d="M288.19,186.25l-11.66-5.83c-2-1-4.36-1-6.36,0l-22.91,10.72c-0.69,0.35-1.04,1.02-1.04,1.68v13.97
		c0,0.67,0.35,1.34,1.04,1.68l11.66,5.83c2,1,4.36,1,6.36,0l22.91-10.72c0.69-0.35,1.04-1.02,1.04-1.68l0,0v-13.97
		C289.23,187.26,288.89,186.6,288.19,186.25z"/>
	<path class="st80" d="M262.1,193.88l8.07-13.46l-22.91,10.72c-0.69,0.35-1.04,1.02-1.04,1.68v13.97c0,0.67,0.35,1.34,1.04,1.68
		l11.66,5.83c1,0.5,2.09,0.75,3.18,0.75V193.88z"/>
	<path class="st79" d="M246.22,190.96v5.64c0,0.67,0.35,1.34,1.04,1.68l11.66,5.83c2,1,4.36,1,6.36,0l22.91-10.72
		c0.69-0.35,1.04-1.02,1.04-1.68l0,0v-5.64L246.22,190.96z"/>
	<path class="st5" d="M288.19,187.11l-22.91,10.72c-2,1-4.36,1-6.36,0L247.26,192c-1.39-0.69-1.39-2.67,0-3.37l22.91-10.72
		c2-1,4.36-1,6.36,0l11.66,5.83C289.58,184.44,289.58,186.42,288.19,187.11z"/>
</g>
<g>
	<g>
		<path class="st5" d="M523.23,264.04c0-3.03-4.92-5.5-10.99-5.5c-6.07,0-10.99,2.46-10.99,5.5l3.23,22.31
			c0,2.14,3.47,3.88,7.76,3.88c4.29,0,7.76-1.74,7.76-3.88L523.23,264.04z"/>
		<path class="st3" d="M512.24,258.54c-0.72,0-1.44,0.04-2.14,0.11c-0.71,0.07-1.4,0.17-2.06,0.31c-0.67,0.14-1.3,0.31-1.9,0.51
			c-0.6,0.2-1.16,0.43-1.67,0.68c-0.51,0.26-0.97,0.53-1.37,0.83c-0.4,0.3-0.74,0.62-1.02,0.95c-0.28,0.33-0.48,0.68-0.63,1.03
			c-0.14,0.35-0.21,0.71-0.21,1.07c0,0.36,0.07,0.72,0.21,1.07c0.14,0.35,0.35,0.7,0.63,1.03c0.28,0.33,0.61,0.65,1.02,0.95
			c0.4,0.3,0.86,0.58,1.37,0.83c0.51,0.26,1.07,0.48,1.67,0.68c0.6,0.2,1.23,0.37,1.9,0.51c0.67,0.14,1.35,0.24,2.06,0.31
			c0.71,0.07,1.42,0.11,2.14,0.11s1.44-0.04,2.14-0.11c0.71-0.07,1.4-0.17,2.06-0.31c0.67-0.14,1.3-0.31,1.9-0.51
			c0.6-0.2,1.16-0.43,1.67-0.68c0.51-0.26,0.97-0.53,1.37-0.83c0.4-0.3,0.74-0.62,1.02-0.95c0.28-0.33,0.48-0.68,0.63-1.03
			s0.21-0.71,0.21-1.07c0-0.36-0.07-0.72-0.21-1.07s-0.35-0.7-0.63-1.03c-0.28-0.33-0.61-0.65-1.02-0.95
			c-0.4-0.3-0.86-0.58-1.37-0.83s-1.07-0.48-1.67-0.68c-0.6-0.2-1.23-0.37-1.9-0.51c-0.67-0.14-1.35-0.24-2.06-0.31
			C513.67,258.58,512.96,258.54,512.24,258.54z"/>
		<path class="st4" d="M504.53,260.12c-0.44,0.69-0.7,1.44-0.7,2.23l3.23,25.95c0,0.35,0.08,0.7,0.21,1.03
			c-1.71-0.71-2.8-1.78-2.8-2.98l-3.23-22.31C501.24,262.5,502.5,261.12,504.53,260.12z"/>
		<path class="st56" d="M512.24,259.83c-0.64,0-1.27,0.03-1.89,0.09c-0.62,0.06-1.23,0.15-1.82,0.28c-0.59,0.12-1.15,0.27-1.68,0.45
			c-0.53,0.18-1.02,0.38-1.47,0.6s-0.85,0.47-1.21,0.74c-0.35,0.26-0.65,0.54-0.9,0.84c-0.24,0.29-0.43,0.6-0.55,0.91
			c-0.12,0.31-0.19,0.63-0.19,0.95s0.06,0.63,0.19,0.95c0.12,0.31,0.31,0.62,0.55,0.91c0.24,0.29,0.54,0.57,0.9,0.84
			c0.35,0.26,0.76,0.51,1.21,0.73s0.94,0.43,1.47,0.6c0.53,0.18,1.09,0.33,1.68,0.45c0.59,0.12,1.19,0.21,1.82,0.28
			c0.62,0.06,1.26,0.09,1.89,0.09s1.27-0.03,1.89-0.09c0.62-0.06,1.23-0.15,1.82-0.28c0.59-0.12,1.15-0.27,1.68-0.45
			c0.53-0.18,1.02-0.38,1.47-0.6s0.85-0.47,1.21-0.73c0.35-0.26,0.65-0.54,0.9-0.84c0.24-0.29,0.43-0.6,0.55-0.91
			c0.12-0.31,0.19-0.63,0.19-0.95s-0.06-0.63-0.19-0.95c-0.12-0.31-0.31-0.62-0.55-0.91c-0.24-0.29-0.54-0.57-0.9-0.84
			c-0.35-0.26-0.76-0.51-1.21-0.74s-0.94-0.43-1.47-0.6c-0.53-0.18-1.09-0.33-1.68-0.45c-0.59-0.12-1.19-0.21-1.82-0.28
			C513.5,259.87,512.87,259.83,512.24,259.83z"/>
	</g>
	<path class="st57" d="M493.18,197.43c0,0,16.04,38.16,17.83,68.23l-2.42-0.58C508.59,265.08,493.67,220.37,493.18,197.43z"/>
	<path class="st59" d="M502.71,192.34c0,0,13.73,39.75,10.23,73.43l-4.35-0.69C508.59,265.08,501.79,218.95,502.71,192.34z"/>
	<path class="st58" d="M513.1,207.85c0,0,4.66,40.7,1.08,57.52l-1.86,1.84C512.33,267.22,509.28,229.19,513.1,207.85z"/>
	<path class="st57" d="M520.94,193.31c0,0,1.61,38.49-5.03,71.58l-2.97,0.88C512.94,265.76,512.8,213.59,520.94,193.31z"/>
	<path class="st59" d="M530.55,196.01c0,0-5.16,46.61-16.36,69.36l-3.17,0.29C511.02,265.66,520.76,214.99,530.55,196.01z"/>
</g>
<g>
	<polygon class="st4" points="497.81,302.17 492.36,299.44 486.92,283.1 497.81,288.55 	"/>
	<polygon class="st81" points="497.81,288.55 486.92,283.1 497.81,277.65 508.71,283.1 	"/>
	<polygon class="st82" points="505.98,284.46 497.81,280.38 489.64,284.46 497.81,288.55 	"/>
	<polygon class="st5" points="497.81,302.17 497.81,288.55 508.71,283.1 503.26,299.44 	"/>
	<polygon class="st58" points="506.76,264.04 494.31,285.83 500.54,285.83 	"/>
	<polygon class="st57" points="497.42,264.04 494.31,285.83 500.54,285.83 	"/>
</g>
<g>
	<path class="st71" d="M439.78,305.75c-0.56,4.44-11.12,5.8-8.88,8.33c4.44,5,11.66-1.11,11.66-1.11l0.55,1.11l3.89-2.78l-0.56-7.22
		L439.78,305.75z"/>
	<path class="st71" d="M460.93,305.36l-6.26,2.82c0.24,4.47-9.92,7.68-7.27,9.77c5.26,4.13,11.27-3.16,11.27-3.16l0.74,0.99
		l3.33-3.42L460.93,305.36z"/>
	<path class="st72" d="M439.78,305.75c-0.56,4.44-11.12,5.8-8.88,8.33c0.38,0.43,0.79,0.78,1.21,1.05
		c1.08-2.69,12.83-2.65,14.51-7.9l0.06,0l-0.24-3.14L439.78,305.75z"/>
	<path class="st72" d="M460.93,305.36l-6.26,2.82c0.08,1.54-1.07,2.93-2.51,4.18l-0.02,0.22l-0.54,0.25
		c-2.65,2.15-5.82,3.85-4.2,5.12c0.07,0.06,0.15,0.1,0.22,0.16c1.47-2.67,12.88-3.66,14.29-8.99L460.93,305.36z"/>
	<path class="st73" d="M453.53,310.97c0,0,2.43-20.32-4.89-36.64c-7.65-17.07,5.06,1.13,9.57-1.13c4.5-2.25,7.7,36.07,3.2,38.32
		C458.03,313.22,453.53,310.97,453.53,310.97z"/>
	<path class="st73" d="M439.16,306.14c0,0,3.62-14.46,0.24-29.43c-0.45-1.98,3.15-4.4,7.7-6.25c4.55-1.85,4.17,35.07-0.38,36.92
		C443.31,308.77,439.16,306.14,439.16,306.14z"/>
	<path class="st74" d="M458.21,273.21c-3.83,1.92-13.6-10.97-11.71-4.32c2.75,2.19,6.45,5.34,8.48,4.32
		c4.5-2.25,7.7,36.07,3.2,38.32c-0.44,0.22-0.91,0.37-1.38,0.47c1.44,0.25,3.13,0.27,4.61-0.47
		C465.91,309.28,462.71,270.96,458.21,273.21z"/>
	<path class="st74" d="M448.37,278.47c-4.02-8.98-2.41-8.2,0.67-5.77c-0.5-1.67-1.14-2.56-1.94-2.23c-0.64,0.26-1.26,0.53-1.85,0.81
		c3.03,5.41,2.27,34.47-1.75,36.1c-0.22,0.09-0.44,0.16-0.66,0.22c1.23,0.26,2.61,0.3,3.89-0.22c2.61-1.06,3.85-13.7,3.56-23.91
		C449.74,281.78,449.1,280.1,448.37,278.47z"/>
	<path class="st75" d="M436.34,255.6c-1.1-0.18-0.7-4.71-0.7-4.71s-2.57,1.85-2.3,0.2c0.27-1.66,2.74-6.37,4.48-6.65
		s4.08,4.02,4.17,5.79C442.21,254.54,437.44,255.79,436.34,255.6z"/>
	<path class="st5" d="M440.38,245.4c-1.25,2.04-5.92-0.11-5.44-1.26c0.78-1.87,2.15-9.08,2.71-14.22s1.22-13.28,2.84-17.02
		c1.05-2.42,10.53-10.72,13.28-2.42c0.97,2.93-9.62,13.68-9.67,16.08C444.01,231.63,440.38,245.4,440.38,245.4z"/>
	<path class="st4" d="M444.75,208.56c0,0,9.17-5.95,19.85,4.5c5.9,5.77-5.55,11.66-0.56,36.08c5,24.42,3.89,28.31,3.89,28.31
		s-8.88,11.66-32.75,0C439.63,255.25,436.87,213.68,444.75,208.56z"/>
	<path class="st5" d="M464.03,213.47c1.99,1.94,2.58,3.3,1.92,5.97c-1.3,5.26-5.22,13.31-1.9,29.51c0.96,4.68,4.58,28.37,3.89,28.5
		c-0.72,0.14-5.36,5.18-12.52,5.15c-1.54-0.01,2.18-5.36,3.93-16.49c0.36-2.31-8.45-8.39-8.32-11.21
		c0.22-4.82,8.25-12.46,7.27-18.78C456.29,223.18,455.34,214.55,464.03,213.47z"/>
	<path class="st5" d="M444.07,232.49c0,0,14.99-13.88,12.76-23.31c-1.09-4.62-8.33-2.22-8.33-2.22S441.29,223.05,444.07,232.49z"/>
	<path class="st3" d="M444.6,229.93c0,0,13.88-13,11.68-22.42c-0.48-2.05-8.54-0.23-8.54-0.23S441.94,220.49,444.6,229.93z"/>
	<path class="st76" d="M449.57,212.31l0.65,3.02l-1.8,1.24c0,0,1.27,4.23-3.47,12.18c-1.09-7.5,2.63-12.17,2.63-12.17l-0.41-2.41
		L449.57,212.31z"/>
	<path class="st77" d="M444.31,234.72c0.12,0,0.23,0.08,0.31,0.24c0.09,0.16,0.13,0.35,0.13,0.58c0,0.23-0.04,0.42-0.13,0.58
		c-0.09,0.16-0.19,0.24-0.31,0.24c-0.12,0-0.23-0.08-0.31-0.24c-0.09-0.16-0.13-0.35-0.13-0.58c0-0.23,0.04-0.42,0.13-0.58
		C444.09,234.8,444.19,234.72,444.31,234.72z"/>
	<path class="st77" d="M444.31,243.55c0.12,0,0.23,0.08,0.31,0.24c0.09,0.16,0.13,0.35,0.13,0.58s-0.04,0.42-0.13,0.58
		c-0.09,0.16-0.19,0.24-0.31,0.24c-0.12,0-0.23-0.08-0.31-0.24c-0.09-0.16-0.13-0.35-0.13-0.58s0.04-0.42,0.13-0.58
		C444.09,243.63,444.19,243.55,444.31,243.55z"/>
	<path class="st77" d="M444.75,252.51c0.12,0,0.23,0.08,0.31,0.24c0.09,0.16,0.13,0.35,0.13,0.58c0,0.23-0.04,0.42-0.13,0.58
		c-0.09,0.16-0.19,0.24-0.31,0.24c-0.12,0-0.23-0.08-0.31-0.24c-0.09-0.16-0.13-0.35-0.13-0.58c0-0.23,0.04-0.42,0.13-0.58
		C444.53,252.59,444.63,252.51,444.75,252.51z"/>
	<path class="st77" d="M444.78,264.46c0.12,0,0.23,0.08,0.31,0.24c0.09,0.16,0.13,0.35,0.13,0.58s-0.04,0.42-0.13,0.58
		c-0.09,0.16-0.19,0.24-0.31,0.24c-0.12,0-0.23-0.08-0.31-0.24c-0.09-0.16-0.13-0.35-0.13-0.58s0.04-0.42,0.13-0.58
		C444.55,264.54,444.65,264.46,444.78,264.46z"/>
	<g>
		<path class="st42" d="M455.83,208.88c0.23-3.31,0.13-3.95-0.08-5.63c-0.27-2.16,0.26-3.95-0.72-4.74
			c-0.51-0.41-6.57,6.93-11.5,9.31c0,0,4.71,0.02,5.13,3.11C448.92,212.9,455.7,210.8,455.83,208.88z"/>
		<path class="st75" d="M446.48,187.49c-2.95,0.41-4.96,4.6-5.11,5.58c-0.68,4.32-1.15,13.84,1.33,14.55
			c3.04,0.87,8.05,0.89,13.17-7.34c5.12-8.22-3.02-12.38-3.02-12.38L446.48,187.49z"/>
		<path class="st46" d="M452.51,186.57c4.99,0.9,6.71,4.24,6.99,6.97c0.65,6.25-3.38,6.19-3.19,11.31c-1.27-0.6-0.06-3.89-1.12-5.8
			c-1.05-1.91-2.27,1.99-3.87,1.75c-0.66-0.1-1.14-4.04,0.7-6.78c3-4.48-0.53-6.13-1.68-6.28c-6.82-0.87-8.75,4.02-9.2,6.99
			C440.82,192.54,443.43,184.94,452.51,186.57z"/>
	</g>
	<path class="st75" d="M452.53,252.51l2.24-0.15c0,0-1.82,6.3-0.7,6.22c1.12-0.07,5.07,0.22,5.44-2.61c0.37-2.83,1.86-5.74,0.59-7.9
		C458.82,245.91,454.99,247.29,452.53,252.51z"/>
	<path class="st4" d="M458.41,216.11c0.15-0.54,4.97-6.61,8.01-0.49c3.04,6.12,5.25,15.15,4.89,21.32
		c-0.37,6.18-11.31,15.01-11.31,15.01s-2.68-1.63-3.45-4.01c-0.77-2.38,8.83-7.33,7.84-12.01
		C463.39,231.25,457.18,220.46,458.41,216.11z"/>
	<path class="st5" d="M450.24,259.06c0.08-0.7,0.31-1.37,0.52-2.04c0.28-0.93,0.51-1.85,0.07-2.8c-0.1-0.22,0.02-0.41,0.22-0.53
		c0.27-0.17,0.57-0.23,0.87-0.26c1.2-0.14,2.4-0.05,3.6,0.07c1.76,0.18,3.51,0.45,5.25,0.76c0.28,0.05,0.43,0.15,0.52,0.44
		c0.55,1.78,0.81,3.57,0.35,5.4c-0.22,0.87-0.57,1.68-1.3,2.26c-0.59,0.47-1.27,0.74-1.99,0.91c-0.66,0.15-1.34,0.25-2.03,0.18
		c-1.45,0.01-2.81-0.3-4.1-0.96c-0.88-0.45-1.49-1.13-1.84-2.05C450.2,259.98,450.18,259.52,450.24,259.06z"/>
	<path class="st4" d="M451.64,261.54c-0.17-0.44-0.19-0.9-0.14-1.37c0.08-0.7,0.31-1.37,0.52-2.04c0.28-0.93,0.51-1.85,0.07-2.8
		c-0.1-0.22,0.02-0.41,0.22-0.53c0.27-0.17,0.57-0.23,0.87-0.26c1.2-0.14,2.4-0.05,3.6,0.07c1.41,0.14,2.82,0.36,4.22,0.59
		c-0.03-0.1-0.06-0.2-0.09-0.3c-0.09-0.29-0.24-0.39-0.52-0.44c-1.74-0.31-3.49-0.59-5.25-0.76c-1.2-0.12-2.4-0.21-3.6-0.07
		c-0.31,0.03-0.61,0.1-0.87,0.26c-0.2,0.12-0.32,0.31-0.22,0.53c0.43,0.95,0.21,1.87-0.07,2.8c-0.2,0.67-0.44,1.33-0.52,2.04
		c-0.05,0.47-0.03,0.93,0.14,1.37c0.35,0.92,0.96,1.6,1.84,2.05c0.29,0.15,0.59,0.28,0.89,0.39
		C452.25,262.67,451.88,262.16,451.64,261.54z"/>
</g>
<g>
	
		<linearGradient id="SVGID_4_" gradientUnits="userSpaceOnUse" x1="232.849" y1="304.3044" x2="252.3438" y2="302.7065" gradientTransform="matrix(1 0 0 1 169.3585 0)">
		<stop  offset="0" style="stop-color:#E9EDF6"/>
		<stop  offset="0.9949" style="stop-color:#C3DEF1"/>
		<stop  offset="1" style="stop-color:#C3DEF1"/>
	</linearGradient>
	<path class="st83" d="M417.35,271.81c0-1.29-2.1-2.34-4.68-2.34c-2.59,0-4.68,1.05-4.68,2.34l-7.03,59.72
		c0,3.23,5.24,5.85,11.71,5.85c6.47,0,11.71-2.62,11.71-5.85L417.35,271.81z"/>
	<path class="st4" d="M412.66,248.39c14.18-0.57,49.85,7.44,36.78,27.52c-16.45,16.82-60,17.19-74.88-1.84
		C366.06,254.24,398.81,248.25,412.66,248.39z"/>
	<path class="st47" d="M412.66,246.05c14.18-0.57,49.85,7.44,36.78,27.52c-16.45,16.82-60,17.19-74.88-1.84
		C366.06,251.9,398.81,245.91,412.66,246.05z"/>
</g>
<g>
	<g>
		<g>
			<polygon class="st84" points="178.12,248.94 159.39,239.57 168.76,220.84 			"/>
			
				<linearGradient id="SVGID_5_" gradientUnits="userSpaceOnUse" x1="4.7101" y1="271.7967" x2="24.2049" y2="270.1988" gradientTransform="matrix(1 0 0 1 169.3585 0)">
				<stop  offset="0" style="stop-color:#E9EDF6"/>
				<stop  offset="0.9949" style="stop-color:#C3DEF1"/>
				<stop  offset="1" style="stop-color:#C3DEF1"/>
			</linearGradient>
			<path class="st85" d="M189.21,239.3c0-1.29-2.1-2.34-4.68-2.34c-2.59,0-4.68,1.05-4.68,2.34l-7.03,59.72
				c0,3.23,5.24,5.85,11.71,5.85c6.47,0,11.71-2.62,11.71-5.85L189.21,239.3z"/>
			<path class="st4" d="M184.52,215.88c14.18-0.57,49.85,7.44,36.78,27.52c-16.45,16.82-60,17.19-74.88-1.84
				C137.92,221.73,170.67,215.74,184.52,215.88z"/>
			<path class="st47" d="M184.52,213.54c14.18-0.57,49.85,7.44,36.78,27.52c-16.45,16.82-60,17.19-74.88-1.84
				C137.92,219.39,170.67,213.4,184.52,213.54z"/>
			<polygon class="st81" points="182.77,245.27 182.77,244.08 168.47,236.93 168.47,238.12 			"/>
			<polygon class="st41" points="204.21,234.55 204.21,233.35 182.77,244.08 182.77,245.27 			"/>
			<polygon class="st41" points="204.21,233.35 182.77,244.08 168.47,236.93 189.94,226.21 			"/>
			<polygon class="st41" points="189.94,226.21 168.47,238.12 165.29,220.36 186.81,209.63 187.61,209.53 			"/>
			<polygon class="st3" points="188.76,225.6 186.69,211.13 167.24,220.86 169.31,235.32 			"/>
			<polygon class="st71" points="180.39,240.5 197.07,232.16 189.92,228.59 173.24,236.93 			"/>
			<path class="st71" d="M216.44,324.78c-1.5,2.08-10.31,0-11.47-1.5c-1.16-1.51,10.36-4.47,10.89-3.61
				C216.4,320.51,217.94,322.7,216.44,324.78z"/>
			<path class="st71" d="M223.26,322.12c-1.78,5.5-6.67-0.68-6.82-5.47C216.29,311.85,223.74,319.93,223.26,322.12z"/>
			<path class="st86" d="M219.63,321.36c-0.73-1.46-2.65-32.08-3.76-30.58c-1.11,1.51,1.6,30.48,0,32.56
				c-0.9,1.18-2.17,0.71-2.79-1.15c-0.62-1.86-8.47-36.55-8.18-38.68c0.29-2.13,18.61-4.35,18.81-3.11
				c0.2,1.24-0.24,40.62-1.93,42.18C220.66,323.6,219.63,321.36,219.63,321.36z"/>
			<path class="st5" d="M223.77,216.93c5.04-1.51,8.83,3.06,9.54,11.79c0.54,6.67,3.94,12,0.93,14.72
				c-3.01,2.71-15.67,1.64-15.7-0.83c-0.03-2.47,11.45-1.28,10.86-3.69c-0.59-2.41-7.82-15.36-7.22-16.27
				C222.79,221.75,223.77,216.93,223.77,216.93z"/>
			<path class="st4" d="M227.91,218.13c-2.5-3.38-18.98,0.3-23.2,11.75c-4.22,11.45,1.21,15.67,1.21,22.9
				c0,7.23-5.62,32.84-2.81,33.44c2.81,0.6,22.09,2.51,23.9-3.22c0.86-2.72,2.11-20.88-0.9-29.92
				C223.09,244.04,233.03,225.06,227.91,218.13z"/>
			<path class="st75" d="M214.34,220.84c-0.01-2.45-0.69-3.2-0.69-3.2c-1.06-1.51-1.38-0.66-2.67-0.71
				c-0.67-0.03-2.16-2.75-3.22-5.8c-0.33-0.95,0.37-2.43,0.16-3.37c-0.4-1.86-1.46-3.05-0.92-4.03c1.7-3.04,9.6-3.77,10.94-1.82
				c1.34,1.94,4.59,16.38,1.93,17.41C217.21,220.35,214.34,220.84,214.34,220.84z"/>
			<path class="st5" d="M204.72,229.88c-4.22,11.45,1.21,15.67,1.21,22.9c0,2.62-0.74,7.65-1.55,13.03c0.02,0,0.04,0,0.05,0
				c4.53,0,9.22-21.79,9.22-34.97c0-7.69-2.27-3.43-4.21-7.79C207.41,224.9,205.71,227.17,204.72,229.88z"/>
			<g>
				<g>
					<path class="st42" d="M214.21,213.87c1.44-0.53,4.13,6.28,2.56,6.96c-3.61,1.59-2.43-4.95-4.49-3.96
						c-0.78,0.38-1.48,0.18-1.87-0.35C213.3,217.29,211.29,214.94,214.21,213.87z"/>
				</g>
			</g>
			<path class="st75" d="M182.26,242.74c1.03,1.16,6.24,4.56,7.3,3.85c1.09-0.73,3.81-1.28,2.34-2.17c-2.46-1.49-2.4-3.16-5.68-4.69
				c-1.29-0.6-4.51-0.3-4.43,0.1c0.08,0.4,3.53,0.28,3.58,2.81c0.02,0.88-1.62-0.26-2.98-0.95
				C181.03,241.02,182.26,242.74,182.26,242.74z"/>
			<path class="st4" d="M212.85,225.06c3.3,3.19-3.25,26.29-6.73,29.6c-3.49,3.31-15.84-4.96-17.68-7.54
				c-0.64-0.9,1.62-3.87,3.6-3.05c3.95,1.65,9.59,4,9.8,3.35C203.26,243.01,206,214.83,212.85,225.06z"/>
		</g>
		<path class="st46" d="M217.88,195.76c9.75,1.6,8.1,9.75,7.4,15.41c-0.7,5.66,3.27,2.64,3.24,8.27c-0.02,4.78-3.06,4.65-1.87,6.84
			c3.12,5.7-2.47,7.92-4.74,8.63c-2.27,0.7,1.38,3.1,1.38,3.1s-6.5,1.13-6.13-3.8c0.37-4.93,0.64-6.06-2.45-7.32
			c-3.1-1.27-3.02-3.78-1.73-7.85c0.69-2.17,1.43-3.59,0.66-7.9c1.75-0.74,3.35-3.2,2.11-4.02c-0.81-0.53-2.11,0.32-2.73,1.13
			c0.49-6.36-2.55-6.67-6.35-3.71C206.66,196.43,214.34,195.18,217.88,195.76z"/>
	</g>
	<g>
		<g>
			<polygon class="st87" points="167.81,246.1 157.27,240.96 163.16,238.12 173.7,243.27 			"/>
			<polygon class="st47" points="169.92,242.18 163.17,238.87 159.02,240.87 165.76,244.18 			"/>
			<polygon class="st88" points="167.81,247.25 167.81,246.1 173.7,243.27 173.7,244.42 			"/>
			<polygon class="st89" points="157.27,242.1 157.27,240.96 167.81,246.1 167.81,247.25 			"/>
		</g>
		<ellipse class="st89" cx="169.02" cy="243.87" rx="0.9" ry="0.45"/>
	</g>
	<polygon class="st41" points="176.57,224.51 176.57,223.87 171.35,226.48 171.35,227.12 	"/>
	<polygon class="st41" points="176.57,226.6 176.57,225.96 174.45,227 174.45,227.64 	"/>
	<polygon class="st19" points="182.62,224.77 184.9,218.69 183.54,217.71 181.93,222.84 180.11,221.79 179.54,223.02 	"/>
</g>
<line class="st60" x1="261.98" y1="227.12" x2="304.88" y2="206.41"/>
<g>
	<polygon class="st2" points="440.04,272.41 392.58,248.53 392.58,212.86 440.04,236.74 	"/>
	<polygon class="st4" points="440.04,236.74 392.58,212.86 395.09,211.61 442.54,235.49 	"/>
	<polygon class="st5" points="440.04,272.41 440.04,236.74 442.54,235.49 442.54,271.16 	"/>
</g>
</svg>
