<?xml version="1.0" encoding="utf-8"?>
<!-- Generator: Adobe Illustrator 24.3.0, SVG Export Plug-In . SVG Version: 6.00 Build 0)  -->
<svg version="1.1" id="Layer_1" xmlns="http://www.w3.org/2000/svg" xmlns:xlink="http://www.w3.org/1999/xlink" x="0px" y="0px"
	 viewBox="0 0 615 522" style="enable-background:new 0 0 615 522;" xml:space="preserve">
<style type="text/css">
	.st0{fill:#EEF7FC;}
	.st1{fill:none;stroke:#D83C95;stroke-width:1.0303;stroke-linecap:round;stroke-linejoin:round;}
	.st2{fill:none;stroke:#D83C95;stroke-width:1.0303;stroke-linecap:round;stroke-linejoin:round;stroke-dasharray:2.9243,5.8487;}
	.st3{fill:none;stroke:#D83C95;stroke-width:1.0303;stroke-linecap:round;stroke-linejoin:round;stroke-dasharray:3.032,6.0639;}
	.st4{fill:none;stroke:#D83C95;stroke-width:1.0303;stroke-linecap:round;stroke-linejoin:round;stroke-dasharray:3.0508,6.1016;}
	.st5{fill:none;stroke:#D83C95;stroke-width:1.0303;stroke-linecap:round;stroke-linejoin:round;stroke-dasharray:3.0234,6.0467;}
	.st6{fill:none;stroke:#D8E8F6;stroke-width:1.0303;stroke-linecap:round;stroke-linejoin:round;stroke-miterlimit:10;}
	.st7{fill:none;stroke:#D83C95;stroke-width:1.0303;stroke-linecap:round;stroke-linejoin:round;stroke-miterlimit:10;}
	.st8{fill:#D8E8F6;}
	.st9{fill:#FFFFFF;}
	.st10{fill:#CDE2F4;}
	.st11{fill:#E3EBF6;}
	.st12{fill:#80868F;}
	.st13{fill:#5F6A73;}
	.st14{fill:#A6BCC8;}
	.st15{fill:#323C44;}
	.st16{fill:#C6DEF3;}
	.st17{fill:#5F6A74;}
	.st18{fill:#A27E6B;}
	.st19{fill:#BB9F8F;}
	.st20{fill:#89ABD9;}
	.st21{fill:#51A97E;}
	.st22{fill:#D7E7F6;}
	.st23{fill:#EEF8FD;}
	.st24{fill:#484365;}
	.st25{fill:#E3EAF6;}
	.st26{fill:#D83C95;}
	.st27{fill:#70787F;}
	.st28{fill:url(#SVGID_1_);}
	.st29{fill:#A1A9B0;}
	.st30{fill:#FCCCA8;}
	.st31{fill:#D6A480;}
	.st32{fill:#754C28;}
	.st33{fill:#67658E;}
	.st34{fill:#545378;}
	.st35{fill:#484264;}
	.st36{fill:#57BD8D;}
	.st37{fill:#BC9F8F;}
	.st38{fill:#F79B67;}
	.st39{fill:#2F67B0;}
	.st40{fill:#0C509D;}
	.st41{fill:#764D2A;}
	.st42{fill:#447ABD;}
	.st43{fill:#E6F5FC;}
	.st44{fill:#FCCCA9;}
	.st45{opacity:0.5;fill:#DAA885;enable-background:new    ;}
	.st46{fill:#676E74;}
	.st47{fill:#CFAC8C;}
	.st48{fill:#B38D6C;}
	.st49{fill:#FFFFF9;}
	.st50{fill:#A6BBC7;}
	.st51{fill:#59BE8E;}
	.st52{fill:#80BDE7;}
	.st53{fill:#EE3B25;}
	.st54{fill:#FBD234;}
	.st55{fill:#545478;}
	.st56{fill:#F79B65;}
	.st57{fill:#2E66B0;}
	.st58{fill:#0A4E9E;}
	.st59{fill:#E5F5FC;}
	.st60{opacity:0.5;fill:#DAA885;}
	.st61{opacity:0.1;fill:#EFBC2E;}
	.st62{fill:#656E73;}
	.st63{fill:#CEAB8C;}
	.st64{fill:#FFFDF8;}
	.st65{opacity:0.7;}
	.st66{fill:#DAA885;}
	.st67{fill:#AF1E56;}
	.st68{fill:#EE3824;}
	.st69{fill:#FCD232;}
	.st70{fill:#E38DBB;}
	.st71{fill:#FCEAF2;}
	.st72{fill:#4178BB;}
	.st73{fill:#FCCCA7;}
	.st74{fill:none;stroke:#D83C95;stroke-width:1.0303;stroke-linecap:round;stroke-linejoin:round;stroke-dasharray:2.6905,5.3809;}
	.st75{fill:none;stroke:#D83C95;stroke-width:1.0303;stroke-linecap:round;stroke-linejoin:round;stroke-dasharray:3.0356,6.0712;}
</style>
<g>
	<polygon class="st0" points="308.7,208.2 571.9,339.7 605,322.3 105.4,69.1 72.3,86.6 274.7,191.2 167,245.7 50.2,184.5 
		17.1,201.9 238.1,315.4 130,370.1 50.2,331.4 17.1,348.8 346.1,515.7 379.2,498.3 163.9,387.1 272,332.5 560.7,472.8 593.9,455.4 
		200.9,262.7 	"/>
	<g>
		<g>
			<line class="st1" x1="275.8" y1="149.6" x2="274.5" y2="150.4"/>
			<line class="st2" x1="269.5" y1="153.3" x2="256.8" y2="160.6"/>
			<polyline class="st1" points="254.3,162.1 253,162.8 254.3,163.5 			"/>
			<line class="st3" x1="259.7" y1="166.2" x2="305.8" y2="189.4"/>
			<polyline class="st1" points="308.5,190.8 309.8,191.4 308.5,192.1 			"/>
			<line class="st4" x1="303" y1="194.9" x2="175.1" y2="259.6"/>
			<polyline class="st1" points="172.4,260.9 171,261.6 172.4,262.3 			"/>
			<line class="st5" x1="177.8" y1="265" x2="272.2" y2="312.7"/>
			<line class="st1" x1="274.9" y1="314.1" x2="276.3" y2="314.7"/>
		</g>
	</g>
	<ellipse class="st6" cx="116.6" cy="438.6" rx="36.1" ry="18"/>
	<polyline class="st7" points="133.4,434.6 179.2,411.5 133.2,387.1 275.5,314.2 361.3,357.5 383.6,345.1 	"/>
	<g>
		<path class="st8" d="M233.7,115.7l53.7,19.5l57.9-20.7l0,7.1c0,0,0,3.4-5.6,6.2L299,148.3c-8.3,4.1-18,4.1-26.3,0L242,132.9
			c-7.9-4.1-8.2-8.5-8.2-8.5L233.7,115.7z"/>
		<path class="st9" d="M340,123.5l-41,20.6c-8.3,4.1-18,4.1-26.3,0l-30.6-15.3c-11.3-5.6-11.3-21.7,0-27.4l30.9-15.6
			c8.2-4.1,17.9-4.1,26.1,0l40.8,20.4C347.1,109.8,347.1,120,340,123.5z"/>
		<path class="st0" d="M285.9,141.7c3.7,0,7.4-0.9,10.7-2.5l41-20.6c2-1,2.3-2.9,2.3-3.7c0-0.8-0.2-2.6-2.3-3.7l-40.8-20.4
			c-3.3-1.6-6.9-2.5-10.6-2.5c-3.7,0-7.3,0.9-10.6,2.5l-30.9,15.6c-3.4,1.7-5.4,5-5.4,8.8c0,3.8,2,7.1,5.4,8.8l30.6,15.3
			C278.5,140.9,282.2,141.7,285.9,141.7z"/>
		<g>
			<g>
				<g>
					<path class="st10" d="M243.8,54.2L268.1,42c0.3-0.2,0.5-0.5,0.5-0.9v-3c0-0.1-0.8-0.6-1.4-0.2L243,50.1
						c-0.3,0.2-0.5,0.5-0.5,0.9v2.4C242.4,54,243.2,54.5,243.8,54.2z"/>
					<path class="st11" d="M267.3,37.3L243,49.5c-0.3,0.2-0.5,0.5-0.5,0.9v1c0-0.4,0.2-0.7,0.5-0.9l24.3-12.2
						c0.6-0.3,1.1-0.5,1.4,0.1v-0.2C268.7,37.4,267.9,37,267.3,37.3z"/>
					
						<ellipse transform="matrix(0.7071 -0.7071 0.7071 0.7071 42.6646 194.5759)" class="st12" cx="256.2" cy="45.8" rx="1.4" ry="1"/>
					
						<ellipse transform="matrix(0.7071 -0.7071 0.7071 0.7071 42.6333 194.6321)" class="st13" cx="256.3" cy="45.9" rx="1" ry="0.7"/>
					
						<ellipse transform="matrix(0.7071 -0.7071 0.7071 0.7071 42.9401 194.69)" class="st9" cx="256.5" cy="45.5" rx="0.4" ry="0.3"/>
				</g>
				<path class="st14" d="M243.2,50.3c-0.8,0-0.7-0.4-0.7-0.4c-0.1,0.1-0.1,0.4-0.1,0.4v3.2c0,0,0.1,0.8,0.8,0.8V50.3z"/>
			</g>
			<g>
				<polygon class="st11" points="234.2,93.7 281.5,70.1 281.5,38.9 234.2,62.5 				"/>
				<polygon class="st8" points="234.2,62.5 281.5,38.9 280.6,38.4 233.3,62 				"/>
				<polygon class="st8" points="234.2,93.7 234.2,62.5 233.3,62 233.3,93.2 				"/>
				<polygon class="st15" points="279.7,41.5 236.1,63.3 236.1,91 279.7,69.2 				"/>
			</g>
		</g>
		<g>
			<g>
				<polygon class="st9" points="236.1,134.5 264.9,149 272.4,145.1 243.5,130.6 				"/>
				<polygon class="st16" points="264.9,149 264.9,152.1 272.4,148.2 272.4,145.1 				"/>
				<polygon class="st8" points="236.1,134.5 236.1,137.7 264.9,152.1 264.9,149 				"/>
			</g>
			<polygon class="st0" points="238.4,135.7 262.5,147.7 269.9,143.8 245.9,131.8 			"/>
		</g>
		<g>
			<g>
				<polygon class="st17" points="302.9,100.2 304.2,99.6 303.3,112.8 302.9,112.9 				"/>
				<polygon class="st12" points="302.5,112.8 301.6,99.6 302.9,100.2 302.9,112.9 				"/>
				<polygon class="st17" points="313,95 314.3,94.3 313.4,107.5 313,107.6 				"/>
				<polygon class="st12" points="312.8,107.5 311.8,94.3 313,95 313,107.6 				"/>
				<polygon class="st18" points="293.9,95.7 295.2,95.1 294.3,108.2 293.9,108.4 				"/>
				<polygon class="st19" points="293.7,108.3 292.7,95.1 293.9,95.7 293.9,108.4 				"/>
				<g>
					<g>
						<path class="st20" d="M299.7,101c1.3,0.6,2.7,0.8,4,0.1l11-5.5v-1.4L292.1,96v0.4L299.7,101z"/>
					</g>
					<path class="st21" d="M301.5,100L301.5,100l-9.5-4v0.4c0,0.4,0.3,0.8,0.6,1l7.6,3.8C301,101.6,301.6,100.9,301.5,100z"/>
					<g>
						<path class="st22" d="M293,97.1l6.9,3.5c1.2,0.6,2.6,0.6,3.7,0l11.2-5.5l-10.3-6l-11.7,5.8C291.9,95.2,291.9,96.6,293,97.1z"
							/>
					</g>
					<g>
						<polygon class="st20" points="317,79.6 314.7,95.6 313.9,95.3 303,89.7 305.2,74.3 306,74.1 						"/>
					</g>
					<g>
						<g>
							<polygon class="st16" points="316.4,79.8 313.9,95.3 303,89.7 305.2,74.3 							"/>
						</g>
					</g>
				</g>
			</g>
			<g>
				<polygon class="st17" points="275.7,113.6 276.9,112.9 276,126.1 275.7,126.3 				"/>
				<polygon class="st12" points="275.4,126.1 274.4,112.9 275.7,113.6 275.7,126.3 				"/>
				<polygon class="st17" points="287.1,107.9 288.3,107.3 287.6,120.4 287.1,120.6 				"/>
				<polygon class="st12" points="286.8,120.5 285.9,107.3 287.1,107.9 287.1,120.6 				"/>
				<polygon class="st17" points="266.8,109.1 268.1,108.5 267.2,121.7 266.8,121.8 				"/>
				<polygon class="st12" points="266.4,121.7 265.5,108.5 266.8,109.1 266.8,121.8 				"/>
				<g>
					<path class="st20" d="M275.7,114.7l12.4-6.2c0.3-0.3,0.5-0.5,0.5-0.9v-0.5l-24.1,0.6v1.4L275.7,114.7z"/>
				</g>
				<g>
					<path class="st22" d="M275.9,114l12.2-6c0.6-0.3,0.6-1.2,0-1.4l-8.1-4.1c-1-0.5-2.2-0.5-3.1,0l-12.4,6.2L275.9,114z"/>
				</g>
			</g>
			<g>
				<polygon class="st17" points="318.7,100 320,99.4 319.1,120.3 318.7,120.4 				"/>
				<polygon class="st12" points="318.3,120.3 317.4,99.4 318.7,100 318.7,120.4 				"/>
				<polygon class="st17" points="295.5,111.7 296.8,111.1 295.9,132 295.5,132.2 				"/>
				<polygon class="st12" points="295.2,132 294.2,111.1 295.5,111.7 295.5,132.2 				"/>
				<polygon class="st17" points="260.9,95.3 262.1,94.7 261.2,115.6 260.9,115.8 				"/>
				<polygon class="st12" points="260.5,115.6 259.6,94.7 260.9,95.3 260.9,115.8 				"/>
				<path class="st23" d="M257.7,96.1l-0.3-1.9l37.6,17.4v1.3c0,0-0.9,0.5-2.2-0.1L257.7,96.1z"/>
				<polygon class="st22" points="295,112.9 295,111.2 322.1,97.5 321.9,99.4 				"/>
				<path class="st20" d="M292.5,111.7l-34.6-16.8c-0.6-0.4-0.6-1.3,0-1.5l27.6-13.8c0.3-0.1,0.5-0.1,0.8,0l35.4,17.2
					c0.6,0.4,0.6,1.3,0,1.5L295,111.6C294.2,112,293.3,112,292.5,111.7z"/>
			</g>
			<g>
				<g>
					<polygon class="st20" points="263.6,94.2 274.5,99.6 276.3,114.1 275.7,114.9 262.8,94.4 262.8,94.4 					"/>
				</g>
				<g>
					<g>
						<polygon class="st16" points="274,99.9 275.7,114.9 264.5,109.2 262.8,94.4 						"/>
					</g>
				</g>
			</g>
			<g>
				<path class="st24" d="M295,96.1c0,0,0.4,0,0.1-0.3c-0.3-0.4-2.2-3.6-2.2-3.6v0.6l1.8,2.9l-2.7-0.1l0.3,0.3L295,96.1z"/>
				<path class="st16" d="M294,91.9v4.9c0,0.4-0.4,0.6-0.6,0.6l-7.1-0.9c-0.3-0.1-0.5-0.4-0.5-0.6V91c0-0.4,0.4-0.6,0.6-0.6l7.1,1.2
					C293.7,91.5,294,91.8,294,91.9z"/>
				<path class="st9" d="M293.7,92.4v4.9c0,0.4-0.4,0.6-0.6,0.6l-7.1-1.2c-0.3-0.1-0.5-0.4-0.5-0.6v-4.9c0-0.4,0.4-0.6,0.6-0.6
					l7.1,1.2C293.6,91.9,293.7,92.2,293.7,92.4z"/>
				<path class="st25" d="M293.2,96.6c0,0,0,0,0-0.1v-4.1c0-0.1,0-0.1,0-0.1l-7.1-1.2c0,0,0,0,0,0.1v4.2l0,0L293.2,96.6z"/>
			</g>
		</g>
	</g>
	<ellipse class="st26" cx="116.6" cy="436.1" rx="23.8" ry="11.5"/>
	<ellipse class="st26" cx="436.4" cy="334.9" rx="80.2" ry="38.7"/>
	<g>
		<g>
			<g>
				<polygon class="st27" points="125.6,360.1 153.1,346.4 139.3,318.8 				"/>
				
					<linearGradient id="SVGID_1_" gradientUnits="userSpaceOnUse" x1="1081.389" y1="393.7007" x2="1110.0287" y2="391.3532" gradientTransform="matrix(-1 0 0 1 1212.9258 0)">
					<stop  offset="0" style="stop-color:#E8ECF5"/>
					<stop  offset="0.9949" style="stop-color:#C1DDEF"/>
					<stop  offset="1" style="stop-color:#C1DDEF"/>
				</linearGradient>
				<path class="st28" d="M109.3,346c0-1.9,3.1-3.4,6.9-3.4c3.8,0,6.9,1.5,6.9,3.4l10.3,87.7c0,4.7-7.7,8.6-17.2,8.6
					c-9.5,0-17.2-3.9-17.2-8.6L109.3,346z"/>
				<path class="st8" d="M116.2,311.6c-20.8-0.8-73.2,10.9-54,40.4c24.2,24.7,88.1,25.3,110-2.7
					C184.6,320.1,136.5,311.3,116.2,311.6z"/>
				<path class="st20" d="M116.2,308.1c-20.8-0.8-73.2,10.9-54,40.4c24.2,24.7,88.1,25.3,110-2.7
					C184.6,316.7,136.5,307.9,116.2,308.1z"/>
				<polygon class="st10" points="118.8,354.7 118.8,353 139.8,342.5 139.8,344.2 				"/>
				<polygon class="st14" points="87.3,339 87.3,337.2 118.8,353 118.8,354.7 				"/>
				<polygon class="st14" points="87.3,337.2 118.8,353 139.8,342.5 108.2,326.7 				"/>
				<polygon class="st14" points="108.2,326.7 139.8,344.2 144.4,318.1 112.8,302.4 111.6,302.2 				"/>
				<polygon class="st9" points="110,325.8 113,304.6 141.6,318.9 138.5,340.1 				"/>
				<polygon class="st15" points="122.3,347.7 97.8,335.5 108.3,330.2 132.8,342.5 				"/>
				<path class="st15" d="M69.3,471.5c2.2,3.1,15.1,0,16.9-2.2c1.7-2.2-15.2-6.6-16-5.3C69.3,465.3,67.1,468.5,69.3,471.5z"/>
				<path class="st15" d="M59.3,467.6c2.6,8.1,9.8-1,10-8C69.5,452.5,58.6,464.4,59.3,467.6z"/>
				<path class="st29" d="M64.6,466.5c1.1-2.2,3.9-47.1,5.5-44.9s-2.3,44.8,0,47.8c1.3,1.7,3.2,1,4.1-1.7c0.9-2.7,12.4-53.7,12-56.8
					c-0.4-3.1-27.3-6.4-27.6-4.6c-0.3,1.8,0.4,59.7,2.8,62C63.1,469.8,64.6,466.5,64.6,466.5z"/>
				<path class="st16" d="M58.5,313.1c-7.4-2.2-13,4.5-14,17.3c-0.8,9.8-5.8,17.6-1.4,21.6c4.4,4,23,2.4,23.1-1.2
					c0-3.6-16.8-1.9-16-5.4c0.9-3.5,11.5-22.6,10.6-23.9C60,320.2,58.5,313.1,58.5,313.1z"/>
				<path class="st8" d="M52.4,314.9c3.7-5,27.9,0.4,34.1,17.3c6.2,16.8-1.8,23-1.8,33.6c0,10.6,8.3,48.2,4.1,49.1
					c-4.1,0.9-32.4,3.7-35.1-4.7c-1.3-4-3.1-30.7,1.3-44C59.5,352.9,44.9,325,52.4,314.9z"/>
				<path class="st30" d="M72.4,318.8c0-3.6,1-4.7,1-4.7c1.6-2.2,2-1,3.9-1c1,0,3.2-4,4.7-8.5c0.5-1.4-0.5-3.6-0.2-5
					c0.6-2.7,2.1-4.5,1.3-5.9c-2.5-4.5-14.1-5.5-16.1-2.7c-2,2.9-6.7,24.1-2.8,25.6C68.2,318.1,72.4,318.8,72.4,318.8z"/>
				<path class="st16" d="M86.5,332.1c6.2,16.8-1.8,23-1.8,33.6c0,3.8,1.1,11.2,2.3,19.1c0,0-0.1,0-0.1,0c-6.7,0-13.5-32-13.5-51.4
					c0-11.3,3.3-5,6.2-11.4C82.6,324.8,85,328.1,86.5,332.1z"/>
				<g>
					<g>
						<path class="st31" d="M72.6,308.6c-2.1-0.8-6.1,9.2-3.8,10.2c5.3,2.3,3.6-7.3,6.6-5.8c1.2,0.6,2.2,0.3,2.7-0.5
							C73.9,313.6,76.8,310.2,72.6,308.6z"/>
					</g>
				</g>
				<path class="st30" d="M119.5,351c-1.5,1.7-9.2,6.7-10.7,5.7c-1.6-1.1-5.6-1.9-3.4-3.2c3.6-2.2,3.5-4.6,8.3-6.9
					c1.9-0.9,6.6-0.4,6.5,0.2s-5.2,0.4-5.3,4.1c0,1.3,2.4-0.4,4.4-1.4C121.3,348.5,119.5,351,119.5,351z"/>
				<path class="st8" d="M74.6,325c-4.9,4.7,4.8,38.6,9.9,43.5c5.1,4.9,23.3-7.3,26-11.1c0.9-1.3-2.4-5.7-5.3-4.5
					c-5.8,2.4-14.1,5.9-14.4,4.9C88.7,351.4,84.6,310,74.6,325z"/>
			</g>
			<path class="st32" d="M67.2,282c-14.3,2.3-11.9,14.3-10.9,22.6s-4.8,3.9-4.8,12.1c0,7,4.5,6.8,2.7,10c-4.6,8.4,3.6,11.6,7,12.7
				s-2,4.6-2,4.6s9.5,1.7,9-5.6s-0.9-8.9,3.6-10.8c4.5-1.9,4.4-5.6,2.5-11.5c-1-3.2-2.1-5.3-1-11.6c-2.6-1.1-4.9-4.7-3.1-5.9
				c1.2-0.8,3.1,0.5,4,1.7c-0.7-9.3,3.7-9.8,9.3-5.4C83.7,283,72.4,281.1,67.2,282z"/>
		</g>
		<g>
			<g>
				<polygon class="st33" points="140.7,356 156.2,348.4 147.6,344.2 132.1,351.8 				"/>
				<polygon class="st20" points="137.6,350.2 147.6,345.3 153.7,348.3 143.7,353.1 				"/>
				<polygon class="st34" points="140.7,357.6 140.7,356 132.1,351.8 132.1,353.5 				"/>
				<polygon class="st35" points="156.2,350.1 156.2,348.4 140.7,356 140.7,357.6 				"/>
			</g>
			<ellipse class="st35" cx="139" cy="352.7" rx="1.3" ry="0.7"/>
		</g>
		<polygon class="st14" points="127.9,324.2 127.9,323.3 135.5,327.1 135.5,328.1 		"/>
		<polygon class="st14" points="127.9,327.3 127.9,326.4 131,327.9 131,328.8 		"/>
		<polygon class="st36" points="119,324.6 115.6,315.7 117.6,314.2 120,321.8 122.7,320.2 123.5,322 		"/>
	</g>
	<g>
		<path class="st8" d="M466.5,179.4L412.8,199l-96.2-39.7l0,7.1c0,0,0,3.4,5.6,6.2l79,39.5c8.3,4.1,18,4.1,26.3,0l30.8-15.4
			c7.9-4.1,8.2-8.5,8.2-8.5L466.5,179.4z"/>
		<path class="st9" d="M322,168.3l79.3,39.6c8.3,4.1,18,4.1,26.3,0l30.6-15.3c11.3-5.6,11.3-21.7,0-27.4l-69.2-34.6
			c-8.2-4.1-17.9-4.1-26.1,0L322,151.1C314.9,154.6,314.9,164.7,322,168.3z"/>
		<path class="st0" d="M414.4,205.5c-3.7,0-7.4-0.9-10.7-2.5l-79.3-39.6c-2-1-2.3-2.9-2.3-3.7c0-0.8,0.2-2.6,2.3-3.7l40.8-20.4
			c3.3-1.6,6.9-2.5,10.6-2.5c3.7,0,7.3,0.9,10.6,2.5l69.2,34.6c3.4,1.7,5.4,5,5.4,8.8c0,3.8-2,7.1-5.4,8.8L425,203
			C421.8,204.6,418.1,205.5,414.4,205.5z"/>
		<g>
			<polygon class="st18" points="395.1,157 395.5,156.8 396.4,143.5 395.1,144.2 			"/>
			<polygon class="st37" points="395.1,157 395.1,144.2 393.8,143.5 394.8,156.9 			"/>
			<polygon class="st13" points="405.4,151.7 405.8,151.5 406.7,138.2 405.4,138.9 			"/>
			<polygon class="st12" points="405.4,151.7 405.4,138.9 404.1,138.2 405,151.6 			"/>
			<polygon class="st18" points="386.1,152.5 386.5,152.3 387.4,138.9 386.1,139.6 			"/>
			<polygon class="st37" points="386.1,152.5 386.1,139.6 384.8,138.9 385.8,152.3 			"/>
			<g>
				<g>
					<path class="st20" d="M384.3,140.3v-0.4l22.8-1.8v1.4l-11.1,5.5c-1.3,0.6-2.8,0.6-4-0.2L384.3,140.3z"/>
				</g>
				<path class="st21" d="M392.5,145.2l-7.6-3.8c-0.4-0.2-0.6-0.6-0.6-1v-0.4l9.6,4v0.1C393.9,144.8,393.3,145.5,392.5,145.2z"/>
				<g>
					<path class="st8" d="M385,138.7l11.7-5.9l10.3,6.1l-11.2,5.6c-1.2,0.6-2.6,0.6-3.8,0l-7-3.5C384,140.5,384,139.2,385,138.7z"/>
				</g>
				<g>
					<polygon class="st20" points="398.2,117.8 397.5,118 395.3,133.5 406.3,139.2 407,139.5 409.4,123.4 					"/>
				</g>
				<g>
					<g>
						<polygon class="st16" points="397.5,118 395.3,133.5 406.3,139.2 408.7,123.6 						"/>
					</g>
				</g>
			</g>
		</g>
		<g>
			<polygon class="st13" points="394.9,189 395.3,188.8 396.2,175.5 394.9,176.1 			"/>
			<polygon class="st12" points="394.9,189 394.9,176.1 393.6,175.5 394.6,188.8 			"/>
			<polygon class="st13" points="406.5,183.2 406.9,183 407.8,169.7 406.5,170.3 			"/>
			<polygon class="st12" points="406.5,183.2 406.5,170.3 405.2,169.7 406.1,183 			"/>
			<polygon class="st13" points="385.9,184.4 386.3,184.2 387.2,170.9 385.9,171.5 			"/>
			<polygon class="st12" points="385.9,184.4 385.9,171.5 384.6,170.9 385.6,184.2 			"/>
			<g>
				<path class="st20" d="M383.7,171.7v-1.4l24.3-0.6v0.5c0,0.4-0.2,0.7-0.5,0.9l-12.5,6.3L383.7,171.7z"/>
			</g>
			<g>
				<path class="st8" d="M383.7,171.1l12.5-6.3c1-0.5,2.1-0.5,3.1,0l8.3,4.1c0.6,0.3,0.6,1.2,0,1.5l-12.3,6.1L383.7,171.1z"/>
			</g>
		</g>
		<g>
			<polygon class="st18" points="420.9,169.3 421.3,169.1 422.2,155.8 420.9,156.4 			"/>
			<polygon class="st37" points="420.9,169.3 420.9,156.4 419.6,155.8 420.6,169.1 			"/>
			<polygon class="st13" points="431.2,164 431.6,163.8 432.5,150.5 431.2,151.1 			"/>
			<polygon class="st12" points="431.2,164 431.2,151.1 429.9,150.5 430.9,163.8 			"/>
			<polygon class="st18" points="411.9,164.7 412.3,164.5 413.2,151.2 411.9,151.9 			"/>
			<polygon class="st37" points="411.9,164.7 411.9,151.9 410.6,151.2 411.6,164.6 			"/>
			<g>
				<g>
					<path class="st20" d="M410.1,152.6v-0.4l22.8-1.8v1.4l-11.1,5.5c-1.3,0.6-2.8,0.6-4-0.2L410.1,152.6z"/>
				</g>
				<path class="st21" d="M418.3,157.4l-7.6-3.8c-0.4-0.2-0.6-0.6-0.6-1v-0.4l9.6,4v0.1C419.7,157.1,419.1,157.8,418.3,157.4z"/>
				<g>
					<path class="st8" d="M410.8,151l11.7-5.9l10.3,6.1l-11.2,5.6c-1.2,0.6-2.6,0.6-3.8,0l-7-3.5C409.8,152.8,409.8,151.4,410.8,151
						z"/>
				</g>
				<g>
					<polygon class="st20" points="424,130 423.3,130.3 421.1,145.8 432.1,151.5 432.8,151.8 435.2,135.6 					"/>
				</g>
				<g>
					<g>
						<polygon class="st16" points="423.3,130.3 421.1,145.8 432.1,151.5 434.5,135.9 						"/>
					</g>
				</g>
			</g>
		</g>
		<g>
			<g>
				<path class="st10" d="M332.3,103.9l24.3-12.2c0.3-0.2,0.5-0.5,0.5-0.9v-3c0-0.1-0.8-0.6-1.4-0.2l-24.3,12.2
					c-0.3,0.2-0.5,0.5-0.5,0.9v2.4C330.9,103.8,331.7,104.2,332.3,103.9z"/>
				<path class="st11" d="M355.7,87l-24.3,12.2c-0.3,0.2-0.5,0.5-0.5,0.9v1c0-0.4,0.2-0.7,0.5-0.9L355.7,88c0.6-0.3,1.1-0.5,1.4,0.1
					v-0.2C357.1,87.2,356.4,86.7,355.7,87z"/>
				
					<ellipse transform="matrix(0.7071 -0.7071 0.7071 0.7071 33.4097 271.7175)" class="st12" cx="344.7" cy="95.5" rx="1.4" ry="1"/>
				
					<ellipse transform="matrix(0.7071 -0.7071 0.7071 0.7071 33.3784 271.7737)" class="st13" cx="344.7" cy="95.6" rx="1" ry="0.7"/>
				
					<ellipse transform="matrix(0.7071 -0.7071 0.7071 0.7071 33.6852 271.8316)" class="st9" cx="345" cy="95.3" rx="0.4" ry="0.3"/>
			</g>
			<path class="st14" d="M331.7,100c-0.8,0-0.7-0.4-0.7-0.4c-0.1,0.1-0.1,0.4-0.1,0.4v3.2c0,0,0.1,0.8,0.8,0.8V100z"/>
		</g>
		<g>
			<polygon class="st11" points="322.7,143.4 370,119.8 370,88.6 322.7,112.2 			"/>
			<polygon class="st8" points="322.7,112.2 370,88.6 369.1,88.2 321.8,111.8 			"/>
			<polygon class="st8" points="322.7,143.4 322.7,112.2 321.8,111.8 321.8,143 			"/>
			<polygon class="st15" points="368.1,91.3 324.5,113.1 324.5,140.7 368.1,118.9 			"/>
		</g>
		<g>
			<polygon class="st13" points="368.2,175.2 368.6,175 369.4,161.7 368.2,162.3 			"/>
			<polygon class="st12" points="368.2,175.2 368.2,162.3 366.9,161.7 367.8,175.1 			"/>
			<polygon class="st13" points="379.7,169.5 380.1,169.3 381,155.9 379.7,156.6 			"/>
			<polygon class="st12" points="379.7,169.5 379.7,156.6 378.4,155.9 379.4,169.3 			"/>
			<polygon class="st13" points="359.2,170.7 359.6,170.5 360.4,157.1 359.2,157.8 			"/>
			<polygon class="st12" points="359.2,170.7 359.2,157.8 357.9,157.1 358.8,170.5 			"/>
			<g>
				<path class="st20" d="M356.9,158v-1.4l24.3-0.6v0.5c0,0.4-0.2,0.7-0.5,0.9l-12.5,6.3L356.9,158z"/>
			</g>
			<g>
				<path class="st8" d="M356.9,157.3l12.5-6.3c1-0.5,2.1-0.5,3.1,0l8.3,4.1c0.6,0.3,0.6,1.2,0,1.5l-12.3,6.1L356.9,157.3z"/>
			</g>
		</g>
		<g>
			<polygon class="st13" points="438,183.2 438.3,183.1 439.3,161.9 438,162.6 			"/>
			<polygon class="st12" points="438,183.2 438,162.6 436.7,161.9 437.6,183.1 			"/>
			<polygon class="st13" points="414.6,195.1 415,194.9 415.9,173.8 414.6,174.5 			"/>
			<polygon class="st12" points="414.6,195.1 414.6,174.5 413.3,173.8 414.2,194.9 			"/>
			<polygon class="st13" points="351.6,165.1 351.9,164.9 352.8,143.8 351.6,144.4 			"/>
			<polygon class="st12" points="351.6,165.1 351.6,144.4 350.3,143.8 351.2,164.9 			"/>
			<path class="st0" d="M411.8,175.5c1.3,0.6,2.2,0.1,2.2,0.1v-1.3l-66-31.1l0.3,1.9L411.8,175.5z"/>
			<polygon class="st8" points="441.3,161.9 441.5,160 414,173.9 414,175.6 			"/>
			<path class="st20" d="M414,174.3l27-13.5c0.6-0.3,0.6-1.2,0-1.5l-63.8-30.8c-0.2-0.1-0.5-0.1-0.8,0l-27.9,13.9
				c-0.6,0.3-0.6,1.2,0,1.5l63,30.4C412.3,174.7,413.2,174.7,414,174.3z"/>
		</g>
		<g>
			<g>
				<polygon class="st20" points="355.2,142.9 355.2,142.9 368.2,163.6 368.8,162.8 367,148.3 356,142.8 				"/>
			</g>
			<g>
				<g>
					<polygon class="st16" points="355.2,142.9 356.9,158 368.2,163.6 366.4,148.5 					"/>
				</g>
			</g>
		</g>
		<g>
			<g>
				<polygon class="st20" points="381.9,156.7 381.9,156.7 394.9,177.3 395.6,176.6 393.8,162 382.8,156.5 				"/>
			</g>
			<g>
				<g>
					<polygon class="st16" points="381.9,156.7 383.7,171.7 394.9,177.3 393.2,162.3 					"/>
				</g>
			</g>
		</g>
		<g>
			<path class="st35" d="M385.4,145.2l-0.3-0.3l2.6,0.1l-1.6-2.7v-0.6c0,0,1.8,3,2.1,3.3s-0.2,0.3-0.2,0.3L385.4,145.2z"/>
			<path class="st16" d="M386.5,141l-6.6-1.1c-0.3,0-0.6,0.2-0.6,0.6v4.5c0,0.3,0.2,0.5,0.4,0.6l6.6,1.1c0.3,0,0.6-0.2,0.6-0.6v-4.5
				C387,141.3,386.8,141,386.5,141z"/>
			<path class="st9" d="M386.3,141.3l-6.6-1.1c-0.3,0-0.6,0.2-0.6,0.6v4.5c0,0.3,0.2,0.5,0.4,0.6l6.6,1.1c0.3,0,0.6-0.2,0.6-0.6
				v-4.5C386.7,141.6,386.6,141.4,386.3,141.3z"/>
			<path class="st11" d="M379.7,144.8c0,0,0,0,0-0.1v-3.8c0-0.1,0-0.1,0-0.1l6.6,1.1c0,0,0,0,0,0.1v3.8c0,0.1,0,0.1,0,0.1
				L379.7,144.8z"/>
		</g>
		<g>
			<g>
				<polygon class="st9" points="329.2,180.6 358.1,195.1 365.5,191.2 336.7,176.7 				"/>
				<polygon class="st16" points="358.1,195.1 358.1,198.2 365.5,194.3 365.5,191.2 				"/>
				<polygon class="st8" points="329.2,180.6 329.2,183.8 358.1,198.2 358.1,195.1 				"/>
			</g>
			<polygon class="st0" points="331.6,181.8 355.6,193.9 363.1,189.9 339.1,177.9 			"/>
		</g>
	</g>
	<g>
		<path class="st8" d="M560.3,226.4l-53.7,19.5l-57.9-20.7l0,7.1c0,0,0,3.4,5.6,6.2L495,259c8.3,4.1,18,4.1,26.3,0l30.8-15.4
			c7.9-4.1,8.2-8.5,8.2-8.5L560.3,226.4z"/>
		<path class="st9" d="M454,234.2l41,20.6c8.3,4.1,18,4.1,26.3,0l30.6-15.3c11.3-5.6,11.3-21.7,0-27.4L521,196.6
			c-8.2-4.1-17.9-4.1-26.1,0L454,217C447,220.6,447,230.7,454,234.2z"/>
		<path class="st0" d="M508.2,252.5c-3.7,0-7.4-0.9-10.7-2.5l-41-20.6c-2-1-2.3-2.9-2.3-3.7s0.2-2.6,2.3-3.7l40.8-20.4
			c3.3-1.6,6.9-2.5,10.6-2.5c3.7,0,7.3,0.9,10.6,2.5l30.9,15.6c3.4,1.7,5.4,5,5.4,8.8s-2,7.1-5.4,8.8l-30.6,15.3
			C515.5,251.6,511.8,252.5,508.2,252.5z"/>
		<g>
			<g>
				<g>
					<path class="st10" d="M550.2,164.9l-24.3-12.2c-0.3-0.2-0.5-0.5-0.5-0.9v-3c0-0.1,0.8-0.6,1.4-0.2l24.3,12.2
						c0.3,0.2,0.5,0.5,0.5,0.9v2.4C551.6,164.8,550.9,165.2,550.2,164.9z"/>
					<path class="st11" d="M526.8,148l24.3,12.2c0.3,0.2,0.5,0.5,0.5,0.9v1c0-0.4-0.2-0.7-0.5-0.9L526.8,149
						c-0.6-0.3-1.1-0.5-1.4,0.1v-0.2C525.4,148.2,526.2,147.7,526.8,148z"/>
					
						<ellipse transform="matrix(0.7071 -0.7071 0.7071 0.7071 46.8566 426.1664)" class="st12" cx="537.9" cy="156.5" rx="1" ry="1.4"/>
					
						<ellipse transform="matrix(0.7071 -0.7071 0.7071 0.7071 46.7947 426.1487)" class="st13" cx="537.8" cy="156.6" rx="0.7" ry="1"/>
					
						<ellipse transform="matrix(0.7071 -0.7071 0.7071 0.7071 46.9707 425.8908)" class="st9" cx="537.6" cy="156.2" rx="0.3" ry="0.4"/>
				</g>
				<path class="st14" d="M550.9,161c0.8,0,0.7-0.4,0.7-0.4c0.1,0.1,0.1,0.4,0.1,0.4v3.2c0,0-0.1,0.8-0.8,0.8V161z"/>
			</g>
			<g>
				<polygon class="st11" points="559.8,204.4 512.6,180.8 512.6,149.6 559.8,173.2 				"/>
				<polygon class="st8" points="559.8,173.2 512.6,149.6 513.5,149.2 560.7,172.8 				"/>
				<polygon class="st8" points="559.8,204.4 559.8,173.2 560.7,172.8 560.7,204 				"/>
				<polygon class="st9" points="514.4,152.3 558,174.1 558,201.7 514.4,179.9 				"/>
				<polygon class="st0" points="523.6,160.5 554.8,176.1 554.8,195.9 523.6,180.3 				"/>
			</g>
		</g>
		<g>
			<g>
				<polygon class="st9" points="453.8,242.9 482.6,257.4 490.1,253.5 461.2,239 				"/>
				<polygon class="st16" points="482.6,257.4 482.6,260.5 490.1,256.6 490.1,253.5 				"/>
				<polygon class="st8" points="453.8,242.9 453.8,246.1 482.6,260.5 482.6,257.4 				"/>
			</g>
			<polygon class="st0" points="456.2,244.1 480.2,256.2 487.6,252.2 463.6,240.2 			"/>
		</g>
		<g>
			<g>
				<polygon class="st18" points="490,218.5 489.6,218.3 488.7,205.1 490,205.8 				"/>
				<polygon class="st19" points="490,218.5 490,205.8 491.3,205.1 490.4,218.3 				"/>
				<polygon class="st17" points="479.9,213.2 479.5,213.1 478.6,199.9 479.9,200.5 				"/>
				<polygon class="st12" points="479.9,213.2 479.9,200.5 481.2,199.9 480.1,213.1 				"/>
				<polygon class="st18" points="499,214 498.6,213.7 497.7,200.7 499,201.3 				"/>
				<polygon class="st19" points="499,214 499,201.3 500.3,200.7 499.2,213.9 				"/>
				<g>
					<g>
						<path class="st20" d="M500.8,201.9v-0.4l-22.6-1.8v1.4l11,5.5c1.3,0.6,2.7,0.5,4-0.1L500.8,201.9z"/>
					</g>
					<path class="st21" d="M492.7,206.8l7.6-3.8c0.4-0.3,0.6-0.6,0.6-1v-0.4l-9.5,4l0,0C491.3,206.4,491.9,207.2,492.7,206.8z"/>
					<g>
						<path class="st22" d="M500,200.4l-11.7-5.8l-10.3,6l11.2,5.5c1.2,0.6,2.6,0.6,3.7,0l6.9-3.5C501,202.2,501,200.8,500,200.4z"
							/>
					</g>
					<g>
						<polygon class="st20" points="486.9,179.6 487.7,179.9 489.9,195.3 479,200.9 478.2,201.2 475.9,185.1 						"/>
					</g>
					<g>
						<g>
							<polygon class="st16" points="487.7,179.9 489.9,195.3 479,200.9 476.5,185.4 							"/>
						</g>
					</g>
				</g>
			</g>
			<g>
				<path class="st38" d="M499,195.3c-0.1,0-1.1-0.5-1.1-0.8c-0.1-0.2-0.2-0.9-0.5-0.9c-0.3-0.1-1.2-0.2-1.2-0.2
					c0.3,1.1,0.6,1.3,0.4,1.6c-0.2,0.3-1.2-1-1.3-2.3c-1-1.2-1.2-1-1.2-1s1.6-0.4,1.7-0.5c0,0,2,1.6,2.7,1.8s0.9,2.3,0.8,2.3
					C499.1,195.4,499,195.3,499,195.3z"/>
				<path class="st39" d="M496.3,191.5c0,0-1.5,0.3-1.5,1.3c-1.1-0.5-6.3-3.7-6.2-3.8c0-0.1-2.6-7-2.6-7s1.6-1.1,2.8,0.6
					c1.2,1.7,1.9,4.1,2.7,5C492.3,188.2,496.1,190.9,496.3,191.5z"/>
				<path class="st40" d="M489.4,194.7c0.4,0.1,3.6,0.5,6,2.1c2.4,1.6-3.5,7.2-4.2,7.6c-0.7,0.4-8.2-0.8-8.8-4.1
					C481.8,197.3,489.4,194.7,489.4,194.7z"/>
				<path class="st41" d="M481.5,179.2c0.1,3-1.3,2.6-0.3,5.8c0.6,2.2,1.6-1.6,1.6-1.6l0.4-4C483.1,179.4,481.4,178.3,481.5,179.2z"
					/>
				<path class="st42" d="M490.2,188.1c0.1-1.6-1.8-3.1-2.5-5c-0.7-1.5-3.5-3.5-6.6,1.1c-0.9,1.2-1.5,2.4-1.4,4.2
					c0.2,2.7,1.5,6.1,1.4,6.8c-0.3,1-1.2,4.4,0.4,6c3.3-0.5,3.4,0.2,4.9-1.1s1.9-4.9,4.5-5.3c-1.8-1.1-2-2-2.1-3
					C488.6,190.8,490.2,189.7,490.2,188.1z"/>
				<g>
					<g>
						<g>
							<path class="st39" d="M481.1,195.2c0.1-0.6-1.2-3.9-1.4-6.8c-0.1-1.4,0.4-2.5,0.9-3.6c0,0.4,2.2,0.6,2.2,1.1
								c0.5,5.4,2.2,5.8,2.1,6.3c-0.3,1-1.6,2,0.2,3.5c3.3-0.5,1.7,1.3,3.1,0.1c1-0.8,0.7-0.7,1.7-2.1c0.3,0.2,0.7,0.5,1,0.8
								c-2.5,0.5-3,4.1-4.5,5.3c-1.5,1.2-1.6,0.6-4.9,1.1C479.9,199.7,480.9,196.2,481.1,195.2z"/>
						</g>
					</g>
				</g>
				<path class="st31" d="M485.1,182.5c0.3,0.1,1.4-0.2,2.3,3.1c0.4,1.4,0.5,3.4,0.4,3.4c-0.3-0.2-2-3.3-2.7-3.5
					c-0.7-0.2-2.3-2.6-2.3-2.6s0.3-1.9,0.4-2S485.1,182.5,485.1,182.5z"/>
				<path class="st43" d="M487.9,189.4c0,0-1.2-1.8-2.6-3.6c-0.1,0.7-0.4,1-0.4,1s-2.8-3-2.8-3.9c0.3-0.3,0.6-0.8,0.6-0.8
					c0.1,0,1.7,2.3,3.1,2.6c0.4,0.6,1.7,3,1.7,3s-0.8-3.8-1.5-4.8c0.1-1.1,1.1-0.4,1.1-0.4s1.4,1.9,1.6,2.5
					c-0.4-0.1-1.4-0.2-1.4-0.2S488.4,187.7,487.9,189.4z"/>
				<path class="st44" d="M486.9,177.7c0.2,0.1,0.9,0.3,1,0.8c0.3,1.1,0.1,1.3,0.3,1.9c0.2,1.3,0,2.6-0.7,3.8
					c-1.3,0.6-2.5-0.5-3.7-1.4c-1.1-0.8-1.7-1.4-1.6-2c0.4-1,1.3-1,1.8-1C484.4,179.7,486.9,177.7,486.9,177.7z"/>
				<path class="st45" d="M486.8,179.2c-0.8-0.2-1.7,0.7-1.7,1.4c-0.1,0.6,1,0.8,1.1,1.2c0.2,1.3-1.4,0.4-0.4,2.4
					c-0.9-0.4-3-1.8-3.4-2.8C481.6,180.1,486,177.4,486.8,179.2z"/>
				<path class="st41" d="M486.8,179.2c0,0,0.4-1.2,0.9-0.8c0.3,0.3,0.4,1.5,0.4,1.5s1.2-3.1-2.8-4c-3.3-0.8-4.3,2.2-3.7,4.6
					c0.3,1.2,1.3,1.8,1.3,1.8l0.2-0.1c0,0-1-0.7-0.9-1.2c0.1-0.7,0.7,0.2,1.6,0.6C484.7,181.4,484.2,178.1,486.8,179.2z"/>
			</g>
			<g>
				<path class="st25" d="M514.2,228.7c0.8,0.1,2.2,0,2.3-2.1c0-2.1-4.7-4.4-5.3-4.2c-0.5,0.1-2.6,0.3-1.3,1.8
					c1.3,1.5,2.4,1.5,2.7,2.4C513.1,227.6,513.2,228.6,514.2,228.7z"/>
				<path class="st46" d="M514.2,227.7c-1-0.1-1.7-1.5-2.4-2.2c-2.9-2.2-1.9-2.6-1.9-2.7c-0.3,0.3-0.4,0.6,0.3,1.3
					c1.3,1.5,1.5,1.4,2.3,2.4c0.6,0.8,0.9,1.9,1.9,2.1c0.8,0.1,2.2,0,2.3-2.1c0-0.1,0-0.3,0-0.4C516.2,227.7,515,227.8,514.2,227.7z
					"/>
				<path class="st47" d="M511.9,224.9c0,0,0.4-3.8,0-7.4c-0.4-3.6,4.6-2.9,4.6-2.9s1.5,8.2,0.1,12.3
					C516.3,227.7,512.7,227.6,511.9,224.9z"/>
				<path class="st48" d="M516.5,214.5c0,0-1.9-0.3-3.3,0.4c0.3,1.7,1.3,8.2,0.1,11.8c1.4,0.9,3.1,0.8,3.3,0.1
					C518.1,222.7,516.5,214.5,516.5,214.5z"/>
			</g>
			<g>
				<polygon class="st17" points="521.3,239.9 520.9,239.8 520,226.5 521.3,227.2 				"/>
				<polygon class="st12" points="521.3,239.9 521.3,227.2 522.6,226.5 521.5,239.8 				"/>
				<polygon class="st17" points="509.9,234.2 509.4,234 508.6,220.9 509.9,221.5 				"/>
				<polygon class="st12" points="509.9,234.2 509.9,221.5 511,220.9 510.1,234.1 				"/>
				<polygon class="st17" points="530.1,235.4 529.7,235.3 528.8,222.1 530.1,222.7 				"/>
				<polygon class="st12" points="530.1,235.4 530.1,222.7 531.4,222.1 530.5,235.3 				"/>
				<g>
					<path class="st20" d="M532.4,222.8v-1.4l-24.1-0.6v0.5c0,0.4,0.3,0.6,0.5,0.9l12.4,6.2L532.4,222.8z"/>
				</g>
				<g>
					<path class="st22" d="M532.4,222.2L520,216c-0.9-0.5-2.1-0.5-3.1,0l-8.1,4.1c-0.6,0.3-0.6,1.2,0,1.4l12.2,6L532.4,222.2z"/>
				</g>
			</g>
			<g>
				<path class="st25" d="M500.8,226.5c0,0.4,0.3,1.5,1.7,1.7c1.3,0.3,3.1,0.3,3.1,0.3v0.5c0,0,2.4,1,2.9-0.5s0.3-1.8,0-2.1
					c-0.8-0.9-5.3-1.5-6.2-1.4C501.4,225.4,500.8,226,500.8,226.5z"/>
				<path class="st46" d="M508.3,228.1c-0.5,1.4-2.9,0.5-2.9,0.5v-0.5c0,0-1.7-0.1-3.1-0.3c-1-0.1-1.4-0.8-1.5-1.3
					c0,0.1,0,0.1,0,0.3c0,0.4,0.3,1.5,1.7,1.7c1.3,0.3,3.1,0.3,3.1,0.3v0.5c0,0,2.4,1,2.9-0.5c0.4-1.2,0.3-1.4,0-1.8
					C508.2,227.1,508.5,227.6,508.3,228.1z"/>
				<path class="st47" d="M524.2,223.2L524.2,223.2c-0.3,0.3-0.9,2.2-2.9,2.4c-3.1,0.3-5.6-2.7-6.8-3.3c-1.3-0.8-4.9-2.2-4.9-2.2
					l-1.3,0.6v1.4l0.5,0.3c-1,3.1,0.6,4.1-0.4,5.9c-0.5,1.4-2.3-1.3-3.5-1.8c-1-0.4,0.1-2.9,0.1-5.3c0-1.4-0.4-3.3-0.3-4.7
					c0-0.6,0.1-1.3,0.3-1.8c0.1-0.3,0.1-0.6,0.4-0.9c0.1-0.1,0.3-0.3,0.5-0.3c0.4,0,0.8-0.1,1.2-0.1c1.3-0.4,2.6-0.6,4-1
					c1.9-0.5,3.7-1,5.8-1.4c0.6-0.1,1.4-0.3,2.1-0.1c0.4,0,0.8,0.1,1,0.6c0.1,0.1,0.1,0.3,0.3,0.4c0.5,0.9,0.9,1.8,1.2,2.7
					C522.3,217.1,524.1,223,524.2,223.2z"/>
				<path class="st48" d="M520.5,218.9c-0.3,0.3,0,3.6-2.2,3.6c-2.7,0-3.5-1.3-4.6-1.9c-2.1-1.3,3.2-3.5,3.2-3.5l0.1-2.6l-8.8,4.1
					l-0.8,2.2c-1,3.1,1.2,4.4,0,6.2c-0.4,1.3-2.9-0.5-2.6-0.4c1.2,0.5,2.9,3.2,3.5,1.8c1-1.8-0.5-4.1,0.8-6.2v-0.6
					c0,0,0-0.5,0.8-0.9c0,0,3.2,0.8,4.5,1.5c1.2,0.6,3.6,3.6,6.8,3.3c2.2-0.1,2.7-2.2,2.9-2.3l0,0
					C524.1,223,520.5,218.9,520.5,218.9z"/>
			</g>
			<g>
				<polygon class="st17" points="475.4,231.2 475,231 474.1,210.1 475.4,210.8 				"/>
				<polygon class="st12" points="475.4,231.2 475.4,210.8 476.7,210.1 475.8,231 				"/>
				<polygon class="st17" points="498.6,243 498.2,242.7 497.3,221.8 498.6,222.4 				"/>
				<polygon class="st12" points="498.6,243 498.6,222.4 499.9,221.8 498.8,242.7 				"/>
				<polygon class="st17" points="533.2,226.5 532.8,226.3 531.9,205.4 533.2,206 				"/>
				<polygon class="st12" points="533.2,226.5 533.2,206 534.5,205.4 533.6,226.3 				"/>
				<path class="st23" d="M501.3,223.5c-1.3,0.6-2.2,0.1-2.2,0.1v-1.3l37.6-17.4l-0.3,1.9L501.3,223.5z"/>
				<polygon class="st22" points="472.2,210.1 471.9,208.2 499.1,221.9 499.1,223.6 				"/>
				<path class="st20" d="M499.1,222.3L472.4,209c-0.6-0.3-0.6-1.2,0-1.5l35.4-17.2c0.3-0.1,0.5-0.1,0.8,0l27.6,13.8
					c0.6,0.3,0.6,1.2,0,1.5l-34.6,16.8C500.8,222.7,499.9,222.7,499.1,222.3z"/>
			</g>
			<g>
				<path class="st44" d="M512.6,210.3c-0.4-0.6-0.6-1.9-1.5-2.2c-1.4-0.5-1.9-0.4-2.6-0.1c-0.5,0.3-0.9,0.9-0.6,1
					c0.3,0.1,1.5,0.5,1.2,0.5c-0.5,0-1.2-0.1-1.3,0c-0.1,0.1,0.1,0.4,0.1,0.4c0.3,0.3,1.3,0.4,1.8,0.6c0.9,0.5,1.7,1,1.9,1
					C512.3,211.4,512.9,210.9,512.6,210.3z M509.1,208.7l-0.6-0.1h0.8L509.1,208.7z"/>
				<path class="st39" d="M524.9,201.9c0.5-0.5,4.2-0.9,4.5,1.5c0.5,4.4-1.9,7.4-2.6,7.8c-0.6,0.4-7.2,0-6.8-1
					c0-0.1,2.2-1.2,2.6-1.2c2.6-0.5,6.2-1.3,5.5-1.9C527.3,206.4,524.9,201.9,524.9,201.9z"/>
				<path class="st42" d="M524.6,201.5c1,0,6.2-0.8,4.5,7.3c-0.6,3.5-2.8,3.8-0.6,8.3c2.1,4.4-5,6.4-5.6,6.4c-2.4,0.3-2.7-3.8-7.1-5
					c0,0,1.5-12.6,6-15.4C526.3,200.5,524.6,201.5,524.6,201.5z"/>
				<g>
					<g>
						<path class="st24" d="M524.6,201.5L524.6,201.5C525.3,201.2,524.6,201.5,524.6,201.5z"/>
						<g>
							<path class="st39" d="M520.6,222.7c0,0-2.2-5.8,1-7.9c0.6-0.5,2.9-1.9,3.2-2.7c0.3-0.9-2.7-0.3-2.1-2.3
								c0.8-2.9-0.6-6.3,2.8-8.1c0.4-0.1-2.2,0.8-3.8,1.8c-4.5,2.8-6,15.4-6,15.4C518.2,219.4,520.6,222.7,520.6,222.7z"/>
						</g>
					</g>
				</g>
				<path class="st42" d="M521.7,204.9c2.6,1.3-1.9,12.1-3.8,12.1c-2.2,0-5.8-4.5-6.5-5.3c-0.6-0.6,0.8-2.3,1.4-1.8
					c2.1,1.8,2.9,2.4,3.8,2.7C518.1,209.8,519.1,203.2,521.7,204.9z"/>
				<path class="st39" d="M517.2,215.3c-2.2,0-5.1-3.8-5.9-4.6c-0.3,0.4-0.3,0.8,0,1c0.8,0.8,4.5,5.3,6.5,5.3
					c1.5,0,4.9-7.4,4.6-10.6C522.2,209.9,518.6,215.3,517.2,215.3z"/>
				<g>
					<path class="st31" d="M525.4,201.9c0.3-1.3-0.3-0.7-0.3-1.3c0-0.9,0.3-1.5,0-1.9c-0.2-0.2-3,2.4-5,3c0,0,2.4,0.5,2.4,1.7
						C522.5,204.2,525.3,202.7,525.4,201.9z"/>
					<path class="st30" d="M520.3,195.1c-0.4,0.5-1.7,6-0.5,6.6s3.1,0.8,5.6-2.2c2.5-3-2.1-4.1-2.1-4.1L520.3,195.1z"/>
					<path class="st32" d="M519.9,193.2c1.2,0.9,3-0.1,4.8,0.6c1.9,0.7,2.4,2,2.4,3.1c-0.1,2.5-1.7,2.3-1.9,4.3
						c-0.5-0.3,0.2-1.5-0.1-2.3c-0.3-0.8-1,0.7-1.6,0.5c-0.3-0.1-0.5-1.7,0-2.8c-0.7-0.7-3.4-1.7-3.7-0.2
						C519.1,195.5,519.9,193.2,519.9,193.2z"/>
				</g>
				<path class="st49" d="M526,201.5c0-0.3-0.6-0.5-0.6-0.5c0.3,0.8-0.3,1.2-2.2,1.5c-0.5,0.1-1.4,0-1.7,0.1
					c-0.3,0.1-0.1,0.5-0.4,1.2c0.5,0,1,0,1.7-0.1C524.6,203.3,526.2,202.3,526,201.5z"/>
			</g>
			<g>
				<g>
					<polygon class="st20" points="534.1,208 534.1,208 521.3,228.5 520.6,227.7 522.4,213.2 533.3,207.8 					"/>
				</g>
				<g>
					<g>
						<polygon class="st16" points="534.1,208 532.4,222.8 521.3,228.5 522.9,213.5 						"/>
					</g>
				</g>
			</g>
			<g>
				<path class="st44" d="M484.7,198.8c0.3,0,0.5,0.1,0.8,0.2c0.3,0,1.7,0.1,2,0.2c0.4,0.1,0.9,0.4,0.9,0.4s1.4,0.4,1.5,1.3
					c0.1,1,0,1-0.3,1c-0.3,0-1.6-1-1.6-0.7c0,0.3,1,0.4,1,0.7c0,0.3-1.8-0.2-2.2-0.6c-0.2-0.3-2.4-1.6-2.4-1.9
					C484.3,199.3,484.7,198.8,484.7,198.8z"/>
				<path class="st42" d="M485,200.6c0,0-8.2-3.1-7.8-4.5c0.7-1.8,1.8-8.3,2.5-9.8c0.8-1.8,2.3-2.5,3-1c0.6,1.3-2,9.2-2.4,10
					c0.5,0.4,5.4,3.1,5.5,3.4C485.9,198.8,485,200.6,485,200.6z"/>
			</g>
			<g>
				<path class="st24" d="M508.7,201.8l0.3-0.3l-2.7,0.1l1.8-2.9v-0.6c0,0-1.9,3.2-2.2,3.6c-0.3,0.3,0.1,0.3,0.1,0.3L508.7,201.8z"
					/>
				<path class="st16" d="M507.6,197.3l7.1-1.2c0.3,0,0.6,0.3,0.6,0.6v4.9c0,0.3-0.3,0.5-0.5,0.6l-7.1,0.9c-0.3,0-0.6-0.3-0.6-0.6
					v-4.9C507,197.6,507.3,197.3,507.6,197.3z"/>
				<path class="st9" d="M507.8,197.6l7.1-1.2c0.3,0,0.6,0.3,0.6,0.6v4.9c0,0.3-0.3,0.5-0.5,0.6l-7.1,1.2c-0.3,0-0.6-0.3-0.6-0.6
					v-4.9C507.3,198,507.4,197.7,507.8,197.6z"/>
				<path class="st25" d="M514.9,201.3L514.9,201.3v-4.2c0-0.1,0-0.1,0-0.1l-7.1,1.2c0,0,0,0,0,0.1v4.1c0,0.1,0,0.1,0,0.1
					L514.9,201.3z"/>
			</g>
			<polygon class="st23" points="494,208.9 486.9,211 482.4,204.5 488.8,202.6 			"/>
			<polygon class="st23" points="510,213 504,215.8 496.2,211.8 502.2,208.9 			"/>
			<polygon class="st50" points="508.2,212.6 503.6,214.8 503.5,214.6 507.9,212.4 			"/>
			<polygon class="st50" points="506.9,211.9 502.4,214.1 502.3,214 506.8,211.8 			"/>
			<polygon class="st50" points="505.8,211.3 501.3,213.5 501.2,213.3 505.6,211.2 			"/>
			<g>
				<path class="st51" d="M501.3,211.7c-0.1-0.1-0.3-0.3-0.6-0.3v-0.5c0.8,0,1.4,0.4,1.5,0.8H501.3z"/>
				<path class="st52" d="M500.3,211.3c-0.3,0-0.5,0.1-0.6,0.3h-0.9c0.1-0.4,0.6-0.6,1.5-0.8V211.3z"/>
				<path class="st53" d="M499.6,211.8c0.1,0.1,0.3,0.3,0.6,0.3v0.4c-0.8,0-1.4-0.4-1.5-0.8h0.9V211.8z"/>
				<path class="st54" d="M500.6,212.2c0.3,0,0.5-0.1,0.6-0.3h0.9c-0.1,0.4-0.6,0.6-1.5,0.8V212.2z"/>
			</g>
			<g>
				<g>
					<polygon class="st33" points="485.6,208.1 481.4,206 483.8,204.9 488.1,206.9 					"/>
					<polygon class="st20" points="487.3,206.9 484.6,205.7 482.9,206.4 485.6,207.7 					"/>
					<polygon class="st55" points="485.6,208.6 485.6,208.1 488.1,206.9 488.1,207.4 					"/>
					<polygon class="st24" points="481.4,206.4 481.4,206 485.6,208.1 485.6,208.6 					"/>
				</g>
				<ellipse class="st24" cx="483.3" cy="205.7" rx="0.4" ry="0.1"/>
			</g>
		</g>
	</g>
	<g>
		<path class="st8" d="M108.2,194.5l53.7,19.5l57.9-20.7l0,7.1c0,0,0,3.4-5.6,6.2l-40.7,20.5c-8.3,4.1-18,4.1-26.3,0l-30.8-15.4
			c-7.9-4.1-8.2-8.5-8.2-8.5L108.2,194.5z"/>
		<path class="st9" d="M214.5,202.4l-41,20.6c-8.3,4.1-18,4.1-26.3,0l-30.6-15.3c-11.3-5.6-11.3-21.7,0-27.4l30.9-15.6
			c8.2-4.1,17.9-4.1,26.1,0l40.8,20.4C221.6,188.7,221.6,198.8,214.5,202.4z"/>
		<path class="st0" d="M160.4,220.6c3.7,0,7.4-0.9,10.7-2.5l41-20.6c2-1,2.3-2.9,2.3-3.7s-0.2-2.6-2.3-3.7l-40.8-20.4
			c-3.3-1.6-6.9-2.5-10.6-2.5c-3.7,0-7.3,0.9-10.6,2.5l-30.9,15.6c-3.4,1.7-5.4,5-5.4,8.8c0,3.8,2,7.1,5.4,8.8l30.6,15.3
			C153,219.7,156.7,220.6,160.4,220.6z"/>
		<g>
			<g>
				<g>
					<path class="st10" d="M118.3,133l24.3-12.2c0.3-0.2,0.5-0.5,0.5-0.9v-3c0-0.1-0.8-0.6-1.4-0.2L117.5,129
						c-0.3,0.2-0.5,0.5-0.5,0.9v2.4C116.9,132.9,117.7,133.4,118.3,133z"/>
					<path class="st11" d="M141.8,116.1l-24.3,12.2c-0.3,0.2-0.5,0.5-0.5,0.9v1c0-0.4,0.2-0.7,0.5-0.9l24.3-12.2
						c0.6-0.3,1.1-0.5,1.4,0.1V117C143.2,116.3,142.4,115.8,141.8,116.1z"/>
					
						<ellipse transform="matrix(0.7071 -0.7071 0.7071 0.7071 -49.8578 128.9367)" class="st12" cx="130.7" cy="124.7" rx="1.4" ry="1"/>
					
						<ellipse transform="matrix(0.7071 -0.7071 0.7071 0.7071 -49.889 128.993)" class="st13" cx="130.8" cy="124.7" rx="1" ry="0.7"/>
					
						<ellipse transform="matrix(0.7071 -0.7071 0.7071 0.7071 -49.5822 129.0508)" class="st9" cx="131" cy="124.4" rx="0.4" ry="0.3"/>
				</g>
				<path class="st14" d="M117.7,129.2c-0.8,0-0.7-0.4-0.7-0.4c-0.1,0.1-0.1,0.4-0.1,0.4v3.2c0,0,0.1,0.8,0.8,0.8V129.2z"/>
			</g>
			<g>
				<polygon class="st11" points="108.7,172.5 156,148.9 156,117.7 108.7,141.3 				"/>
				<polygon class="st8" points="108.7,141.3 156,117.7 155.1,117.3 107.8,140.9 				"/>
				<polygon class="st8" points="108.7,172.5 108.7,141.3 107.8,140.9 107.8,172.1 				"/>
				<polygon class="st15" points="154.2,120.4 110.6,142.2 110.6,169.8 154.2,148 				"/>
			</g>
		</g>
		<g>
			<g>
				<polygon class="st9" points="110.6,213.4 139.4,227.8 146.9,223.9 118,209.5 				"/>
				<polygon class="st16" points="139.4,227.8 139.4,231 146.9,227.1 146.9,223.9 				"/>
				<polygon class="st8" points="110.6,213.4 110.6,216.6 139.4,231 139.4,227.8 				"/>
			</g>
			<polygon class="st0" points="112.9,214.6 137,226.6 144.4,222.7 120.4,210.7 			"/>
		</g>
		<g>
			<g>
				<polygon class="st17" points="177.4,179.1 178.7,178.4 177.8,191.6 177.4,191.8 				"/>
				<polygon class="st12" points="177,191.6 176.1,178.4 177.4,179.1 177.4,191.8 				"/>
				<polygon class="st17" points="187.5,173.8 188.8,173.2 187.9,186.4 187.5,186.5 				"/>
				<polygon class="st12" points="187.3,186.4 186.3,173.2 187.5,173.8 187.5,186.5 				"/>
				<polygon class="st18" points="168.4,174.6 169.7,173.9 168.8,187 168.4,187.3 				"/>
				<polygon class="st19" points="168.2,187.2 167.2,173.9 168.4,174.6 168.4,187.3 				"/>
				<g>
					<g>
						<path class="st20" d="M174.2,179.8c1.3,0.6,2.7,0.8,4,0.1l11-5.5v-1.4l-22.6,1.8v0.4L174.2,179.8z"/>
					</g>
					<path class="st21" d="M176,178.8L176,178.8l-9.5-4v0.4c0,0.4,0.3,0.8,0.6,1l7.6,3.8C175.5,180.5,176.1,179.7,176,178.8z"/>
					<g>
						<path class="st22" d="M167.5,176l6.9,3.5c1.2,0.6,2.6,0.6,3.7,0l11.2-5.5l-10.3-6l-11.7,5.8
							C166.4,174.1,166.4,175.5,167.5,176z"/>
					</g>
					<g>
						<polygon class="st20" points="191.5,158.4 189.2,174.5 188.4,174.2 177.5,168.6 179.7,153.2 180.5,152.9 						"/>
					</g>
					<g>
						<g>
							<polygon class="st16" points="190.9,158.7 188.4,174.2 177.5,168.6 179.7,153.2 							"/>
						</g>
					</g>
				</g>
			</g>
			<g>
				<polygon class="st17" points="150.2,192.4 151.4,191.8 150.5,205 150.2,205.1 				"/>
				<polygon class="st12" points="149.9,205 148.9,191.8 150.2,192.4 150.2,205.1 				"/>
				<polygon class="st17" points="161.6,186.8 162.9,186.2 162.1,199.2 161.6,199.5 				"/>
				<polygon class="st12" points="161.3,199.4 160.4,186.2 161.6,186.8 161.6,199.5 				"/>
				<polygon class="st17" points="141.3,188 142.6,187.3 141.7,200.5 141.3,200.7 				"/>
				<polygon class="st12" points="140.9,200.5 140,187.3 141.3,188 141.3,200.7 				"/>
				<g>
					<path class="st20" d="M150.2,193.6l12.4-6.2c0.3-0.3,0.5-0.5,0.5-0.9V186l-24.1,0.6v1.4L150.2,193.6z"/>
				</g>
				<g>
					<path class="st22" d="M150.4,192.8l12.2-6c0.6-0.3,0.6-1.2,0-1.4l-8.1-4.1c-1-0.5-2.2-0.5-3.1,0l-12.4,6.2L150.4,192.8z"/>
				</g>
			</g>
			<g>
				<polygon class="st17" points="193.2,178.9 194.5,178.3 193.6,199.2 193.2,199.3 				"/>
				<polygon class="st12" points="192.8,199.2 191.9,178.3 193.2,178.9 193.2,199.3 				"/>
				<polygon class="st17" points="170,190.6 171.3,189.9 170.4,210.8 170,211.1 				"/>
				<polygon class="st12" points="169.7,210.8 168.7,189.9 170,190.6 170,211.1 				"/>
				<polygon class="st17" points="135.4,174.2 136.6,173.5 135.8,194.4 135.4,194.7 				"/>
				<polygon class="st12" points="135,194.4 134.1,173.5 135.4,174.2 135.4,194.7 				"/>
				<path class="st23" d="M132.2,174.9l-0.3-1.9l37.6,17.4v1.3c0,0-0.9,0.5-2.2-0.1L132.2,174.9z"/>
				<polygon class="st22" points="169.5,191.7 169.5,190.1 196.6,176.3 196.4,178.3 				"/>
				<path class="st20" d="M167,190.6l-34.6-16.8c-0.6-0.4-0.6-1.3,0-1.5l27.6-13.8c0.3-0.1,0.5-0.1,0.8,0l35.4,17.2
					c0.6,0.4,0.6,1.3,0,1.5l-26.7,13.3C168.7,190.8,167.8,190.8,167,190.6z"/>
			</g>
			<g>
				<g>
					<polygon class="st20" points="138.1,173.1 149,178.5 150.8,193 150.2,193.7 137.3,173.2 137.3,173.2 					"/>
				</g>
				<g>
					<g>
						<polygon class="st16" points="148.5,178.7 150.2,193.7 139,188.1 137.3,173.2 						"/>
					</g>
				</g>
			</g>
			<g>
				<path class="st24" d="M169.5,175c0,0,0.4,0,0.1-0.3c-0.3-0.4-2.2-3.6-2.2-3.6v0.6l1.8,2.9l-2.7-0.1l0.3,0.3L169.5,175z"/>
				<path class="st16" d="M168.5,170.8v4.9c0,0.4-0.4,0.6-0.6,0.6l-7.1-0.9c-0.3-0.1-0.5-0.4-0.5-0.6v-4.9c0-0.4,0.4-0.6,0.6-0.6
					l7.1,1.2C168.2,170.4,168.5,170.6,168.5,170.8z"/>
				<path class="st9" d="M168.2,171.3v4.9c0,0.4-0.4,0.6-0.6,0.6l-7.1-1.2c-0.3-0.1-0.5-0.4-0.5-0.6v-4.9c0-0.4,0.4-0.6,0.6-0.6
					l7.1,1.2C168.1,170.8,168.2,171,168.2,171.3z"/>
				<path class="st25" d="M167.7,175.5c0,0,0,0,0-0.1v-4.1c0-0.1,0-0.1,0-0.1l-7.1-1.2c0,0,0,0,0,0.1v4.2l0,0L167.7,175.5z"/>
			</g>
		</g>
	</g>
	<g>
		<path class="st8" d="M389.9,283.5L336.2,303L240,263.4l0,7.1c0,0,0,3.4,5.6,6.2l79,39.5c8.3,4.1,18,4.1,26.3,0l30.8-15.4
			c7.9-4.1,8.2-8.5,8.2-8.5L389.9,283.5z"/>
		<path class="st9" d="M245.3,272.3l79.3,39.6c8.3,4.1,18,4.1,26.3,0l30.6-15.3c11.3-5.6,11.3-21.7,0-27.4l-69.2-34.6
			c-8.2-4.1-17.9-4.1-26.1,0l-40.8,20.4C238.3,258.7,238.3,268.8,245.3,272.3z"/>
		<path class="st0" d="M337.8,309.5c-3.7,0-7.4-0.9-10.7-2.5l-79.3-39.6c-2-1-2.3-2.9-2.3-3.7s0.2-2.6,2.3-3.7l40.8-20.4
			c3.3-1.6,6.9-2.5,10.6-2.5c3.7,0,7.3,0.9,10.6,2.5l69.2,34.6c3.4,1.7,5.4,5,5.4,8.8s-2,7.1-5.4,8.8L348.4,307
			C345.1,308.7,341.4,309.5,337.8,309.5z"/>
		<g>
			<polygon class="st18" points="318.5,261.1 318.9,260.9 319.8,247.6 318.5,248.2 			"/>
			<polygon class="st37" points="318.5,261.1 318.5,248.2 317.2,247.6 318.1,260.9 			"/>
			<polygon class="st13" points="328.7,255.8 329.2,255.6 330,242.3 328.7,242.9 			"/>
			<polygon class="st12" points="328.7,255.8 328.7,242.9 327.5,242.3 328.4,255.6 			"/>
			<polygon class="st18" points="309.5,256.5 309.9,256.3 310.8,243 309.5,243.6 			"/>
			<polygon class="st37" points="309.5,256.5 309.5,243.6 308.2,243 309.1,256.3 			"/>
			<g>
				<g>
					<path class="st20" d="M307.6,244.3V244l22.8-1.8v1.4l-11.1,5.5c-1.3,0.6-2.8,0.6-4-0.2L307.6,244.3z"/>
				</g>
				<path class="st21" d="M315.8,249.2l-7.6-3.8c-0.4-0.2-0.6-0.6-0.6-1V244l9.6,4v0.1C317.3,248.9,316.6,249.6,315.8,249.2z"/>
				<g>
					<path class="st8" d="M308.3,242.7l11.7-5.9l10.3,6.1l-11.2,5.6c-1.2,0.6-2.6,0.6-3.8,0l-7-3.5
						C307.4,244.6,307.4,243.2,308.3,242.7z"/>
				</g>
				<g>
					<polygon class="st20" points="321.6,221.8 320.9,222 318.7,237.6 329.7,243.3 330.4,243.5 332.8,227.4 					"/>
				</g>
				<g>
					<g>
						<polygon class="st16" points="320.9,222 318.7,237.6 329.7,243.3 332.1,227.7 						"/>
					</g>
				</g>
			</g>
		</g>
		<g>
			<path class="st56" d="M308.6,242.1c0.2,0,0.9-0.7,1-1c0-0.3,0-0.9,0.2-1c0.2-0.1,1.1-0.5,1.1-0.5c0,1.1-0.3,1.4,0,1.7
				s1-1.3,0.7-2.6c0.6-1.4,1-1.3,1-1.3s-1.7,0-1.8,0c0,0-1.6,2.1-2.3,2.4s-0.2,2.4-0.1,2.4C308.6,242.1,308.6,242.1,308.6,242.1z"/>
			<path class="st57" d="M310.2,237.7c0,0,1.6-0.1,1.8,0.9c0.9-0.8,5.1-5.3,5.1-5.4s0.7-7.5,0.7-7.5s-1.8-0.7-2.5,1.2
				c-0.8,1.9-0.8,4.6-1.4,5.5C313.3,233.5,310.3,237.1,310.2,237.7z"/>
			<path class="st58" d="M317.8,239.1c-0.4,0.2-3.3,1.4-5.2,3.7c-1.9,2.2,5.3,6.1,6.1,6.4c0.7,0.2,7.8-3,7.6-6.3
				S317.8,239.1,317.8,239.1z"/>
			<path class="st32" d="M321.5,221.9c0.6,3,1.9,2.2,1.8,5.6c0,2.3-1.9-1.2-1.9-1.2l-1.5-3.8C319.9,222.4,321.3,220.9,321.5,221.9z"
				/>
			<path class="st42" d="M315.3,232.8c-0.5-1.5,0.9-3.6,1.2-5.5c0.2-1.7,2.4-4.3,6.8-0.6c1.1,0.9,2.1,2,2.4,3.7
				c0.5,2.8,0.1,6.4,0.4,7c0.5,0.9,2.3,4,1.2,6c-3.3,0.4-3.2,1-5,0.2c-1.8-0.8-3.2-4.2-5.8-4.1c1.5-1.6,1.4-2.4,1.3-3.5
				S315.8,234.4,315.3,232.8z"/>
			<g>
				<g>
					<g>
						<path class="st57" d="M326,237.3c-0.3-0.6,0.2-4.2-0.4-7c-0.3-1.4-1-2.4-1.8-3.2c0.2,0.4-1.9,1.1-1.8,1.6
							c0.8,5.4-0.7,6.2-0.4,6.8c0.5,0.9,2,1.5,0.8,3.5c-3.3,0.4-1.2,1.6-3,0.9c-1.2-0.5-0.9-0.5-2.2-1.5c-0.2,0.3-0.5,0.7-0.8,1.1
							c2.6-0.2,4,3.3,5.8,4.1c1.8,0.8,1.7,0.2,5-0.2C328.3,241.3,326.5,238.3,326,237.3z"/>
					</g>
				</g>
			</g>
			<path class="st31" d="M318.8,225.9c-0.3,0.2-1.5,0.1-1.4,3.6c0,1.4,0.4,3.5,0.6,3.4c0.2-0.2,1.1-3.8,1.7-4.2
				c0.6-0.4,1.6-3.1,1.6-3.1s-0.8-1.8-0.9-1.9C320.2,223.8,318.8,225.9,318.8,225.9z"/>
			<path class="st59" d="M317.9,233.4c0,0,0.6-2.1,1.6-4.1c0.3,0.6,0.7,0.9,0.7,0.9s1.9-3.6,1.7-4.5c-0.4-0.2-0.7-0.7-0.8-0.6
				s-1.1,2.7-2.4,3.4c-0.2,0.6-1,3.3-1,3.3s-0.3-3.9,0.2-5c-0.4-1-1.2-0.1-1.2-0.1s-0.9,2.2-0.9,2.8c0.4-0.3,1.3-0.5,1.3-0.5
				S317,231.9,317.9,233.4z"/>
			<path class="st30" d="M315.8,221.9c-0.1,0.2-0.8,0.5-0.8,1c0,1.1,0.3,1.3,0.3,2c0.1,1.3,0.7,2.6,1.7,3.5c1.4,0.2,2.3-1.1,3.2-2.3
				c0.8-1,1.2-1.9,0.8-2.3c-0.7-1-1.6-0.6-2-0.6C318.7,223.1,315.8,221.9,315.8,221.9z"/>
			<path class="st60" d="M316.3,223.2c0.8-0.3,1.9,0.2,2.1,0.9c0.2,0.6-0.8,1.1-0.7,1.4c0.1,1.3,1.4,0,1.1,2.2
				c0.8-0.7,2.4-2.6,2.6-3.7C321.5,222.8,316.6,221.3,316.3,223.2z"/>
			<path class="st32" d="M316.3,223.2c0,0-0.7-1-1-0.6s0,1.6,0,1.6s-1.9-2.7,1.7-4.7c3-1.7,4.8,1,4.8,3.5c0,1.3-0.8,2.1-0.8,2.1
				l-0.3-0.1c0,0,0.7-0.9,0.5-1.4c-0.3-0.7-0.7,0.4-1.4,1.1C318.9,224.8,318.6,221.4,316.3,223.2z"/>
		</g>
		<g>
			<polygon class="st13" points="318.3,293 318.7,292.8 319.6,279.5 318.3,280.2 			"/>
			<polygon class="st12" points="318.3,293 318.3,280.2 317,279.5 318,292.9 			"/>
			<polygon class="st13" points="329.9,287.3 330.3,287.1 331.1,273.8 329.9,274.4 			"/>
			<polygon class="st12" points="329.9,287.3 329.9,274.4 328.6,273.8 329.5,287.1 			"/>
			<polygon class="st13" points="309.3,288.5 309.7,288.3 310.6,274.9 309.3,275.6 			"/>
			<polygon class="st12" points="309.3,288.5 309.3,275.6 308,274.9 309,288.3 			"/>
			<g>
				<path class="st20" d="M307,275.8v-1.4l24.3-0.6v0.5c0,0.4-0.2,0.7-0.5,0.9l-12.5,6.3L307,275.8z"/>
			</g>
			<g>
				<path class="st8" d="M307,275.2l12.5-6.3c1-0.5,2.1-0.5,3.1,0l8.3,4.1c0.6,0.3,0.6,1.2,0,1.5l-12.3,6.1L307,275.2z"/>
			</g>
		</g>
		<g>
			<polygon class="st18" points="344.3,273.3 344.7,273.1 345.6,259.8 344.3,260.5 			"/>
			<polygon class="st37" points="344.3,273.3 344.3,260.5 343,259.8 344,273.2 			"/>
			<polygon class="st13" points="354.6,268.1 355,267.9 355.9,254.6 354.6,255.2 			"/>
			<polygon class="st12" points="354.6,268.1 354.6,255.2 353.3,254.6 354.2,267.9 			"/>
			<polygon class="st18" points="335.3,268.8 335.7,268.6 336.6,255.3 335.3,255.9 			"/>
			<polygon class="st37" points="335.3,268.8 335.3,255.9 334,255.3 335,268.6 			"/>
			<g>
				<g>
					<path class="st20" d="M333.5,256.6v-0.4l22.8-1.8v1.4l-11.1,5.5c-1.3,0.6-2.8,0.6-4-0.2L333.5,256.6z"/>
				</g>
				<path class="st21" d="M341.7,261.5l-7.6-3.8c-0.4-0.2-0.6-0.6-0.6-1v-0.4l9.6,4v0.1C343.1,261.1,342.4,261.9,341.7,261.5z"/>
				<g>
					<path class="st8" d="M334.2,255l11.7-5.9l10.3,6.1l-11.2,5.6c-1.2,0.6-2.6,0.6-3.8,0l-7-3.5C333.2,256.8,333.2,255.5,334.2,255
						z"/>
				</g>
				<g>
					<polygon class="st20" points="347.4,234.1 346.7,234.3 344.5,249.9 355.5,255.6 356.2,255.8 358.6,239.7 					"/>
				</g>
				<g>
					<g>
						<polygon class="st16" points="346.7,234.3 344.5,249.9 355.5,255.6 357.9,239.9 						"/>
					</g>
				</g>
			</g>
		</g>
		<g>
			<g>
				<path class="st10" d="M255.7,208l24.3-12.2c0.3-0.2,0.5-0.5,0.5-0.9v-3c0-0.1-0.8-0.6-1.4-0.2l-24.3,12.2
					c-0.3,0.2-0.5,0.5-0.5,0.9v2.4C254.3,207.8,255,208.3,255.7,208z"/>
				<path class="st11" d="M279.1,191.1l-24.3,12.2c-0.3,0.2-0.5,0.5-0.5,0.9v1c0-0.4,0.2-0.7,0.5-0.9l24.3-12.2
					c0.6-0.3,1.1-0.5,1.4,0.1v-0.2C280.5,191.2,279.8,190.7,279.1,191.1z"/>
				
					<ellipse transform="matrix(0.7071 -0.7071 0.7071 0.7071 -62.61 248.0104)" class="st12" cx="268.1" cy="199.6" rx="1.4" ry="1"/>
				
					<ellipse transform="matrix(0.7071 -0.7071 0.7071 0.7071 -62.6413 248.0667)" class="st13" cx="268.1" cy="199.6" rx="1" ry="0.7"/>
				
					<ellipse transform="matrix(0.7071 -0.7071 0.7071 0.7071 -62.3345 248.1246)" class="st9" cx="268.3" cy="199.3" rx="0.4" ry="0.3"/>
			</g>
			<path class="st14" d="M255.1,204.1c-0.8,0-0.7-0.4-0.7-0.4c-0.1,0.1-0.1,0.4-0.1,0.4v3.2c0,0,0.1,0.8,0.8,0.8V204.1z"/>
		</g>
		<g>
			<polygon class="st11" points="246.1,247.5 293.3,223.9 293.3,192.7 246.1,216.3 			"/>
			<polygon class="st8" points="246.1,216.3 293.3,192.7 292.4,192.2 245.2,215.8 			"/>
			<polygon class="st8" points="246.1,247.5 246.1,216.3 245.2,215.8 245.2,247 			"/>
			<polygon class="st9" points="291.5,195.3 247.9,217.1 247.9,244.8 291.5,223 			"/>
			<polygon class="st61" points="288.2,199.6 257.7,214.8 257.7,234.2 288.2,218.9 			"/>
		</g>
		<g>
			<path class="st11" d="M294,271.4c-0.8,0.2-2.2,0-2.3-2.1c0-2.1,4.7-4.4,5.3-4.3c0.5,0.2,2.6,0.3,1.2,1.8
				c-1.3,1.5-2.4,1.5-2.8,2.5C295.2,270.3,295,271.2,294,271.4z"/>
			<path class="st62" d="M294,270.4c1-0.2,1.7-1.5,2.5-2.2c2.9-2.3,1.9-2.6,2-2.7c0.3,0.2,0.4,0.6-0.2,1.3c-1.3,1.5-1.6,1.4-2.3,2.5
				c-0.6,0.8-0.9,1.9-1.9,2.1c-0.8,0.2-2.2,0-2.3-2.1c0-0.1,0-0.3,0.1-0.4C292.1,270.4,293.3,270.5,294,270.4z"/>
			<path class="st63" d="M296.4,267.5c0,0-0.3-3.9,0-7.5c0.3-3.6-4.6-2.9-4.6-2.9s-1.6,8.3-0.1,12.4
				C291.9,270.3,295.6,270.2,296.4,267.5z"/>
			<path class="st48" d="M291.7,257c0,0,1.9-0.3,3.3,0.4c-0.3,1.7-1.3,8.3-0.1,11.9c-1.4,0.8-3.1,0.7-3.3,0.1
				C290.2,265.3,291.7,257,291.7,257z"/>
		</g>
		<g>
			<polygon class="st13" points="286.9,282.7 287.3,282.5 288.2,269.2 286.9,269.8 			"/>
			<polygon class="st12" points="286.9,282.7 286.9,269.8 285.6,269.2 286.6,282.5 			"/>
			<polygon class="st13" points="298.5,277 298.9,276.8 299.8,263.4 298.5,264.1 			"/>
			<polygon class="st12" points="298.5,277 298.5,264.1 297.2,263.4 298.2,276.8 			"/>
			<polygon class="st13" points="277.9,278.2 278.3,278 279.2,264.6 277.9,265.3 			"/>
			<polygon class="st12" points="277.9,278.2 277.9,265.3 276.6,264.6 277.6,278 			"/>
			<g>
				<path class="st20" d="M275.7,265.5V264l24.3-0.6v0.5c0,0.4-0.2,0.7-0.5,0.9l-12.5,6.3L275.7,265.5z"/>
			</g>
			<g>
				<path class="st8" d="M275.7,264.8l12.5-6.3c1-0.5,2.1-0.5,3.1,0l8.3,4.1c0.6,0.3,0.6,1.2,0,1.5l-12.3,6.1L275.7,264.8z"/>
			</g>
		</g>
		<g>
			<path class="st11" d="M307.7,269.3c0.1,0.4-0.3,1.5-1.6,1.7c-1.3,0.2-3.1,0.3-3.1,0.3v0.5c0,0-2.4,1-3-0.5
				c-0.5-1.5-0.3-1.7,0-2.1c0.8-0.9,5.4-1.6,6.2-1.4C307,268,307.6,268.6,307.7,269.3z"/>
			<path class="st62" d="M300,270.7c0.5,1.5,3,0.5,3,0.5v-0.5c0,0,1.7-0.1,3.1-0.3c1-0.1,1.4-0.8,1.6-1.3c0,0.1,0,0.1,0,0.2
				c0.1,0.4-0.3,1.5-1.6,1.7c-1.3,0.2-3.1,0.3-3.1,0.3v0.5c0,0-2.4,1-3-0.5c-0.4-1.1-0.2-1.4,0-1.8
				C300.1,269.8,299.8,270.2,300,270.7z"/>
			<path class="st63" d="M283.9,265.8C283.9,265.8,283.9,265.9,283.9,265.8c0.3,0.2,0.9,2.2,3,2.4c3.2,0.3,5.7-2.7,6.8-3.4
				c1.3-0.8,4.9-2.2,4.9-2.2l1.4,0.7v1.4l-0.6,0.3c1,3.1-0.7,4.2,0.4,6c0.5,1.4,2.3-1.4,3.5-1.8c1.1-0.4-0.1-3-0.1-5.4
				c0-1.5,0.4-3.3,0.2-4.8c-0.1-0.6-0.1-1.3-0.3-1.9c-0.1-0.3-0.2-0.6-0.4-0.9c-0.1-0.2-0.3-0.3-0.5-0.3c-0.4,0-0.8-0.1-1.2-0.2
				c-1.3-0.3-2.6-0.7-4-1c-1.9-0.5-3.8-1.1-5.8-1.4c-0.7-0.1-1.4-0.2-2.1-0.1c-0.4,0-0.8,0.2-1,0.6c-0.1,0.2-0.2,0.3-0.3,0.5
				c-0.5,0.9-0.8,1.8-1.2,2.8C285.9,259.7,284,265.6,283.9,265.8z"/>
			<path class="st48" d="M287.6,261.4c0.3,0.2,0,3.7,2.2,3.6c2.7,0,3.5-1.3,4.7-2c2.1-1.3-3.3-3.6-3.3-3.6l-0.1-2.6l8.9,4.2l0.8,2.2
				c1,3.1-1.1,4.4-0.1,6.2c0.4,1.2,2.9-0.5,2.5-0.4c-1.2,0.5-3,3.3-3.5,1.8c-1-1.8,0.6-4.1-0.8-6.3v-0.6c0,0,0-0.5-0.7-0.9
				c0,0-3.2,0.8-4.5,1.5c-1.2,0.7-3.7,3.7-6.8,3.4c-2.2-0.2-2.7-2.2-3-2.4c0,0,0,0,0,0C284,265.6,287.6,261.4,287.6,261.4z"/>
		</g>
		<g>
			<polygon class="st13" points="361.3,287.3 361.7,287.1 362.6,266 361.3,266.6 			"/>
			<polygon class="st12" points="361.3,287.3 361.3,266.6 360,266 361,287.1 			"/>
			<polygon class="st13" points="337.9,299.2 338.4,299 339.2,277.9 337.9,278.5 			"/>
			<polygon class="st12" points="337.9,299.2 337.9,278.5 336.7,277.9 337.6,299 			"/>
			<polygon class="st13" points="274.9,269.1 275.3,269 276.2,247.8 274.9,248.5 			"/>
			<polygon class="st12" points="274.9,269.1 274.9,248.5 273.6,247.8 274.5,268.9 			"/>
			<path class="st0" d="M335.1,279.5c1.3,0.6,2.2,0.1,2.2,0.1v-1.3l-66-31.1l0.3,1.9L335.1,279.5z"/>
			<polygon class="st8" points="364.6,266 364.9,264.1 337.4,277.9 337.4,279.6 			"/>
			<path class="st20" d="M337.4,278.4l27-13.5c0.6-0.3,0.6-1.2,0-1.5l-63.8-30.8c-0.2-0.1-0.5-0.1-0.8,0l-27.9,13.9
				c-0.6,0.3-0.6,1.2,0,1.5l63,30.4C335.6,278.7,336.6,278.7,337.4,278.4z"/>
		</g>
		<g>
			<path class="st30" d="M296.7,253.9c0.3,0,1-0.5,2-1c0.5-0.3,1.5-0.4,1.8-0.7c0,0,0.2-0.3,0.1-0.3s-0.8,0-1.2,0
				c-0.5,0,0.8-0.4,1.1-0.5s-0.1-0.7-0.6-1c-0.6-0.2-1.2-0.3-2.5,0.2c-0.9,0.3-1.2,1.5-1.6,2.2C295.3,253.5,295.9,253.9,296.7,253.9
				z M299.1,251h0.8l-0.7,0.1L299.1,251z"/>
			<path class="st57" d="M283.2,244.3c-0.5-0.5-4.3-0.9-4.5,1.5c-0.5,4.4,1.9,7.6,2.7,7.9c0.7,0.4,7.2,0.1,6.9-1
				c0-0.1-2.2-1.1-2.6-1.2c-2.6-0.5-6.2-1.3-5.6-1.9C280.8,248.9,283.2,244.3,283.2,244.3z"/>
			<path class="st42" d="M283.6,244c-1.1,0-6.2-0.7-4.6,7.4c0.7,3.5,2.8,3.9,0.7,8.5c-2.1,4.4,5,6.5,5.7,6.5
				c2.5,0.2,2.8-3.8,7.1-5.1c0,0-1.6-12.7-6.1-15.5C281.8,242.9,283.6,244,283.6,244z"/>
			<g>
				<g>
					<path class="st35" d="M283.6,244C283.6,244,283.6,244,283.6,244C282.9,243.6,283.6,244,283.6,244z"/>
					<g>
						<path class="st57" d="M287.6,265.3c0,0,2.2-5.8-1.1-8.1c-0.7-0.5-3-1.9-3.3-2.7c-0.2-0.9,2.7-0.2,2.1-2.3
							c-0.8-3,0.7-6.3-2.8-8.2c-0.3-0.2,2.2,0.8,3.9,1.8c4.6,2.8,6.1,15.5,6.1,15.5C290,262,287.6,265.3,287.6,265.3z"/>
					</g>
				</g>
			</g>
			<path class="st30" d="M286,244.6c0,0-0.4-1.9,1.2-2.1c1.3-0.1-4-6.6-5.2-5.1c-0.4,0.6-0.6,1.1-0.3,1.9c0.1,0.2-0.2,0.6-0.2,0.9
				c0.1,1,0.6,2.1,0.9,2.4c0.6,0.5,0,0,0.2,0.4c0.2,0.4,0.1,0.6-0.1,1.3C282.4,245.1,286,244.6,286,244.6z"/>
			<g>
				<g>
					<path class="st31" d="M283.2,243.1c-0.9-0.4-1.2-1.6-1.2-1.6c0.1,1,0.5,1.1,0.8,1.6c0.2,0.4,0,0.2-0.1,0.9
						c-0.2,0.7,4,1.8,4,1.8s-1.1-1.8,0-2.8C285.4,243.1,283.9,243.4,283.2,243.1z"/>
				</g>
			</g>
			<path class="st32" d="M285.8,243.4c1.4-0.1,2-1.1,2-1.9c0.1-2.2,0.5-3.9-1.5-5.2c-1.4-0.9-3.5-0.6-4.1-0.1
				c-0.8,0.6,0,1.2-0.5,1.1c-0.7-0.3-0.1,1-0.1,1s1.6,2.1,0.8,2.6c0.3,0.1,0.9-0.3,1.1-0.2c0.8,0.3-1.2,1.5-0.2,2.5
				C283.8,243.6,285,243.6,285.8,243.4z"/>
			<path class="st42" d="M286.5,247.3c-2.6,1.3,1.9,12.2,3.9,12.2c2.1,0,5.9-4.6,6.7-5.3c0.7-0.7-0.8-2.3-1.4-1.8
				c-2.1,1.8-2.9,2.4-3.9,2.7C290.2,252.2,289.1,245.7,286.5,247.3z"/>
			<path class="st57" d="M291,257.8c2.1,0,5.2-3.8,6-4.7c0.2,0.4,0.3,0.8,0,1.1c-0.8,0.8-4.5,5.3-6.7,5.3c-1.6,0-4.9-7.5-4.6-10.8
				C286.1,252.3,289.6,257.8,291,257.8z"/>
			<path class="st64" d="M282.2,243.9c0.1-0.3,0.6-0.5,0.6-0.5c-0.3,0.7,0.3,1.1,2.2,1.6c0.5,0.1,1.4,0,1.7,0.1
				c0.3,0.1,0.2,0.6,0.4,1.2c-0.6,0.1-1,0-1.7-0.1C283.5,245.7,282,244.8,282.2,243.9z"/>
		</g>
		<g>
			<g>
				<polygon class="st20" points="274,250.4 274,250.4 286.9,271.1 287.6,270.3 285.8,255.8 274.8,250.3 				"/>
			</g>
			<g>
				<g>
					<polygon class="st16" points="274,250.4 275.7,265.5 286.9,271.1 285.2,256 					"/>
				</g>
			</g>
		</g>
		<g>
			<g>
				<polygon class="st20" points="305.3,260.7 305.3,260.7 318.3,281.4 318.9,280.6 317.2,266.1 306.1,260.6 				"/>
			</g>
			<g>
				<g>
					<polygon class="st16" points="305.3,260.7 307,275.8 318.3,281.4 316.6,266.3 					"/>
				</g>
			</g>
		</g>
		<g>
			<path class="st30" d="M320.1,242.2c-0.2,0-0.5,0.1-0.8,0.1s-1.7-0.1-2.1,0.1c-0.4,0.2-0.9,0.3-0.9,0.3s-1.4,0.3-1.5,1.3
				c-0.2,1,0,1.1,0.3,1.1c0.3,0,1.7-0.8,1.7-0.6s-1.1,0.4-1,0.6c0,0.2,1.8-0.2,2.1-0.5c0.3-0.3,2.5-1.5,2.5-1.8
				C320.4,242.7,320.1,242.2,320.1,242.2z"/>
			<path class="st42" d="M319.6,244c0,0,8.4-2.9,8-4.3c-0.6-1.8-1.5-8.4-2.2-9.9c-0.8-1.8-2.2-2.6-2.9-1.2c-0.7,1.3,1.7,9.3,2,10.2
				c-0.5,0.4-5.5,3-5.6,3.2S319.6,244,319.6,244z"/>
		</g>
		<g>
			<path class="st35" d="M299.9,244.6l-0.3-0.3l2.5,0.1l-1.6-2.7v-0.6c0,0,1.8,2.9,2,3.3c0.2,0.3-0.2,0.3-0.2,0.3L299.9,244.6z"/>
			<path class="st16" d="M301,240.4l-6.5-1c-0.3,0-0.6,0.2-0.6,0.6v4.5c0,0.3,0.2,0.5,0.4,0.6l6.5,1c0.3,0,0.6-0.2,0.6-0.6V241
				C301.4,240.7,301.2,240.5,301,240.4z"/>
			<path class="st9" d="M300.7,240.8l-6.5-1c-0.3,0-0.6,0.2-0.6,0.6v4.5c0,0.3,0.2,0.5,0.4,0.6l6.5,1c0.3,0,0.6-0.2,0.6-0.6v-4.5
				C301.2,241.1,301,240.8,300.7,240.8z"/>
			<path class="st11" d="M294.2,244.2c0,0,0,0,0-0.1v-3.8c0-0.1,0-0.1,0-0.1l6.5,1c0,0,0,0,0,0.1v3.8c0,0.1,0,0.1,0,0.1L294.2,244.2
				z"/>
		</g>
		<g class="st65">
			<path class="st57" d="M264.4,236.2l17.8-8.9c0,0,0-7.5-1.9-8c-1.9-0.4-11.7,3.7-14.9,8C264.1,228.8,264.4,236.2,264.4,236.2z"/>
			<path class="st66" d="M270.2,224.3c0.2-0.7,0-3.6,0-3.6l5-1.3c0,0-0.7,2.9,0,4.1c0.7,1.2-4,2.2-4,2.2L270.2,224.3z"/>
			<path class="st30" d="M272.6,222.5c0.5-0.2,3.2-1.8,3.4-6.5c0.3-4.6,0.6-5.4-0.6-5.8c-1.1-0.3-5.5,1.8-5.7,3.2
				C269.5,214.9,268.7,223.7,272.6,222.5z"/>
			<path class="st60" d="M269.7,216.2c0.2,0,2.9-1,2.9-0.5c0.1,0.5-0.4,2.4,0,3c0.4,0.5,0,2.6,0,3.7c0,0.2-2.8,1-3-3.9
				S269.7,216.2,269.7,216.2z"/>
			<path class="st32" d="M275.1,209.1c1.6,0.3,1.4,1.9,1.3,3.5c-0.1,0.7,0.1,1.3,0.2,1.6c0.1,0.3-0.4,3.3-0.7,3.3
				c-0.3-0.1-0.3-0.6-0.3-0.6s0.7-2.5,0.5-2.9c-0.1-0.4,0.3-3.4-1.1-3c-1.5,0.3-1.5,1.4-2,1.5s-2.5,0.4-2.9,1.4
				c-0.4,1.1,0.1,4.6,0,5c-0.1,0.4-0.4,0.6-0.6,0.4c-0.7-0.8-0.2-2.4-0.2-2.8c0-0.5-0.2-2.5,0.3-3.5
				C270,211.9,272,208.6,275.1,209.1z"/>
			<path class="st66" d="M269.1,217.6c-0.7,0.1-0.5,2.2,0.2,3C270.1,221.3,270,217.4,269.1,217.6z"/>
			<path class="st30" d="M276.6,213.9c-0.7-0.1-1.1,1.9-0.5,2.9C276.6,217.7,277.5,214,276.6,213.9z"/>
			<path class="st9" d="M269.4,222.3l3.4,2l2.9-4.5c0,0,0.6,7.8-1.6,11.5l-1.8,0.9C272.4,232.1,269.3,228.2,269.4,222.3z"/>
			<polygon class="st67" points="271.8,226.3 272.6,227 272.6,232 274.1,231.3 273.3,226.7 274.1,225.4 272.9,224.3 			"/>
		</g>
		<polygon class="st0" points="314.5,251.3 321.6,253.6 326.2,246.9 319.6,244.9 		"/>
		<polygon class="st0" points="328.2,270.8 335.3,273.1 339.8,266.4 333.3,264.4 		"/>
		<polygon class="st0" points="298.4,255.4 304.4,258.4 312.3,254.3 306.2,251.3 		"/>
		<polygon class="st14" points="300.2,255 304.7,257.2 304.9,257.2 300.3,255 		"/>
		<polygon class="st14" points="301.4,254.4 305.9,256.6 306.1,256.5 301.5,254.3 		"/>
		<polygon class="st14" points="302.6,253.8 307.1,256 307.3,255.9 302.7,253.7 		"/>
		<g>
			<path class="st36" d="M307.1,254.1c0.1-0.2,0.3-0.3,0.6-0.3v-0.4c-0.8,0-1.4,0.4-1.5,0.7H307.1z"/>
			<path class="st52" d="M308.2,253.8c0.3,0,0.5,0.2,0.6,0.3h0.9c-0.1-0.4-0.7-0.7-1.5-0.7V253.8z"/>
			<path class="st68" d="M308.8,254.3c-0.1,0.2-0.3,0.3-0.6,0.3v0.4c0.8,0,1.4-0.4,1.5-0.7H308.8z"/>
			<path class="st69" d="M307.8,254.7c-0.3,0-0.5-0.2-0.6-0.3h-0.9c0.1,0.4,0.7,0.7,1.5,0.7V254.7z"/>
		</g>
		<g>
			<polygon class="st11" points="316.2,261.7 320.5,259.6 314.2,256.6 309.9,258.7 			"/>
			<polygon class="st8" points="316.2,262.6 316.2,261.7 309.9,258.7 309.9,259.6 			"/>
			<polygon class="st16" points="320.5,260.5 320.5,259.6 316.2,261.7 316.2,262.6 			"/>
			<polygon class="st33" points="316.2,260.3 320.5,258.2 314.2,255.2 309.9,257.3 			"/>
			<polygon class="st34" points="316.2,261.3 316.2,260.3 309.9,257.3 309.9,258.2 			"/>
			<polygon class="st35" points="320.5,259.2 320.5,258.2 316.2,260.3 316.2,261.3 			"/>
		</g>
		<g>
			<g>
				<polygon class="st33" points="322.9,250.5 327.2,248.4 324.8,247.3 320.5,249.4 				"/>
				<polygon class="st20" points="321.2,249.4 323.9,248 325.6,248.9 322.9,250.2 				"/>
				<polygon class="st34" points="322.9,251 322.9,250.5 320.5,249.4 320.5,249.9 				"/>
				<polygon class="st35" points="327.2,248.9 327.2,248.4 322.9,250.5 322.9,251 				"/>
			</g>
			<ellipse class="st35" cx="325.3" cy="248.1" rx="0.4" ry="0.2"/>
		</g>
		<g>
			<g>
				<polygon class="st9" points="252.6,284.7 281.4,299.1 288.9,295.2 260.1,280.8 				"/>
				<polygon class="st16" points="281.4,299.1 281.4,302.3 288.9,298.4 288.9,295.2 				"/>
				<polygon class="st8" points="252.6,284.7 252.6,287.9 281.4,302.3 281.4,299.1 				"/>
			</g>
			<polygon class="st0" points="255,285.9 279,297.9 286.5,294 262.5,282 			"/>
		</g>
	</g>
	<g>
		<path class="st70" d="M379.9,330.9l53.7,19.5l57.9-20.7l0,7.1c0,0,0,3.4-5.6,6.2l-40.7,20.5c-8.3,4.1-18,4.1-26.3,0l-30.8-15.4
			c-7.9-4.1-8.2-8.5-8.2-8.5L379.9,330.9z"/>
		<path class="st9" d="M486.2,338.7l-41,20.6c-8.3,4.1-18,4.1-26.3,0L388.3,344c-11.3-5.6-11.3-21.7,0-27.4l30.9-15.6
			c8.2-4.1,17.9-4.1,26.1,0l40.8,20.4C493.3,325,493.3,335.2,486.2,338.7z"/>
		<path class="st71" d="M432.1,356.9c3.7,0,7.4-0.9,10.7-2.5l41-20.6c2-1,2.3-2.9,2.3-3.7s-0.2-2.6-2.3-3.7L442.9,306
			c-3.3-1.6-6.9-2.5-10.6-2.5c-3.7,0-7.3,0.9-10.6,2.5l-30.9,15.6c-3.4,1.7-5.4,5-5.4,8.8s2,7.1,5.4,8.8l30.6,15.3
			C424.7,356.1,428.4,356.9,432.1,356.9z"/>
		<g>
			<g>
				<g>
					<path class="st10" d="M390,269.4l24.3-12.2c0.3-0.2,0.5-0.5,0.5-0.9v-3c0-0.1-0.8-0.6-1.4-0.2l-24.3,12.2
						c-0.3,0.2-0.5,0.5-0.5,0.9v2.4C388.6,269.2,389.3,269.7,390,269.4z"/>
					<path class="st11" d="M413.4,252.5l-24.3,12.2c-0.3,0.2-0.5,0.5-0.5,0.9v1c0-0.4,0.2-0.7,0.5-0.9l24.3-12.2
						c0.6-0.3,1.1-0.5,1.4,0.1v-0.2C414.8,252.6,414.1,252.2,413.4,252.5z"/>
					<ellipse transform="matrix(0.7071 -0.7071 0.7071 0.7071 -66.7 360.9597)" class="st12" cx="402.4" cy="261" rx="1.4" ry="1"/>
					
						<ellipse transform="matrix(0.7071 -0.7071 0.7071 0.7071 -66.7313 361.016)" class="st13" cx="402.4" cy="261.1" rx="1" ry="0.7"/>
					
						<ellipse transform="matrix(0.7071 -0.7071 0.7071 0.7071 -66.4245 361.0739)" class="st9" cx="402.6" cy="260.7" rx="0.4" ry="0.3"/>
				</g>
				<path class="st14" d="M389.3,265.5c-0.8,0-0.7-0.4-0.7-0.4c-0.1,0.1-0.1,0.4-0.1,0.4v3.2c0,0,0.1,0.8,0.8,0.8V265.5z"/>
			</g>
			<g>
				<polygon class="st11" points="380.4,308.9 427.6,285.3 427.6,254.1 380.4,277.7 				"/>
				<polygon class="st8" points="380.4,277.7 427.6,254.1 426.7,253.6 379.5,277.2 				"/>
				<polygon class="st8" points="380.4,308.9 380.4,277.7 379.5,277.2 379.5,308.4 				"/>
				<polygon class="st15" points="425.8,256.8 382.2,278.6 382.2,306.2 425.8,284.4 				"/>
			</g>
		</g>
		<g>
			<g>
				<polygon class="st9" points="382.2,349.7 411.1,364.2 418.5,360.3 389.7,345.8 				"/>
				<polygon class="st70" points="411.1,364.2 411.1,367.3 418.5,363.4 418.5,360.3 				"/>
				<polygon class="st70" points="382.2,349.7 382.2,352.9 411.1,367.3 411.1,364.2 				"/>
			</g>
			<polygon class="st71" points="384.6,350.9 408.6,363 416.1,359 392.1,347 			"/>
		</g>
		<g>
			<g>
				<polygon class="st17" points="449.1,315.4 450.4,314.8 449.5,328 449.1,328.1 				"/>
				<polygon class="st12" points="448.7,328 447.8,314.8 449.1,315.4 449.1,328.1 				"/>
				<polygon class="st17" points="459.2,310.2 460.5,309.5 459.6,322.7 459.2,322.9 				"/>
				<polygon class="st12" points="458.9,322.7 457.9,309.5 459.2,310.2 459.2,322.9 				"/>
				<polygon class="st18" points="440.1,310.9 441.4,310.3 440.5,323.4 440.1,323.6 				"/>
				<polygon class="st19" points="439.8,323.5 438.8,310.3 440.1,310.9 440.1,323.6 				"/>
				<g>
					<g>
						<path class="st20" d="M445.9,316.2c1.3,0.6,2.7,0.8,4,0.1l11-5.5v-1.4l-22.6,1.8v0.4L445.9,316.2z"/>
					</g>
					<path class="st21" d="M447.7,315.2L447.7,315.2l-9.5-4v0.4c0,0.4,0.3,0.8,0.6,1l7.6,3.8C447.2,316.8,447.8,316.1,447.7,315.2z"
						/>
					<g>
						<path class="st22" d="M439.2,312.3l6.9,3.5c1.2,0.6,2.6,0.6,3.7,0l11.2-5.5l-10.3-6l-11.7,5.8
							C438.1,310.4,438.1,311.8,439.2,312.3z"/>
					</g>
					<g>
						<polygon class="st20" points="463.2,294.8 460.9,310.8 460.1,310.5 449.2,304.9 451.4,289.5 452.2,289.3 						"/>
					</g>
					<g>
						<g>
							<polygon class="st16" points="462.5,295 460.1,310.5 449.2,304.9 451.4,289.5 							"/>
						</g>
					</g>
				</g>
			</g>
			<g>
				<polygon class="st17" points="421.8,328.8 423.1,328.1 422.2,341.4 421.8,341.5 				"/>
				<polygon class="st12" points="421.6,341.4 420.5,328.1 421.8,328.8 421.8,341.5 				"/>
				<polygon class="st17" points="433.2,323.1 434.5,322.5 433.7,335.6 433.2,335.8 				"/>
				<polygon class="st12" points="433,335.7 432.1,322.5 433.2,323.1 433.2,335.8 				"/>
				<polygon class="st17" points="413,324.3 414.3,323.7 413.4,336.9 413,337 				"/>
				<polygon class="st12" points="412.6,336.9 411.7,323.7 413,324.3 413,337 				"/>
				<g>
					<path class="st20" d="M421.8,329.9l12.4-6.2c0.3-0.3,0.5-0.5,0.5-0.9v-0.5l-24.1,0.6v1.4L421.8,329.9z"/>
				</g>
				<g>
					<path class="st22" d="M422.1,329.2l12.2-6c0.6-0.3,0.6-1.2,0-1.4l-8.1-4.1c-1-0.5-2.2-0.5-3.1,0l-12.4,6.2L422.1,329.2z"/>
				</g>
			</g>
			<g>
				<polygon class="st17" points="464.8,315.2 466.1,314.6 465.2,335.5 464.8,335.6 				"/>
				<polygon class="st12" points="464.5,335.5 463.6,314.6 464.8,315.2 464.8,335.6 				"/>
				<polygon class="st17" points="441.6,326.9 442.9,326.3 442,347.2 441.6,347.4 				"/>
				<polygon class="st12" points="441.4,347.2 440.4,326.3 441.6,326.9 441.6,347.4 				"/>
				<polygon class="st17" points="407,310.5 408.3,309.9 407.4,330.8 407,331 				"/>
				<polygon class="st12" points="406.6,330.8 405.7,309.9 407,310.5 407,331 				"/>
				<path class="st23" d="M403.8,311.3l-0.3-1.9l37.6,17.4v1.3c0,0-0.9,0.5-2.2-0.1L403.8,311.3z"/>
				<polygon class="st22" points="441.1,328.1 441.1,326.4 468.3,312.7 468,314.6 				"/>
				<path class="st20" d="M438.7,326.9l-34.6-16.8c-0.6-0.4-0.6-1.3,0-1.5l27.6-13.8c0.3-0.1,0.5-0.1,0.8,0l35.4,17.2
					c0.6,0.4,0.6,1.3,0,1.5l-26.7,13.3C440.4,327.2,439.5,327.2,438.7,326.9z"/>
			</g>
			<g>
				<g>
					<polygon class="st20" points="409.8,309.4 420.7,314.8 422.5,329.3 421.8,330.1 409,309.6 409,309.6 					"/>
				</g>
				<g>
					<g>
						<polygon class="st16" points="420.1,315.1 421.8,330.1 410.7,324.4 409,309.6 						"/>
					</g>
				</g>
			</g>
			<g>
				<path class="st24" d="M435.8,309.5c0,0,0.4,0,0.1-0.3c-0.3-0.4-2.2-3.6-2.2-3.6v0.6l1.8,2.9l-2.7-0.1l0.3,0.3L435.8,309.5z"/>
				<path class="st25" d="M434.8,305.3v4.9c0,0.4-0.4,0.6-0.6,0.6l-7.1-0.9c-0.3-0.1-0.5-0.4-0.5-0.6v-4.9c0-0.4,0.4-0.6,0.6-0.6
					l7.1,1.2C434.6,304.9,434.8,305.1,434.8,305.3z"/>
				<path class="st9" d="M434.6,305.8v4.9c0,0.4-0.4,0.6-0.6,0.6l-7.1-1.2c-0.3-0.1-0.5-0.4-0.5-0.6v-4.9c0-0.4,0.4-0.6,0.6-0.6
					l7.1,1.2C434.4,305.3,434.6,305.5,434.6,305.8z"/>
				<path class="st25" d="M434,310c0,0,0,0,0-0.1v-4.1c0-0.1,0-0.1,0-0.1l-7.1-1.2c0,0,0,0,0,0.1v4.2l0,0L434,310z"/>
			</g>
		</g>
	</g>
	<g>
		<path class="st8" d="M476.8,379.5l53.7,19.5l57.9-20.7l0,7.1c0,0,0,3.4-5.6,6.2l-40.7,20.5c-8.3,4.1-18,4.1-26.3,0l-30.8-15.4
			c-7.9-4.1-8.2-8.5-8.2-8.5L476.8,379.5z"/>
		<path class="st9" d="M583.1,387.4l-41,20.6c-8.3,4.1-18,4.1-26.3,0l-30.6-15.3c-11.3-5.6-11.3-21.7,0-27.4l30.9-15.6
			c8.2-4.1,17.9-4.1,26.1,0l40.8,20.4C590.2,373.7,590.2,383.8,583.1,387.4z"/>
		<path class="st0" d="M529,405.6c3.7,0,7.4-0.9,10.7-2.5l41-20.6c2-1,2.3-2.9,2.3-3.7s-0.2-2.6-2.3-3.7l-40.8-20.4
			c-3.3-1.6-6.9-2.5-10.6-2.5c-3.7,0-7.3,0.9-10.6,2.5l-30.9,15.6c-3.4,1.7-5.4,5-5.4,8.8c0,3.8,2,7.1,5.4,8.8l30.6,15.3
			C521.6,404.7,525.3,405.6,529,405.6z"/>
		<g>
			<g>
				<g>
					<path class="st10" d="M486.9,318.1l24.3-12.2c0.3-0.2,0.5-0.5,0.5-0.9v-3c0-0.1-0.8-0.6-1.4-0.2L486,314
						c-0.3,0.2-0.5,0.5-0.5,0.9v2.4C485.5,317.9,486.3,318.4,486.9,318.1z"/>
					<path class="st11" d="M510.3,301.2L486,313.4c-0.3,0.2-0.5,0.5-0.5,0.9v1c0-0.4,0.2-0.7,0.5-0.9l24.3-12.2
						c0.6-0.3,1.1-0.5,1.4,0.1V302C511.7,301.3,511,300.8,510.3,301.2z"/>
					
						<ellipse transform="matrix(0.7071 -0.7071 0.7071 0.7071 -72.7353 443.7598)" class="st12" cx="499.3" cy="309.7" rx="1.4" ry="1"/>
					
						<ellipse transform="matrix(0.7071 -0.7071 0.7071 0.7071 -72.7666 443.816)" class="st13" cx="499.4" cy="309.7" rx="1" ry="0.7"/>
					
						<ellipse transform="matrix(0.7071 -0.7071 0.7071 0.7071 -72.4598 443.8739)" class="st9" cx="499.6" cy="309.4" rx="0.4" ry="0.3"/>
				</g>
				<path class="st14" d="M486.3,314.2c-0.8,0-0.7-0.4-0.7-0.4c-0.1,0.1-0.1,0.4-0.1,0.4v3.2c0,0,0.1,0.8,0.8,0.8V314.2z"/>
			</g>
			<g>
				<polygon class="st11" points="477.3,357.6 524.6,334 524.6,302.8 477.3,326.4 				"/>
				<polygon class="st8" points="477.3,326.4 524.6,302.8 523.7,302.3 476.4,325.9 				"/>
				<polygon class="st8" points="477.3,357.6 477.3,326.4 476.4,325.9 476.4,357.1 				"/>
				<polygon class="st15" points="522.7,305.4 479.1,327.2 479.1,354.9 522.7,333.1 				"/>
			</g>
		</g>
		<g>
			<g>
				<polygon class="st9" points="479.1,398.4 508,412.9 515.5,409 486.6,394.5 				"/>
				<polygon class="st16" points="508,412.9 508,416 515.5,412.1 515.5,409 				"/>
				<polygon class="st8" points="479.1,398.4 479.1,401.6 508,416 508,412.9 				"/>
			</g>
			<polygon class="st0" points="481.5,399.6 505.5,411.6 513,407.7 489,395.7 			"/>
		</g>
		<g>
			<g>
				<polygon class="st17" points="546,364.1 547.3,363.5 546.4,376.7 546,376.8 				"/>
				<polygon class="st12" points="545.6,376.7 544.7,363.5 546,364.1 546,376.8 				"/>
				<polygon class="st17" points="556.1,358.8 557.4,358.2 556.5,371.4 556.1,371.5 				"/>
				<polygon class="st12" points="555.9,371.4 554.9,358.2 556.1,358.8 556.1,371.5 				"/>
				<polygon class="st18" points="537,359.6 538.3,359 537.4,372.1 537,372.3 				"/>
				<polygon class="st19" points="536.8,372.2 535.8,359 537,359.6 537,372.3 				"/>
				<g>
					<g>
						<path class="st20" d="M542.8,364.9c1.3,0.6,2.7,0.8,4,0.1l11-5.5v-1.4l-22.6,1.8v0.4L542.8,364.9z"/>
					</g>
					<path class="st21" d="M544.6,363.8L544.6,363.8l-9.5-4v0.4c0,0.4,0.3,0.8,0.6,1l7.6,3.8C544.1,365.5,544.7,364.7,544.6,363.8z"
						/>
					<g>
						<path class="st22" d="M536.1,361l6.9,3.5c1.2,0.6,2.6,0.6,3.7,0l11.2-5.5l-10.3-6l-11.7,5.8C535,359.1,535,360.5,536.1,361z"
							/>
					</g>
					<g>
						<polygon class="st20" points="560.1,343.5 557.8,359.5 557,359.2 546.1,353.6 548.3,338.2 549.1,338 						"/>
					</g>
					<g>
						<g>
							<polygon class="st16" points="559.5,343.7 557,359.2 546.1,353.6 548.3,338.2 							"/>
						</g>
					</g>
				</g>
			</g>
			<g>
				<polygon class="st17" points="518.7,377.5 520,376.8 519.1,390 518.7,390.2 				"/>
				<polygon class="st12" points="518.5,390 517.5,376.8 518.7,377.5 518.7,390.2 				"/>
				<polygon class="st17" points="530.2,371.8 531.4,371.2 530.7,384.3 530.2,384.5 				"/>
				<polygon class="st12" points="529.9,384.4 529,371.2 530.2,371.8 530.2,384.5 				"/>
				<polygon class="st17" points="509.9,373 511.2,372.3 510.3,385.5 509.9,385.7 				"/>
				<polygon class="st12" points="509.5,385.5 508.6,372.3 509.9,373 509.9,385.7 				"/>
				<g>
					<path class="st20" d="M518.7,378.6l12.4-6.2c0.3-0.3,0.5-0.5,0.5-0.9v-0.5l-24.1,0.6v1.4L518.7,378.6z"/>
				</g>
				<g>
					<path class="st22" d="M519,377.9l12.2-6c0.6-0.3,0.6-1.2,0-1.4l-8.1-4.1c-1-0.5-2.2-0.5-3.1,0l-12.4,6.2L519,377.9z"/>
				</g>
			</g>
			<g>
				<polygon class="st17" points="561.8,363.9 563.1,363.3 562.2,384.2 561.8,384.3 				"/>
				<polygon class="st12" points="561.4,384.2 560.5,363.3 561.8,363.9 561.8,384.3 				"/>
				<polygon class="st17" points="538.6,375.6 539.8,375 539,395.9 538.6,396.1 				"/>
				<polygon class="st12" points="538.3,395.9 537.3,375 538.6,375.6 538.6,396.1 				"/>
				<polygon class="st17" points="504,359.2 505.2,358.6 504.3,379.4 504,379.7 				"/>
				<polygon class="st12" points="503.6,379.4 502.7,358.6 504,359.2 504,379.7 				"/>
				<path class="st23" d="M500.7,360l-0.3-1.9l37.6,17.4v1.3c0,0-0.9,0.5-2.2-0.1L500.7,360z"/>
				<polygon class="st22" points="538.1,376.8 538.1,375.1 565.2,361.4 565,363.3 				"/>
				<path class="st20" d="M535.6,375.6L501,358.8c-0.6-0.4-0.6-1.3,0-1.5l27.6-13.8c0.3-0.1,0.5-0.1,0.8,0l35.4,17.2
					c0.6,0.4,0.6,1.3,0,1.5l-26.7,13.3C537.3,375.9,536.4,375.9,535.6,375.6z"/>
			</g>
			<g>
				<g>
					<polygon class="st20" points="506.7,358.1 517.6,363.5 519.4,378 518.7,378.8 505.9,358.2 505.9,358.2 					"/>
				</g>
				<g>
					<g>
						<polygon class="st16" points="517.1,363.8 518.7,378.8 507.6,373.1 505.9,358.2 						"/>
					</g>
				</g>
			</g>
			<g>
				<path class="st24" d="M538.1,360c0,0,0.4,0,0.1-0.3c-0.3-0.4-2.2-3.6-2.2-3.6v0.6l1.8,2.9l-2.7-0.1l0.3,0.3L538.1,360z"/>
				<path class="st16" d="M537.1,355.8v4.9c0,0.4-0.4,0.6-0.6,0.6l-7.1-0.9c-0.3-0.1-0.5-0.4-0.5-0.6v-4.9c0-0.4,0.4-0.6,0.6-0.6
					l7.1,1.2C536.8,355.4,537.1,355.7,537.1,355.8z"/>
				<path class="st9" d="M536.8,356.3v4.9c0,0.4-0.4,0.6-0.6,0.6l-7.1-1.2c-0.3-0.1-0.5-0.4-0.5-0.6v-4.9c0-0.4,0.4-0.6,0.6-0.6
					l7.1,1.2C536.7,355.8,536.8,356.1,536.8,356.3z"/>
				<path class="st25" d="M536.3,360.5c0,0,0,0,0-0.1v-4.1c0-0.1,0-0.1,0-0.1l-7.1-1.2c0,0,0,0,0,0.1v4.2l0,0L536.3,360.5z"/>
			</g>
		</g>
	</g>
	<g>
		<path class="st8" d="M216.3,392.2l53.7,19.5l57.9-20.7l0,7.1c0,0,0,3.4-5.6,6.2l-40.7,20.5c-8.3,4.1-18,4.1-26.3,0l-30.8-15.4
			c-7.9-4.1-8.2-8.5-8.2-8.5L216.3,392.2z"/>
		<path class="st9" d="M322.6,400.1l-41,20.6c-8.3,4.1-18,4.1-26.3,0l-30.6-15.3c-11.3-5.6-11.3-21.7,0-27.4l30.9-15.6
			c8.2-4.1,17.9-4.1,26.1,0l40.8,20.4C329.7,386.4,329.7,396.5,322.6,400.1z"/>
		<path class="st0" d="M268.5,418.3c3.7,0,7.4-0.9,10.7-2.5l41-20.6c2-1,2.3-2.9,2.3-3.7s-0.2-2.6-2.3-3.7l-40.8-20.4
			c-3.3-1.6-6.9-2.5-10.6-2.5c-3.7,0-7.3,0.9-10.6,2.5l-30.9,15.6c-3.4,1.7-5.4,5-5.4,8.8c0,3.8,2,7.1,5.4,8.8l30.6,15.3
			C261.1,417.4,264.8,418.3,268.5,418.3z"/>
		<g>
			<g>
				<g>
					<path class="st10" d="M226.4,330.8l24.3-12.2c0.3-0.2,0.5-0.5,0.5-0.9v-3c0-0.1-0.8-0.6-1.4-0.2l-24.3,12.2
						c-0.3,0.2-0.5,0.5-0.5,0.9v2.4C225,330.6,225.8,331.1,226.4,330.8z"/>
					<path class="st11" d="M249.8,313.9L225.5,326c-0.3,0.2-0.5,0.5-0.5,0.9v1c0-0.4,0.2-0.7,0.5-0.9l24.3-12.2
						c0.6-0.3,1.1-0.5,1.4,0.1v-0.2C251.2,314,250.5,313.5,249.8,313.9z"/>
					
						<ellipse transform="matrix(0.7071 -0.7071 0.7071 0.7071 -158.0059 263.2686)" class="st12" cx="238.8" cy="322.4" rx="1.4" ry="1"/>
					
						<ellipse transform="matrix(0.7071 -0.7071 0.7071 0.7071 -158.0372 263.3248)" class="st13" cx="238.8" cy="322.4" rx="1" ry="0.7"/>
					
						<ellipse transform="matrix(0.7071 -0.7071 0.7071 0.7071 -157.7304 263.3827)" class="st9" cx="239.1" cy="322.1" rx="0.4" ry="0.3"/>
				</g>
				<path class="st14" d="M225.8,326.9c-0.8,0-0.7-0.4-0.7-0.4c-0.1,0.1-0.1,0.4-0.1,0.4v3.2c0,0,0.1,0.8,0.8,0.8V326.9z"/>
			</g>
			<g>
				<polygon class="st11" points="216.8,370.3 264,346.6 264,315.4 216.8,339.1 				"/>
				<polygon class="st8" points="216.8,339.1 264,315.4 263.2,315 215.9,338.6 				"/>
				<polygon class="st8" points="216.8,370.3 216.8,339.1 215.9,338.6 215.9,369.8 				"/>
				<polygon class="st15" points="262.2,318.1 218.6,339.9 218.6,367.6 262.2,345.8 				"/>
			</g>
		</g>
		<g>
			<g>
				<polygon class="st9" points="218.6,411.1 247.5,425.6 255,421.6 226.1,407.2 				"/>
				<polygon class="st16" points="247.5,425.6 247.5,428.7 255,424.8 255,421.6 				"/>
				<polygon class="st8" points="218.6,411.1 218.6,414.3 247.5,428.7 247.5,425.6 				"/>
			</g>
			<polygon class="st0" points="221,412.3 245,424.3 252.5,420.4 228.5,408.4 			"/>
		</g>
		<g>
			<g>
				<polygon class="st17" points="285.5,376.8 286.8,376.1 285.9,389.4 285.5,389.5 				"/>
				<polygon class="st12" points="285.1,389.4 284.2,376.1 285.5,376.8 285.5,389.5 				"/>
				<polygon class="st17" points="295.6,371.5 296.9,370.9 296,384.1 295.6,384.2 				"/>
				<polygon class="st12" points="295.4,384.1 294.3,370.9 295.6,371.5 295.6,384.2 				"/>
				<polygon class="st18" points="276.5,372.3 277.8,371.7 276.9,384.7 276.5,385 				"/>
				<polygon class="st19" points="276.3,384.9 275.2,371.7 276.5,372.3 276.5,385 				"/>
				<g>
					<g>
						<path class="st20" d="M282.3,377.6c1.3,0.6,2.7,0.8,4,0.1l11-5.5v-1.4l-22.6,1.8v0.4L282.3,377.6z"/>
					</g>
					<path class="st21" d="M284.1,376.5L284.1,376.5l-9.5-4v0.4c0,0.4,0.3,0.8,0.6,1l7.6,3.8C283.6,378.2,284.2,377.4,284.1,376.5z"
						/>
					<g>
						<path class="st22" d="M275.6,373.7l6.9,3.5c1.2,0.6,2.6,0.6,3.7,0l11.2-5.5l-10.3-6l-11.7,5.8
							C274.5,371.8,274.5,373.2,275.6,373.7z"/>
					</g>
					<g>
						<polygon class="st20" points="299.6,356.1 297.3,372.2 296.5,371.9 285.6,366.3 287.8,350.9 288.6,350.6 						"/>
					</g>
					<g>
						<g>
							<polygon class="st16" points="299,356.4 296.5,371.9 285.6,366.3 287.8,350.9 							"/>
						</g>
					</g>
				</g>
			</g>
			<g>
				<polygon class="st17" points="258.2,390.2 259.5,389.5 258.6,402.7 258.2,402.8 				"/>
				<polygon class="st12" points="258,402.7 257,389.5 258.2,390.2 258.2,402.8 				"/>
				<polygon class="st17" points="269.6,384.5 270.9,383.9 270.2,397 269.6,397.2 				"/>
				<polygon class="st12" points="269.4,397.1 268.5,383.9 269.6,384.5 269.6,397.2 				"/>
				<polygon class="st17" points="249.4,385.7 250.7,385 249.8,398.2 249.4,398.4 				"/>
				<polygon class="st12" points="249,398.2 248.1,385 249.4,385.7 249.4,398.4 				"/>
				<g>
					<path class="st20" d="M258.2,391.3l12.4-6.2c0.3-0.3,0.5-0.5,0.5-0.9v-0.5l-24.1,0.6v1.4L258.2,391.3z"/>
				</g>
				<g>
					<path class="st22" d="M258.5,390.5l12.2-6c0.6-0.3,0.6-1.2,0-1.4l-8.1-4.1c-1-0.5-2.2-0.5-3.1,0l-12.4,6.2L258.5,390.5z"/>
				</g>
			</g>
			<g>
				<polygon class="st17" points="301.3,376.6 302.5,376 301.6,396.9 301.3,397 				"/>
				<polygon class="st12" points="300.9,396.9 300,376 301.3,376.6 301.3,397 				"/>
				<polygon class="st17" points="278.1,388.3 279.3,387.6 278.4,408.5 278.1,408.8 				"/>
				<polygon class="st12" points="277.8,408.5 276.8,387.6 278.1,388.3 278.1,408.8 				"/>
				<polygon class="st17" points="243.4,371.9 244.7,371.2 243.8,392.1 243.4,392.4 				"/>
				<polygon class="st12" points="243.1,392.1 242.2,371.2 243.4,371.9 243.4,392.4 				"/>
				<path class="st23" d="M240.2,372.6l-0.3-1.9l37.6,17.4v1.3c0,0-0.9,0.5-2.2-0.1L240.2,372.6z"/>
				<polygon class="st22" points="277.5,389.4 277.5,387.8 304.7,374.1 304.5,376 				"/>
				<path class="st20" d="M275.1,388.3l-34.6-16.8c-0.6-0.4-0.6-1.3,0-1.5l27.6-13.8c0.3-0.1,0.5-0.1,0.8,0l35.4,17.2
					c0.6,0.4,0.6,1.3,0,1.5l-26.7,13.3C276.8,388.5,275.9,388.5,275.1,388.3z"/>
			</g>
			<g>
				<g>
					<polygon class="st20" points="246.2,370.8 257.1,376.2 258.9,390.7 258.2,391.4 245.4,370.9 245.4,370.9 					"/>
				</g>
				<g>
					<g>
						<polygon class="st16" points="256.6,376.4 258.2,391.4 247.1,385.8 245.4,370.9 						"/>
					</g>
				</g>
			</g>
			<g>
				<path class="st24" d="M277.6,372.7c0,0,0.4,0,0.1-0.3c-0.3-0.4-2.2-3.6-2.2-3.6v0.6l1.8,2.9l-2.7-0.1l0.3,0.3L277.6,372.7z"/>
				<path class="st16" d="M276.6,368.5v4.9c0,0.4-0.4,0.6-0.6,0.6l-7.1-0.9c-0.3-0.1-0.5-0.4-0.5-0.6v-4.9c0-0.4,0.4-0.6,0.6-0.6
					l7.1,1.2C276.3,368.1,276.6,368.4,276.6,368.5z"/>
				<path class="st9" d="M276.3,369v4.9c0,0.4-0.4,0.6-0.6,0.6l-7.1-1.2c-0.3-0.1-0.5-0.4-0.5-0.6v-4.9c0-0.4,0.4-0.6,0.6-0.6
					l7.1,1.2C276.2,368.5,276.3,368.7,276.3,369z"/>
				<path class="st25" d="M275.8,373.2c0,0,0,0,0-0.1V369c0-0.1,0-0.1,0-0.1l-7.1-1.2c0,0,0,0,0,0.1v4.2l0,0L275.8,373.2z"/>
			</g>
		</g>
	</g>
	<g>
		<path class="st8" d="M313.2,440.9l53.7,19.5l57.9-20.7l0,7.1c0,0,0,3.4-5.6,6.2l-40.7,20.5c-8.3,4.1-18,4.1-26.3,0l-30.8-15.4
			c-7.9-4.1-8.2-8.5-8.2-8.5L313.2,440.9z"/>
		<path class="st9" d="M419.5,448.8l-41,20.6c-8.3,4.1-18,4.1-26.3,0l-30.6-15.3c-11.3-5.6-11.3-21.7,0-27.4l30.9-15.6
			c8.2-4.1,17.9-4.1,26.1,0l40.8,20.4C426.6,435.1,426.6,445.2,419.5,448.8z"/>
		<path class="st0" d="M365.4,467c3.7,0,7.4-0.9,10.7-2.5l41-20.6c2-1,2.3-2.9,2.3-3.7s-0.2-2.6-2.3-3.7l-40.8-20.4
			c-3.3-1.6-6.9-2.5-10.6-2.5c-3.7,0-7.3,0.9-10.6,2.5l-30.9,15.6c-3.4,1.7-5.4,5-5.4,8.8c0,3.8,2,7.1,5.4,8.8l30.6,15.3
			C358,466.1,361.7,467,365.4,467z"/>
		<g>
			<g>
				<g>
					<path class="st10" d="M323.3,379.4l24.3-12.2c0.3-0.2,0.5-0.5,0.5-0.9v-3c0-0.1-0.8-0.6-1.4-0.2l-24.3,12.2
						c-0.3,0.2-0.5,0.5-0.5,0.9v2.4C321.9,379.3,322.7,379.8,323.3,379.4z"/>
					<path class="st11" d="M346.8,362.5l-24.3,12.2c-0.3,0.2-0.5,0.5-0.5,0.9v1c0-0.4,0.2-0.7,0.5-0.9l24.3-12.2
						c0.6-0.3,1.1-0.5,1.4,0.1v-0.2C348.2,362.7,347.4,362.2,346.8,362.5z"/>
					
						<ellipse transform="matrix(0.7071 -0.7071 0.7071 0.7071 -164.0412 346.0686)" class="st12" cx="335.7" cy="371" rx="1.4" ry="1"/>
					
						<ellipse transform="matrix(0.7071 -0.7071 0.7071 0.7071 -164.0725 346.1248)" class="st13" cx="335.8" cy="371.1" rx="1" ry="0.7"/>
					
						<ellipse transform="matrix(0.7071 -0.7071 0.7071 0.7071 -163.7657 346.1827)" class="st9" cx="336" cy="370.8" rx="0.4" ry="0.3"/>
				</g>
				<path class="st14" d="M322.7,375.6c-0.8,0-0.7-0.4-0.7-0.4c-0.1,0.1-0.1,0.4-0.1,0.4v3.2c0,0,0.1,0.8,0.8,0.8V375.6z"/>
			</g>
			<g>
				<polygon class="st11" points="313.7,418.9 361,395.3 361,364.1 313.7,387.7 				"/>
				<polygon class="st8" points="313.7,387.7 361,364.1 360.1,363.7 312.9,387.3 				"/>
				<polygon class="st8" points="313.7,418.9 313.7,387.7 312.9,387.3 312.9,418.5 				"/>
				<polygon class="st15" points="359.2,366.8 315.6,388.6 315.6,416.2 359.2,394.4 				"/>
			</g>
		</g>
		<g>
			<g>
				<polygon class="st9" points="315.6,459.8 344.4,474.2 351.9,470.3 323.1,455.9 				"/>
				<polygon class="st16" points="344.4,474.2 344.4,477.4 351.9,473.5 351.9,470.3 				"/>
				<polygon class="st8" points="315.6,459.8 315.6,463 344.4,477.4 344.4,474.2 				"/>
			</g>
			<polygon class="st0" points="318,461 342,473 349.4,469.1 325.4,457.1 			"/>
		</g>
		<g>
			<g>
				<polygon class="st17" points="382.4,425.5 383.7,424.8 382.8,438 382.4,438.2 				"/>
				<polygon class="st12" points="382,438 381.1,424.8 382.4,425.5 382.4,438.2 				"/>
				<polygon class="st17" points="392.6,420.2 393.8,419.6 392.9,432.8 392.6,432.9 				"/>
				<polygon class="st12" points="392.3,432.8 391.3,419.6 392.6,420.2 392.6,432.9 				"/>
				<polygon class="st18" points="373.5,421 374.7,420.3 373.8,433.4 373.5,433.7 				"/>
				<polygon class="st19" points="373.2,433.6 372.2,420.3 373.5,421 373.5,433.7 				"/>
				<g>
					<g>
						<path class="st20" d="M379.2,426.2c1.3,0.6,2.7,0.8,4,0.1l11-5.5v-1.4l-22.6,1.8v0.4L379.2,426.2z"/>
					</g>
					<path class="st21" d="M381,425.2L381,425.2l-9.5-4v0.4c0,0.4,0.3,0.8,0.6,1l7.6,3.8C380.5,426.9,381.1,426.1,381,425.2z"/>
					<g>
						<path class="st22" d="M372.6,422.4l6.9,3.5c1.2,0.6,2.6,0.6,3.7,0l11.2-5.5l-10.3-6l-11.7,5.8
							C371.4,420.5,371.4,421.9,372.6,422.4z"/>
					</g>
					<g>
						<polygon class="st20" points="396.5,404.8 394.2,420.9 393.5,420.6 382.6,415 384.7,399.6 385.5,399.3 						"/>
					</g>
					<g>
						<g>
							<polygon class="st16" points="395.9,405.1 393.5,420.6 382.6,415 384.7,399.6 							"/>
						</g>
					</g>
				</g>
			</g>
			<g>
				<polygon class="st17" points="355.2,438.8 356.5,438.2 355.6,451.4 355.2,451.5 				"/>
				<polygon class="st12" points="354.9,451.4 353.9,438.2 355.2,438.8 355.2,451.5 				"/>
				<polygon class="st17" points="366.6,433.2 367.9,432.6 367.1,445.6 366.6,445.9 				"/>
				<polygon class="st12" points="366.3,445.8 365.4,432.6 366.6,433.2 366.6,445.9 				"/>
				<polygon class="st17" points="346.3,434.4 347.6,433.7 346.7,446.9 346.3,447 				"/>
				<polygon class="st12" points="345.9,446.9 345,433.7 346.3,434.4 346.3,447 				"/>
				<g>
					<path class="st20" d="M355.2,440l12.4-6.2c0.3-0.3,0.5-0.5,0.5-0.9v-0.5l-24.1,0.6v1.4L355.2,440z"/>
				</g>
				<g>
					<path class="st22" d="M355.4,439.2l12.2-6c0.6-0.3,0.6-1.2,0-1.4l-8.1-4.1c-1-0.5-2.2-0.5-3.1,0l-12.4,6.2L355.4,439.2z"/>
				</g>
			</g>
			<g>
				<polygon class="st17" points="398.2,425.3 399.5,424.7 398.6,445.6 398.2,445.7 				"/>
				<polygon class="st12" points="397.8,445.6 396.9,424.7 398.2,425.3 398.2,445.7 				"/>
				<polygon class="st17" points="375,437 376.3,436.3 375.4,457.2 375,457.5 				"/>
				<polygon class="st12" points="374.7,457.2 373.7,436.3 375,437 375,457.5 				"/>
				<polygon class="st17" points="340.4,420.6 341.7,419.9 340.8,440.8 340.4,441.1 				"/>
				<polygon class="st12" points="340,440.8 339.1,419.9 340.4,420.6 340.4,441.1 				"/>
				<path class="st23" d="M337.2,421.3l-0.3-1.9l37.6,17.4v1.3c0,0-0.9,0.5-2.2-0.1L337.2,421.3z"/>
				<polygon class="st22" points="374.5,438.1 374.5,436.5 401.7,422.7 401.4,424.7 				"/>
				<path class="st20" d="M372,437l-34.6-16.8c-0.6-0.4-0.6-1.3,0-1.5l27.6-13.8c0.3-0.1,0.5-0.1,0.8,0l35.4,17.2
					c0.6,0.4,0.6,1.3,0,1.5l-26.7,13.3C373.7,437.2,372.8,437.2,372,437z"/>
			</g>
			<g>
				<g>
					<polygon class="st20" points="343.1,419.5 354,424.9 355.8,439.4 355.2,440.1 342.4,419.6 342.4,419.6 					"/>
				</g>
				<g>
					<g>
						<polygon class="st16" points="353.5,425.1 355.2,440.1 344,434.5 342.4,419.6 						"/>
					</g>
				</g>
			</g>
			<g>
				<path class="st24" d="M374.5,421.4c0,0,0.4,0,0.1-0.3c-0.3-0.4-2.2-3.6-2.2-3.6v0.6l1.8,2.9l-2.7-0.1l0.3,0.3L374.5,421.4z"/>
				<path class="st16" d="M373.5,417.2v4.9c0,0.4-0.4,0.6-0.6,0.6l-7.1-0.9c-0.3-0.1-0.5-0.4-0.5-0.6v-4.9c0-0.4,0.4-0.6,0.6-0.6
					l7.1,1.2C373.2,416.8,373.5,417,373.5,417.2z"/>
				<path class="st9" d="M373.2,417.7v4.9c0,0.4-0.4,0.6-0.6,0.6l-7.1-1.2c-0.3-0.1-0.5-0.4-0.5-0.6v-4.9c0-0.4,0.4-0.6,0.6-0.6
					l7.1,1.2C373.1,417.2,373.2,417.4,373.2,417.7z"/>
				<path class="st25" d="M372.7,421.9c0,0,0,0,0-0.1v-4.1c0-0.1,0-0.1,0-0.1l-7.1-1.2c0,0,0,0,0,0.1v4.2l0,0L372.7,421.9z"/>
			</g>
		</g>
	</g>
	<g class="st65">
		<path class="st31" d="M539.2,188.1c-0.1-0.2-1.4-1.2-1.9-2.5c-0.4-1.1-0.1-2.2,0.2-4.5c0.8-5.2-5.7-3.6-5.7-3.6s0.9,3.3,0.2,5.2
			c-0.2,0.4-1.8,0.3-2.5,0.5c-3.1,0.8,3.2,4.9,4.6,5.2C535.6,188.5,539.2,188.1,539.2,188.1z"/>
		<path class="st72" d="M538.6,186.8c0,0-3.7,2.2-7.6-4.1c-0.4-0.6-4.7,1.2-5.7,2.6l17,8.5C542.4,193.9,541.5,189,538.6,186.8z"/>
		<path class="st73" d="M531.9,179.2c0.6,2.5,2.8,4.2,4.6,3.8c1.8-0.4,2.4-2.5,2-5c-1.4-9.6-5.6-4.7-7.4-4.3
			C529.3,174.1,531.3,176.7,531.9,179.2z"/>
		<path class="st60" d="M534.6,172.1c1.6-0.3,3.1,0.7,3.9,5.9c0.4,2.5-0.2,4.6-2,5c-0.5,0.1-1.1,0.1-1.7-0.2
			C534.8,179.6,534.2,174.8,534.6,172.1z"/>
		<path class="st32" d="M540.4,188.5c0.2,0.4-4.4-1.6-3.1-5.9c1.2-1.5,2-3.2,0.2-7.9c-1,0.6-2.2,0.5-2.2,0.5s1.5-0.2,1.9-1
			c-1.1,0.5-1.4,0.6-2.3,0.5c-0.9-0.1-1.9-0.8-2.5-0.5c-0.7,0.3-1.7,1.5-0.2,5.9c1.3,2.5-0.5,3.1-3.1,3.1c-0.6,0,1-2.4,1-4.5
			s-1.8-11.3,2.7-11s7.6,7,7,11.6C539.1,184,540,187.4,540.4,188.5z"/>
	</g>
	<path class="st36" d="M415.7,226c0,7.8-14.1,30.6-14.1,30.6s-14.1-22.8-14.1-30.6s6.3-14.1,14.1-14.1
		C409.4,211.8,415.7,218.2,415.7,226z"/>
	<polygon class="st9" points="397.7,232.7 408.4,223.1 406.8,219.8 398.3,228.2 395.8,224.3 393.4,226.1 	"/>
	<path class="st36" d="M397.7,106.8c0,7.8-14.1,30.6-14.1,30.6s-14.1-22.8-14.1-30.6s6.3-14.1,14.1-14.1S397.7,99,397.7,106.8z"/>
	<polygon class="st9" points="379.7,113.5 390.4,104 388.7,100.6 380.3,109 377.8,105.1 375.4,106.9 	"/>
	<path class="st36" d="M441.7,277.1c0,6.1-11.1,24.1-11.1,24.1s-11.1-17.9-11.1-24.1s5-11.1,11.1-11.1
		C436.7,266,441.7,271,441.7,277.1z"/>
	<polygon class="st9" points="427.4,282.4 435.9,274.9 434.6,272.3 428,278.9 426,275.8 424.1,277.2 	"/>
	<path class="st36" d="M266.7,16.8c0,6.1-11.1,24.1-11.1,24.1s-11.1-17.9-11.1-24.1s5-11.1,11.1-11.1S266.7,10.6,266.7,16.8z"/>
	<polygon class="st9" points="252.4,22.1 260.9,14.5 259.6,11.9 252.9,18.5 251,15.4 249.1,16.9 	"/>
	<g>
		<g>
			<line class="st1" x1="309.8" y1="191.6" x2="311.2" y2="192.3"/>
			<line class="st74" x1="316" y1="194.7" x2="342.3" y2="208.3"/>
			<polyline class="st1" points="344.7,209.5 346,210.2 347.3,209.5 			"/>
			<line class="st75" x1="352.6" y1="206.5" x2="365.8" y2="199"/>
			<line class="st1" x1="368.4" y1="197.5" x2="369.7" y2="196.8"/>
		</g>
	</g>
</g>
</svg>
