<?xml version="1.0" encoding="utf-8"?>
<!-- Generator: Adobe Illustrator 24.2.1, SVG Export Plug-In . SVG Version: 6.00 Build 0)  -->
<svg version="1.1" id="Layer_1" xmlns="http://www.w3.org/2000/svg" xmlns:xlink="http://www.w3.org/1999/xlink" x="0px" y="0px"
	 viewBox="0 0 103.2 94.4" enable-background="new 0 0 103.2 94.4" xml:space="preserve">
<g>
	<ellipse opacity="0.5" fill="#E4EBF7" cx="33.3" cy="76.7" rx="20.3" ry="8.1"/>
	<polygon opacity="0.5" fill="#E4EBF7" points="90.3,80.5 34.6,52.7 41,49.6 96.7,77.4 	"/>
	<g>
		<g>
			<g>
				<g>
					<path fill="#CDE2F4" d="M79,22.5L50.4,8.1c-0.4-0.2-0.6-0.6-0.6-1V3.6c0-0.1,0.9-0.7,1.6-0.3L80,17.7c0.4,0.2,0.6,0.6,0.6,1
						v2.8C80.7,22.3,79.8,22.8,79,22.5z"/>
					<path fill="#E4EBF7" d="M51.5,2.6L80,16.9c0.4,0.2,0.6,0.6,0.6,1v1.1c0-0.4-0.2-0.8-0.6-1L51.5,3.7c-0.8-0.4-1.3-0.6-1.6,0.1
						V3.6C49.8,2.8,50.7,2.2,51.5,2.6z"/>

						<ellipse transform="matrix(0.7071 -0.7071 0.7071 0.7071 9.97 49.2613)" fill="#7F8790" cx="64.4" cy="12.6" rx="1.2" ry="1.6"/>

						<ellipse transform="matrix(0.7071 -0.7071 0.7071 0.7071 9.8973 49.2405)" fill="#5F6A73" cx="64.4" cy="12.7" rx="0.9" ry="1.1"/>

						<ellipse transform="matrix(0.7071 -0.7071 0.7071 0.7071 10.1042 48.9373)" fill="#FFFFFF" cx="64.1" cy="12.3" rx="0.3" ry="0.5"/>
				</g>
				<path fill="#A7BCC8" d="M79.8,17.9c0.9,0,0.8-0.5,0.8-0.5c0.1,0.1,0.1,0.5,0.1,0.5v3.7c0,0-0.1,0.9-0.9,0.9V17.9z"/>
			</g>
			<g>
				<polygon fill="#E4EBF7" points="90.3,68.9 34.8,41.1 34.8,4.5 90.3,32.2 				"/>
				<polygon fill="#D9E9F7" points="90.3,32.2 34.8,4.5 35.8,3.9 91.3,31.7 				"/>
				<polygon fill="#D9E9F7" points="90.3,68.9 90.3,32.2 91.3,31.7 91.3,68.4 				"/>
				<polygon fill="#FFFFFF" points="36.9,7.6 88.1,33.2 88.1,65.7 36.9,40.1 				"/>
				<polygon opacity="0.1" fill="#EEBB2E" points="40.8,12.6 76.7,30.5 76.7,53.3 40.8,35.3 				"/>
			</g>
		</g>
		<g>
			<path fill="#2E66B1" d="M73.7,57.6L52.8,47.2c0,0,0-8.8,2.3-9.4s13.8,4.3,17.5,9.4C74,49,73.7,57.6,73.7,57.6z"/>
			<path fill="#DBA986" d="M66.9,43.7c-0.2-0.8,0-4.3,0-4.3L61,37.9c0,0,0.8,3.4,0,4.8c-0.8,1.4,4.7,2.6,4.7,2.6L66.9,43.7z"/>
			<path fill="#FDCDA9" d="M64,41.5c-0.6-0.2-3.7-2.2-4-7.6s-0.6-6.4,0.6-6.8c1.3-0.4,6.4,2.1,6.7,3.8C67.7,32.6,68.6,43,64,41.5z"
				/>
			<path opacity="0.5" fill="#DBA986" d="M67.5,34.2c-0.2,0-3.4-1.2-3.5-0.6c-0.1,0.6,0.5,2.9,0,3.5c-0.5,0.6,0,3,0,4.4
				c0,0.2,3.2,1.2,3.6-4.6S67.5,34.2,67.5,34.2z"/>
			<path fill="#754C29" d="M61,25.8c-1.9,0.3-1.7,2.2-1.5,4.1c0.1,0.8-0.1,1.5-0.2,1.8c-0.1,0.3,0.5,3.9,0.9,3.8
				c0.4-0.1,0.3-0.7,0.3-0.7S59.8,32,60,31.5c0.2-0.5-0.4-4,1.3-3.6c1.7,0.4,1.7,1.6,2.4,1.8c0.7,0.2,2.9,0.4,3.4,1.7
				c0.5,1.3-0.1,5.4,0,5.8c0.1,0.5,0.5,0.7,0.7,0.5c0.8-0.9,0.2-2.8,0.3-3.3c0-0.5,0.2-2.9-0.4-4.1C67.1,29.1,64.8,25.2,61,25.8z"/>
			<path fill="#DBA986" d="M68.2,35.8c0.8,0.1,0.6,2.6-0.3,3.5C67,40.2,67.2,35.6,68.2,35.8z"/>
			<path fill="#FDCDA9" d="M59.3,31.4c0.8-0.1,1.3,2.3,0.6,3.4C59.3,35.9,58.3,31.5,59.3,31.4z"/>
			<path fill="#FFFFFF" d="M67.8,41.4l-4,2.4l-3.4-5.3c0,0-0.7,9.2,1.9,13.5l2.1,1C64.3,52.9,67.9,48.3,67.8,41.4z"/>
			<polygon fill="#B01E56" points="65,46 64,46.9 64,52.8 62.2,51.9 63.3,46.5 62.2,44.9 63.7,43.7 			"/>
		</g>
	</g>
	<g>
		<g>
			<polygon fill="#A37E6B" points="22.3,71.9 22,71.8 21.3,61.5 22.3,62 			"/>
			<polygon fill="#BCA090" points="22.3,71.9 22.3,62 23.3,61.5 22.6,71.8 			"/>
			<polygon fill="#5F6A73" points="14.4,67.8 14.1,67.7 13.4,57.4 14.4,57.9 			"/>
			<polygon fill="#7F8790" points="14.4,67.8 14.4,57.9 15.4,57.4 14.6,67.7 			"/>
			<polygon fill="#A37E6B" points="29.3,68.4 29,68.2 28.3,58 29.3,58.5 			"/>
			<polygon fill="#BCA090" points="29.3,68.4 29.3,58.5 30.3,58 29.5,68.3 			"/>
			<g>
				<g>
					<path fill="#8AACDA" d="M30.7,59v-0.3l-17.6-1.4v1.1l8.6,4.3c1,0.5,2.1,0.4,3.1-0.1L30.7,59z"/>
				</g>
				<path fill="#51AA7E" d="M24.4,62.8l5.9-3c0.3-0.2,0.5-0.5,0.5-0.8v-0.3l-7.4,3.1v0C23.3,62.5,23.8,63.1,24.4,62.8z"/>
				<g>
					<path fill="#D9E9F7" d="M30.1,57.8l-9.1-4.5l-8,4.7l8.7,4.3c0.9,0.5,2,0.5,2.9,0l5.4-2.7C30.9,59.2,30.9,58.1,30.1,57.8z"/>
				</g>
				<g>
					<polygon fill="#8AACDA" points="19.9,41.6 20.5,41.8 22.2,53.8 13.7,58.2 13.1,58.4 11.3,45.9 					"/>
				</g>
				<g>
					<g>
						<polygon fill="#C7DFF4" points="20.5,41.8 22.2,53.8 13.7,58.2 11.8,46.1 						"/>
					</g>
				</g>
			</g>
		</g>
		<g>
			<path fill="#F89C66" d="M29.9,57.3c-0.1,0-0.7-0.6-0.7-0.8s0-0.7-0.2-0.8c-0.2-0.1-0.9-0.4-0.9-0.4c0,0.9,0.2,1.1,0,1.3
				c-0.2,0.2-0.7-1-0.5-2c-0.5-1.1-0.7-1-0.7-1s1.3,0,1.4,0c0,0,1.2,1.6,1.7,1.9s0.2,1.9,0.1,1.9S29.9,57.3,29.9,57.3z"/>
			<path fill="#2E66B1" d="M28.7,53.9c0,0-1.2-0.1-1.4,0.7c-0.7-0.6-4-4.1-3.9-4.1c0-0.1-0.5-5.8-0.5-5.8s1.4-0.5,2,1
				c0.6,1.5,0.6,3.5,1,4.3C26.3,50.6,28.6,53.4,28.7,53.9z"/>
			<path fill="#0A4E9F" d="M22.8,54.9c0.3,0.2,2.6,1.1,4.1,2.8c1.5,1.7-4.1,4.7-4.7,4.9c-0.6,0.2-6-2.3-5.8-4.9
				C16.6,55.3,22.8,54.9,22.8,54.9z"/>
			<path fill="#754C29" d="M20,41.6c-0.5,2.3-1.5,1.7-1.4,4.3c0,1.8,1.5-0.9,1.5-0.9l1.1-2.9C21.2,42.1,20.1,40.9,20,41.6z"/>
			<path fill="#447ABE" d="M24.8,50.1c0.4-1.2-0.7-2.7-0.9-4.3c-0.2-1.3-1.9-3.3-5.2-0.5c-0.9,0.7-1.6,1.5-1.9,2.9
				c-0.4,2.1-0.1,4.9-0.3,5.4c-0.4,0.7-1.8,3.1-0.9,4.6c2.6,0.3,2.5,0.8,3.9,0.2s2.4-3.3,4.5-3.1c-1.1-1.2-1.1-1.9-1-2.7
				C23,51.8,24.4,51.3,24.8,50.1z"/>
			<g>
				<g>
					<g>
						<path fill="#2E66B1" d="M16.5,53.6c0.2-0.4-0.1-3.2,0.3-5.4c0.2-1.1,0.8-1.8,1.4-2.5c-0.1,0.3,1.5,0.9,1.4,1.3
							c-0.7,4.2,0.5,4.8,0.3,5.2c-0.4,0.7-1.6,1.2-0.6,2.7c2.6,0.3,1,1.3,2.3,0.7c0.9-0.4,0.7-0.4,1.7-1.2c0.2,0.2,0.4,0.5,0.6,0.8
							c-2-0.1-3.1,2.5-4.5,3.1c-1.4,0.6-1.3,0.1-3.9-0.2C14.7,56.7,16.1,54.3,16.5,53.6z"/>
					</g>
				</g>
			</g>
			<path fill="#D7A580" d="M22.1,44.8c0.2,0.1,1.1,0.1,1.1,2.8c0,1.1-0.3,2.7-0.4,2.6c-0.2-0.2-0.8-2.9-1.3-3.2
				c-0.5-0.3-1.2-2.4-1.2-2.4s0.6-1.4,0.7-1.4S22.1,44.8,22.1,44.8z"/>
			<path fill="#E6F6FD" d="M22.8,50.6c0,0-0.5-1.6-1.2-3.2c-0.2,0.5-0.5,0.7-0.5,0.7s-1.5-2.8-1.3-3.5c0.3-0.2,0.6-0.5,0.6-0.5
				c0.1,0,0.8,2.1,1.8,2.6c0.2,0.5,0.7,2.6,0.7,2.6s0.2-3-0.2-3.9c0.3-0.8,0.9-0.1,0.9-0.1s0.7,1.7,0.7,2.2c-0.3-0.2-1-0.4-1-0.4
				S23.5,49.4,22.8,50.6z"/>
			<path fill="#FDCDA9" d="M24.4,41.6c0.1,0.1,0.6,0.4,0.6,0.8c0,0.9-0.2,1-0.2,1.5c-0.1,1-0.5,2-1.3,2.7c-1.1,0.2-1.8-0.9-2.5-1.8
				C20.3,44,20,43.4,20.2,43c0.5-0.7,1.2-0.5,1.6-0.4C22.1,42.6,24.4,41.6,24.4,41.6z"/>
			<path opacity="0.5" fill="#DBA986" d="M24,42.7c-0.6-0.3-1.4,0.2-1.6,0.7c-0.2,0.4,0.6,0.8,0.6,1.1c-0.1,1-1.1,0-0.8,1.7
				c-0.6-0.5-1.9-2-2-2.8C19.9,42.3,23.8,41.2,24,42.7z"/>
			<path fill="#754C29" d="M24,42.7c0,0,0.5-0.8,0.8-0.4c0.2,0.3,0,1.2,0,1.2s1.5-2.1-1.3-3.6c-2.3-1.3-3.7,0.8-3.7,2.7
				c0,1,0.6,1.6,0.6,1.6l0.2,0c0,0-0.6-0.7-0.4-1.1c0.2-0.5,0.5,0.3,1.1,0.8C22,43.9,22.3,41.3,24,42.7z"/>
		</g>
		<g>
			<path fill="#E4EBF7" d="M41.2,79.9c0.6,0.1,1.7,0,1.8-1.6c0-1.6-3.7-3.4-4.1-3.3c-0.4,0.1-2,0.2-1,1.4s1.9,1.2,2.1,1.9
				C40.3,79,40.4,79.8,41.2,79.9z"/>
			<path fill="#666D73" d="M41.2,79.1c-0.8-0.1-1.3-1.2-1.9-1.7c-2.3-1.7-1.5-2-1.5-2.1c-0.2,0.2-0.3,0.5,0.2,1
				c1,1.2,1.2,1.1,1.8,1.9c0.5,0.6,0.7,1.5,1.5,1.6c0.6,0.1,1.7,0,1.8-1.6c0-0.1,0-0.2,0-0.3C42.7,79.1,41.8,79.2,41.2,79.1z"/>
			<path fill="#CFAC8D" d="M39.4,76.9c0,0,0.3-3,0-5.8c-0.3-2.8,3.6-2.3,3.6-2.3s1.2,6.4,0.1,9.6C42.8,79.1,40,79,39.4,76.9z"/>
			<path fill="#B48E6C" d="M43,68.8c0,0-1.5-0.2-2.6,0.3c0.2,1.3,1,6.4,0.1,9.2c1.1,0.7,2.4,0.6,2.6,0.1C44.2,75.2,43,68.8,43,68.8z
				"/>
		</g>
		<g>
			<polygon fill="#5F6A73" points="46.7,88.6 46.4,88.5 45.7,78.2 46.7,78.7 			"/>
			<polygon fill="#7F8790" points="46.7,88.6 46.7,78.7 47.7,78.2 46.9,88.5 			"/>
			<polygon fill="#5F6A73" points="37.8,84.2 37.4,84 36.8,73.8 37.8,74.3 			"/>
			<polygon fill="#7F8790" points="37.8,84.2 37.8,74.3 38.7,73.8 38,84.1 			"/>
			<polygon fill="#5F6A73" points="53.6,85.1 53.3,85 52.6,74.7 53.6,75.2 			"/>
			<polygon fill="#7F8790" points="53.6,85.1 53.6,75.2 54.6,74.7 53.9,85 			"/>
			<g>
				<path fill="#8AACDA" d="M55.4,75.3v-1.1l-18.8-0.5v0.4c0,0.3,0.2,0.5,0.4,0.7l9.7,4.8L55.4,75.3z"/>
			</g>
			<g>
				<path fill="#D9E9F7" d="M55.4,74.8L45.7,70c-0.7-0.4-1.6-0.4-2.4,0L37,73.2c-0.5,0.2-0.5,0.9,0,1.1l9.5,4.7L55.4,74.8z"/>
			</g>
		</g>
		<g>
			<path fill="#E4EBF7" d="M30.7,78.2c0,0.3,0.2,1.2,1.3,1.3c1,0.2,2.4,0.2,2.4,0.2v0.4c0,0,1.9,0.8,2.3-0.4s0.2-1.4,0-1.6
				c-0.6-0.7-4.1-1.2-4.8-1.1C31.2,77.3,30.7,77.8,30.7,78.2z"/>
			<path fill="#666D73" d="M36.6,79.4c-0.4,1.1-2.3,0.4-2.3,0.4v-0.4c0,0-1.3-0.1-2.4-0.2c-0.8-0.1-1.1-0.6-1.2-1c0,0.1,0,0.1,0,0.2
				c0,0.3,0.2,1.2,1.3,1.3c1,0.2,2.4,0.2,2.4,0.2v0.4c0,0,1.9,0.8,2.3-0.4c0.3-0.9,0.2-1.1,0-1.4C36.5,78.6,36.7,79,36.6,79.4z"/>
			<path fill="#CFAC8D" d="M49,75.6C49,75.6,49,75.6,49,75.6c-0.2,0.2-0.7,1.7-2.3,1.9c-2.4,0.2-4.4-2.1-5.3-2.6
				c-1-0.6-3.8-1.7-3.8-1.7l-1,0.5v1.1L37,75c-0.8,2.4,0.5,3.2-0.3,4.6c-0.4,1.1-1.8-1-2.7-1.4c-0.8-0.3,0.1-2.3,0.1-4.1
				c0-1.1-0.3-2.6-0.2-3.7c0-0.5,0.1-1,0.2-1.4c0.1-0.2,0.1-0.5,0.3-0.7c0.1-0.1,0.2-0.2,0.4-0.2c0.3,0,0.6-0.1,0.9-0.1
				c1-0.3,2-0.5,3.1-0.8c1.5-0.4,2.9-0.8,4.5-1.1c0.5-0.1,1.1-0.2,1.6-0.1c0.3,0,0.6,0.1,0.8,0.5c0.1,0.1,0.1,0.2,0.2,0.3
				c0.4,0.7,0.7,1.4,0.9,2.1C47.5,70.8,48.9,75.4,49,75.6z"/>
			<path fill="#B48E6C" d="M46.1,72.2c-0.2,0.2,0,2.8-1.7,2.8c-2.1,0-2.7-1-3.6-1.5c-1.6-1,2.5-2.7,2.5-2.7l0.1-2l-6.9,3.2l-0.6,1.7
				c-0.8,2.4,0.9,3.4,0,4.8c-0.3,1-2.3-0.4-2-0.3c0.9,0.4,2.3,2.5,2.7,1.4c0.8-1.4-0.4-3.2,0.6-4.8v-0.5c0,0,0-0.4,0.6-0.7
				c0,0,2.5,0.6,3.5,1.2c0.9,0.5,2.8,2.8,5.3,2.6c1.7-0.1,2.1-1.7,2.3-1.8c0,0,0,0,0,0C48.9,75.4,46.1,72.2,46.1,72.2z"/>
		</g>
		<g>
			<polygon fill="#5F6A73" points="10.9,81.8 10.6,81.7 9.9,65.4 10.9,65.9 			"/>
			<polygon fill="#7F8790" points="10.9,81.8 10.9,65.9 11.9,65.4 11.2,81.7 			"/>
			<polygon fill="#5F6A73" points="29,91 28.7,90.8 28,74.5 29,75 			"/>
			<polygon fill="#7F8790" points="29,91 29,75 30,74.5 29.2,90.8 			"/>
			<polygon fill="#5F6A73" points="56,78.2 55.7,78 55,61.7 56,62.2 			"/>
			<polygon fill="#7F8790" points="56,78.2 56,62.2 57,61.7 56.3,78 			"/>
			<path fill="#EFF8FD" d="M31.1,75.8c-1,0.5-1.7,0.1-1.7,0.1v-1l29.3-13.6l-0.2,1.5L31.1,75.8z"/>
			<polygon fill="#D9E9F7" points="8.4,65.4 8.2,63.9 29.4,74.6 29.4,75.9 			"/>
			<path fill="#8AACDA" d="M29.4,74.9L8.6,64.5c-0.5-0.2-0.5-0.9,0-1.2l27.6-13.4c0.2-0.1,0.4-0.1,0.6,0l21.5,10.8
				c0.5,0.2,0.5,0.9,0,1.2l-27,13.1C30.7,75.2,30,75.2,29.4,74.9z"/>
		</g>
		<g>
			<path fill="#FDCDA9" d="M39.9,65.5c-0.3-0.5-0.5-1.5-1.2-1.7c-1.1-0.4-1.5-0.3-2-0.1c-0.4,0.2-0.7,0.7-0.5,0.8
				c0.2,0.1,1.2,0.4,0.9,0.4c-0.4,0-0.9-0.1-1,0c-0.1,0.1,0.1,0.3,0.1,0.3c0.2,0.2,1,0.3,1.4,0.5c0.7,0.4,1.3,0.8,1.5,0.8
				C39.7,66.4,40.2,66,39.9,65.5z M37.2,64.3l-0.5-0.1h0.6L37.2,64.3z"/>
			<path fill="#2E66B1" d="M49.5,59c0.4-0.4,3.3-0.7,3.5,1.2c0.4,3.4-1.5,5.8-2,6.1c-0.5,0.3-5.6,0-5.3-0.8c0-0.1,1.7-0.9,2-0.9
				c2-0.4,4.8-1,4.3-1.5C51.4,62.5,49.5,59,49.5,59z"/>
			<path fill="#447ABE" d="M49.3,58.7c0.8,0,4.8-0.6,3.5,5.7c-0.5,2.7-2.2,3-0.5,6.5c1.6,3.4-3.9,5-4.4,5c-1.9,0.2-2.1-3-5.5-3.9
				c0,0,1.2-9.8,4.7-12C50.6,57.9,49.3,58.7,49.3,58.7z"/>
			<g>
				<g>
					<path fill="#484264" d="M49.3,58.7C49.3,58.7,49.3,58.7,49.3,58.7C49.8,58.4,49.3,58.7,49.3,58.7z"/>
					<g>
						<path fill="#2E66B1" d="M46.2,75.2c0,0-1.7-4.5,0.8-6.2c0.5-0.4,2.3-1.5,2.5-2.1c0.2-0.7-2.1-0.2-1.6-1.8
							c0.6-2.3-0.5-4.9,2.2-6.3c0.3-0.1-1.7,0.6-3,1.4c-3.5,2.2-4.7,12-4.7,12C44.3,72.6,46.2,75.2,46.2,75.2z"/>
					</g>
				</g>
			</g>
			<path fill="#FDCDA9" d="M47.4,59.2c0,0,0.3-1.5-1-1.6c-1-0.1,3.1-5.1,4-3.9c0.3,0.4,0.5,0.9,0.2,1.5c-0.1,0.2,0.1,0.5,0.1,0.7
				c-0.1,0.8-0.4,1.6-0.7,1.8c-0.5,0.4,0,0-0.2,0.3c-0.2,0.3-0.1,0.5,0.1,1C50.2,59.6,47.4,59.2,47.4,59.2z"/>
			<g>
				<g>
					<path fill="#D7A580" d="M49.6,58c0.7-0.3,1-1.2,1-1.2c-0.1,0.8-0.4,0.9-0.6,1.2c-0.2,0.3,0,0.2,0.1,0.7
						c0.1,0.5-3.1,1.4-3.1,1.4s0.9-1.4,0-2.2C47.9,58,49,58.3,49.6,58z"/>
				</g>
			</g>
			<path fill="#754C29" d="M47.6,58.3c-1.1-0.1-1.5-0.9-1.5-1.5c0-1.7-0.4-3,1.1-4c1.1-0.7,2.7-0.5,3.2-0.1c0.6,0.5,0,1,0.4,0.8
				c0.5-0.2,0.1,0.8,0.1,0.8s-1.3,1.6-0.6,2c-0.3,0.1-0.7-0.2-0.9-0.1c-0.6,0.2,1,1.2,0.1,1.9C49.1,58.4,48.2,58.4,47.6,58.3z"/>
			<path fill="#447ABE" d="M47,61.3c2,1-1.5,9.4-3,9.4c-1.7,0-4.5-3.5-5.1-4.1c-0.5-0.5,0.6-1.8,1.1-1.4c1.6,1.4,2.3,1.9,3,2.1
				C44.2,65.1,45,60,47,61.3z"/>
			<path fill="#2E66B1" d="M43.5,69.4c-1.7,0-4-3-4.6-3.6c-0.2,0.3-0.2,0.6,0,0.8c0.6,0.6,3.5,4.1,5.1,4.1c1.2,0,3.8-5.8,3.6-8.3
				C47.4,65.2,44.6,69.4,43.5,69.4z"/>
			<path fill="#FFFEF9" d="M50.4,58.7c0-0.2-0.5-0.4-0.5-0.4c0.2,0.6-0.2,0.9-1.7,1.2c-0.4,0.1-1.1,0-1.3,0.1
				c-0.2,0.1-0.1,0.4-0.3,0.9c0.4,0,0.8,0,1.3-0.1C49.3,60.1,50.5,59.3,50.4,58.7z"/>
		</g>
		<g>
			<g>
				<polygon fill="#8AACDA" points="56.7,63.7 56.7,63.7 46.7,79.7 46.2,79.1 47.6,67.8 56.1,63.6 				"/>
			</g>
			<g>
				<g>
					<polygon fill="#C7DFF4" points="56.7,63.7 55.4,75.3 46.7,79.7 48,68 					"/>
				</g>
			</g>
		</g>
		<g>
			<path fill="#FDCDA9" d="M21.1,57.4c0.2,0,0.4,0.1,0.6,0.1c0.2,0,1.3,0,1.6,0.1c0.3,0.1,0.7,0.3,0.7,0.3s1.1,0.3,1.2,1
				c0.1,0.8,0,0.8-0.2,0.8s-1.3-0.7-1.3-0.5s0.8,0.3,0.8,0.5c0,0.2-1.4-0.1-1.7-0.4c-0.2-0.2-1.9-1.2-1.9-1.4
				C20.8,57.8,21.1,57.4,21.1,57.4z"/>
			<path fill="#447ABE" d="M21.4,58.8c0,0-6.5-2.2-6.2-3.3c0.5-1.4,1.2-6.5,1.7-7.7c0.6-1.4,1.7-2,2.3-0.9c0.5,1-1.3,7.2-1.6,7.9
				c0.4,0.3,4.3,2.3,4.4,2.5C22.1,57.4,21.4,58.8,21.4,58.8z"/>
		</g>
		<g>
			<path fill="#484264" d="M36.9,58.9l0.2-0.2L35,58.8l1.4-2.3V56c0,0-1.5,2.5-1.7,2.8C34.5,59,34.8,59,34.8,59L36.9,58.9z"/>
			<path fill="#C7DFF4" d="M36,55.4l5.5-0.9c0.2,0,0.5,0.2,0.5,0.5v3.8c0,0.2-0.2,0.4-0.4,0.5L36.1,60c-0.2,0-0.5-0.2-0.5-0.5v-3.8
				C35.6,55.6,35.8,55.4,36,55.4z"/>
			<path fill="#FFFFFF" d="M36.2,55.6l5.5-0.9c0.2,0,0.5,0.2,0.5,0.5V59c0,0.2-0.2,0.4-0.4,0.5l-5.5,0.9c-0.2,0-0.5-0.2-0.5-0.5
				v-3.8C35.8,55.9,35.9,55.7,36.2,55.6z"/>
			<path fill="#E4EBF7" d="M41.7,58.5C41.7,58.5,41.7,58.5,41.7,58.5l0-3.3c0-0.1,0-0.1,0-0.1L36.2,56c0,0,0,0,0,0.1v3.2
				c0,0.1,0,0.1,0,0.1L41.7,58.5z"/>
		</g>
		<polygon fill="#EFF8FD" points="25.4,64.4 19.9,66.1 16.4,61 21.4,59.5 		"/>
		<polygon fill="#EFF8FD" points="37.9,67.6 33.2,69.8 27.1,66.7 31.8,64.4 		"/>
		<polygon fill="#A7BCC8" points="36.5,67.3 32.9,69 32.8,68.9 36.3,67.2 		"/>
		<polygon fill="#A7BCC8" points="35.5,66.8 32,68.5 31.9,68.4 35.4,66.7 		"/>
		<polygon fill="#A7BCC8" points="34.6,66.3 31.1,68 31,67.9 34.5,66.2 		"/>
		<g>
			<path fill="#57BE8E" d="M31.1,66.6c-0.1-0.1-0.2-0.2-0.5-0.2V66c0.6,0,1.1,0.3,1.2,0.6H31.1z"/>
			<path fill="#80BEE8" d="M30.3,66.3c-0.2,0-0.4,0.1-0.5,0.2h-0.7c0.1-0.3,0.5-0.5,1.2-0.6V66.3z"/>
			<path fill="#EF3824" d="M29.8,66.7c0.1,0.1,0.2,0.2,0.5,0.2v0.3c-0.6,0-1.1-0.3-1.2-0.6H29.8z"/>
			<path fill="#FDD332" d="M30.6,67c0.2,0,0.4-0.1,0.5-0.2h0.7c-0.1,0.3-0.5,0.5-1.2,0.6V67z"/>
		</g>
		<g>
			<g>
				<polygon fill="#67658F" points="18.9,63.8 15.6,62.2 17.5,61.3 20.8,62.9 				"/>
				<polygon fill="#8AACDA" points="20.2,62.9 18.1,61.9 16.8,62.5 18.9,63.5 				"/>
				<polygon fill="#545378" points="18.9,64.2 18.9,63.8 20.8,62.9 20.8,63.3 				"/>
				<polygon fill="#484264" points="15.6,62.5 15.6,62.2 18.9,63.8 18.9,64.2 				"/>
			</g>
			<ellipse fill="#484264" cx="17.1" cy="61.9" rx="0.3" ry="0.1"/>
		</g>
	</g>
</g>
</svg>
