<?xml version="1.0" encoding="utf-8"?>
<!-- Generator: Adobe Illustrator 21.1.0, SVG Export Plug-In . SVG Version: 6.00 Build 0)  -->
<svg version="1.1" id="Layer_1" xmlns="http://www.w3.org/2000/svg" xmlns:xlink="http://www.w3.org/1999/xlink" x="0px" y="0px"
	 viewBox="0 0 599.6 599.6" style="enable-background:new 0 0 599.6 599.6;" xml:space="preserve">
<g>
	
		<ellipse transform="matrix(0.7071 -0.7071 0.7071 0.7071 -130.8545 296.7422)" style="fill:#CDDC39;" cx="292.8" cy="306.3" rx="180.5" ry="180.5"/>
</g>
<g>
	
		<ellipse transform="matrix(0.7071 -0.7071 0.7071 0.7071 34.0911 365.4798)" style="fill:#CDDC39;" cx="458.2" cy="141.6" rx="96.3" ry="96.3"/>
</g>
<g>
	<path style="fill:#CDDC39;" d="M292.8,589.4c-9.4,0-17-7.6-17-17V306.3c0-9.4,7.6-17,17-17c9.4,0,17,7.6,17,17v266.1
		C309.8,581.8,302.2,589.4,292.8,589.4z"/>
</g>
<g>
	<path style="fill:#CDDC39;" d="M576.1,323.3H292.8c-9.4,0-17-7.6-17-17c0-9.4,7.6-17,17-17h283.3c9.4,0,17,7.6,17,17
		C593.1,315.7,585.5,323.3,576.1,323.3z"/>
</g>
<g>
	<path style="fill:#CDDC39;" d="M495.8,526.3c-4.3,0-8.7-1.7-12-5l-203-203c-6.6-6.6-6.6-17.4,0-24c6.6-6.6,17.4-6.6,24,0l203,203
		c6.6,6.6,6.6,17.4,0,24C504.5,524.7,500.1,526.3,495.8,526.3z"/>
</g>
<g>
	<path style="fill:#CDDC39;" d="M292.8,323.3H26.7c-9.4,0-17-7.6-17-17c0-9.4,7.6-17,17-17h266.1c9.4,0,17,7.6,17,17
		C309.8,315.7,302.2,323.3,292.8,323.3z"/>
</g>
<g>
	<path style="fill:#CDDC39;" d="M292.8,323.3c-9.4,0-17-7.6-17-17V23c0-9.4,7.6-17,17-17c9.4,0,17,7.6,17,17v283.3
		C309.8,315.7,302.2,323.3,292.8,323.3z"/>
</g>
<g>
	<path style="fill:#CDDC39;" d="M292.8,323.3c-4.3,0-8.7-1.7-12-5L83.4,120.9c-6.6-6.6-6.6-17.4,0-24c6.6-6.6,17.4-6.6,24,0
		l197.4,197.4c6.6,6.6,6.6,17.4,0,24C301.5,321.7,297.1,323.3,292.8,323.3z"/>
</g>
</svg>
