<?xml version="1.0" encoding="utf-8"?>
<!-- Generator: Adobe Illustrator 21.1.0, SVG Export Plug-In . SVG Version: 6.00 Build 0)  -->
<svg version="1.1" id="Layer_1" xmlns="http://www.w3.org/2000/svg" xmlns:xlink="http://www.w3.org/1999/xlink" x="0px" y="0px"
	 viewBox="0 0 599.6 599.6" style="enable-background:new 0 0 599.6 599.6;" xml:space="preserve">
<g>
	<path style="fill:#D9328A;" d="M513.8,6.4c44.2,0,79.1,36.5,79.3,83c0.2,43.7-35.2,78.9-80.6,80.3c-9.8,0.3-18.3,0.3-25.7,0.4
		c-28.5,0.1-52,9.3-67.8,24.4c-29,27.7-31.5,49.3-36.7,112.7c-3.6,43.1-39,75.6-82.5,75.6c-45.7,0-82.9-37.2-82.9-82.9
		c0-42.7,31.8-77.4,75.7-82.5c76.2-8.9,87-9.8,112.3-37.7c14.5-16,23.9-30.7,25.4-61.1c0.4-7.2,0.8-15.9,1.5-26.5
		c3.5-53.3,31.5-83.7,78.6-85.6C511.6,6.4,512.7,6.4,513.8,6.4C513.8,6.4,513.8,6.4,513.8,6.4z"/>
	<path style="fill:#D9328A;" d="M85.7,382.7c-44.2,0-79.1-36.5-79.3-83c-0.2-43.7,35.2-78.9,80.6-80.3c9.8-0.3,18.3-0.3,25.7-0.4
		c28.5-0.1,52-9.3,67.8-24.4c29-27.7,31.5-49.3,36.7-112.7c3.6-43.1,39-75.6,82.5-75.6c45.7,0,82.9,37.2,82.9,82.9
		c0,42.7-31.8,77.4-75.7,82.5c-76.2,8.9-87,9.8-112.3,37.7c-14.5,16-23.9,30.7-25.4,61.1c-0.4,7.2-0.8,15.9-1.5,26.5
		c-3.5,53.3-31.5,83.7-78.6,85.6C88,382.7,86.9,382.7,85.7,382.7C85.7,382.7,85.7,382.7,85.7,382.7z"/>
	<path style="fill:#D9328A;" d="M296.2,593.2c-44.2,0-79.1-36.5-79.3-83c-0.2-43.7,35.2-78.9,80.6-80.3c9.8-0.3,18.3-0.3,25.7-0.4
		c28.5-0.1,52-9.3,67.8-24.4c29-27.7,31.5-49.3,36.7-112.7c3.6-43.1,39-75.6,82.5-75.6c45.7,0,82.9,37.2,82.9,82.9
		c0,42.7-31.8,77.4-75.7,82.5c-76.2,8.9-87,9.8-112.3,37.7c-14.5,16-23.9,30.7-25.4,61.1c-0.4,7.2-0.8,15.9-1.5,26.5
		c-3.5,53.3-31.5,83.7-78.6,85.6C298.5,593.2,297.4,593.2,296.2,593.2C296.2,593.2,296.2,593.2,296.2,593.2z"/>
</g>
</svg>
